<?xml version="1.0" standalone="no"?>
<!DOCTYPE svg PUBLIC "-//W3C//DTD SVG 20010904//EN"
 "http://www.w3.org/TR/2001/REC-SVG-20010904/DTD/svg10.dtd">
<svg version="1.0" xmlns="http://www.w3.org/2000/svg"
 width="1024.000000pt" height="512.000000pt" viewBox="0 0 1024.000000 512.000000"
 preserveAspectRatio="xMidYMid meet">

<g transform="translate(0.000000,512.000000) scale(0.100000,-0.100000)"
fill="#000000" stroke="none">
<path d="M7697 4482 c-43 -48 -3 -185 86 -294 26 -31 47 -59 47 -62 0 -3 -17
-6 -37 -6 -21 0 -50 -6 -65 -14 -25 -13 -29 -12 -70 27 -136 130 -353 143
-502 29 -60 -45 -111 -117 -131 -185 -17 -58 -20 -166 -5 -216 16 -56 -11
-125 -97 -248 -138 -195 -193 -323 -193 -445 0 -107 127 -259 266 -319 35 -15
45 -23 41 -37 -55 -172 -69 -252 -55 -294 10 -29 94 -78 132 -78 12 0 43 -7
70 -15 51 -16 105 -19 143 -9 29 8 41 46 36 124 -3 36 0 83 5 105 9 37 10 33
12 -45 2 -98 7 -136 22 -163 9 -18 18 -19 95 -14 l84 6 -7 -91 c-4 -61 -15
-112 -32 -152 -14 -35 -27 -89 -29 -126 -5 -67 -4 -68 71 -335 20 -71 39 -154
43 -183 5 -49 4 -55 -24 -85 -93 -98 -68 -164 94 -249 118 -62 201 -74 463
-70 275 5 317 14 506 108 173 85 266 154 311 231 61 104 61 292 0 409 -30 59
-48 154 -51 284 -3 116 -1 131 15 146 42 38 50 149 19 259 -19 65 -50 191 -80
325 -7 30 -26 88 -42 128 l-28 73 20 66 c32 105 27 233 -16 382 -6 21 1 19
100 -33 143 -75 197 -75 268 1 36 38 49 76 49 143 1 96 -25 138 -106 176 -85
40 -249 26 -367 -30 l-47 -23 -29 46 c-51 80 -192 231 -250 268 -80 51 -196
100 -300 125 l-90 22 -5 47 c-9 70 -47 136 -119 205 -99 96 -183 128 -221 86z
m128 -52 c56 -39 128 -120 155 -175 26 -53 25 -138 -1 -143 -12 -2 -17 7 -21
41 -6 53 -74 165 -90 149 -7 -7 -4 -17 11 -33 33 -36 63 -102 49 -110 -9 -6
-8 -12 3 -25 13 -16 12 -16 -16 -2 -117 61 -232 248 -195 318 15 27 45 21 105
-20z m-288 -235 c111 -50 199 -168 210 -281 5 -44 1 -64 -21 -113 -14 -32 -29
-81 -32 -107 -8 -63 -62 -121 -148 -161 -53 -25 -73 -28 -156 -28 -84 0 -102
4 -152 28 -73 36 -142 105 -176 176 -24 49 -27 68 -27 156 0 115 17 160 87
240 103 117 275 154 415 90z m628 -132 c28 -8 74 -26 103 -39 29 -13 55 -24
58 -24 14 0 83 -54 78 -61 -3 -5 1 -6 9 -3 14 5 155 -141 188 -196 58 -95 142
-268 168 -347 38 -112 41 -208 11 -305 -25 -81 -25 -97 4 -166 36 -85 58 -179
59 -254 1 -37 5 -64 9 -62 4 3 8 -7 8 -23 -1 -27 -2 -26 -20 12 -11 22 -20 36
-21 30 -1 -5 -5 4 -9 20 -8 30 -8 30 -9 -7 0 -21 4 -38 9 -38 6 0 10 -9 10
-21 0 -11 -3 -18 -8 -15 -9 5 -6 -174 3 -204 4 -14 -2 -24 -22 -37 -15 -10
-31 -22 -35 -28 -4 -5 -35 -11 -68 -12 -33 -1 -67 -7 -75 -13 -8 -6 -23 -9
-35 -5 -15 5 -22 1 -29 -18 -5 -13 -23 -35 -40 -50 -17 -14 -31 -30 -31 -36 0
-6 -9 -15 -20 -21 -19 -10 -19 -12 -4 -35 18 -27 114 -81 114 -64 0 6 7 8 16
5 9 -4 26 5 43 22 35 34 121 67 121 46 0 -8 -1 -15 -2 -16 -4 -4 44 -71 55
-79 5 -3 8 -10 8 -15 -1 -5 4 -9 10 -9 7 0 12 -18 13 -43 1 -31 -3 -44 -15
-47 -9 -3 -20 -16 -24 -28 -12 -37 -16 -117 -6 -117 9 0 21 -70 21 -127 -1
-22 6 -35 19 -43 18 -9 22 -6 36 26 8 20 15 39 15 41 0 3 6 19 14 36 8 18 16
41 18 52 7 42 41 -59 46 -135 3 -62 -1 -90 -23 -163 -26 -83 -31 -90 -88 -138
-90 -75 -268 -160 -402 -192 -96 -23 -135 -27 -300 -29 -237 -4 -334 10 -427
59 -66 35 -118 86 -118 118 0 9 18 34 39 57 26 27 42 54 46 79 10 55 10 54
-86 354 -26 80 -32 117 -32 182 0 74 3 87 29 125 24 38 29 56 35 152 5 71 12
112 20 117 7 4 34 11 61 14 72 10 83 36 63 153 -7 42 -16 101 -19 129 l-7 52
80 41 c67 33 84 38 106 30 39 -15 99 -12 204 10 99 20 147 48 124 71 -9 9 -23
9 -55 1 -24 -6 -81 -13 -128 -16 l-85 -6 55 50 c32 29 65 49 78 50 35 0 132
61 132 82 0 22 -22 23 -61 3 l-30 -16 26 50 c30 61 33 101 7 101 -13 0 -27
-19 -47 -62 -21 -47 -50 -85 -115 -148 -73 -73 -103 -95 -201 -144 -144 -74
-192 -82 -344 -60 -61 9 -135 14 -165 10 -65 -6 -198 20 -309 61 -133 50 -241
180 -241 291 0 97 39 182 168 369 35 51 76 117 91 148 l28 56 18 -27 c43 -65
149 -128 243 -143 112 -18 229 17 318 94 l41 35 7 -41 c32 -200 241 -346 443
-309 214 39 341 221 311 446 -11 83 -36 132 -99 199 -78 82 -156 116 -271 116
-102 0 -163 -20 -244 -82 -61 -46 -64 -47 -64 -24 0 14 -9 48 -20 77 -11 28
-19 53 -17 53 16 12 83 25 131 26 34 0 84 4 111 9 61 10 123 4 190 -17z m57
-95 c164 -76 252 -258 204 -422 -40 -135 -135 -226 -276 -262 -206 -53 -424
111 -438 330 -8 131 41 237 148 317 70 52 127 69 225 66 62 -2 93 -8 137 -29z
m868 -267 c13 -4 39 -26 57 -50 29 -38 33 -50 33 -107 0 -55 -4 -68 -27 -94
-20 -23 -40 -33 -71 -37 -38 -5 -55 0 -137 43 -95 49 -108 64 -54 64 16 0 29
5 29 10 0 13 -51 13 -85 0 -18 -7 -33 -7 -48 1 l-21 12 24 9 c42 17 169 2 202
-22 32 -24 49 -19 32 8 -21 32 -82 44 -197 39 -92 -5 -109 -3 -114 10 -21 55
271 144 377 114z m-1905 -1006 c33 -8 78 -15 101 -15 l40 0 -1 -153 c-1 -85
-5 -159 -9 -165 -10 -16 -91 -15 -141 2 -22 7 -66 21 -97 30 -82 24 -87 60
-29 189 16 35 32 78 36 95 8 37 14 38 100 17z m422 -29 l72 1 10 -51 c6 -28
17 -88 25 -134 l14 -83 -27 -11 c-14 -6 -81 -13 -149 -17 -104 -5 -123 -4
-126 9 -3 8 -7 80 -11 159 l-7 144 63 -9 c35 -5 96 -9 136 -8z m1230 -138 c-3
-7 -5 -2 -5 12 0 14 2 19 5 13 2 -7 2 -19 0 -25z m16 -459 c-4 -15 -9 -17 -17
-9 -8 8 -7 13 4 20 8 5 16 10 17 10 0 0 -1 -9 -4 -21z m-6 -51 c-3 -8 -6 -5
-6 6 -1 11 2 17 5 13 3 -3 4 -12 1 -19z m0 -80 c-3 -8 -6 -5 -6 6 -1 11 2 17
5 13 3 -3 4 -12 1 -19z m20 -10 c-3 -8 -6 -5 -6 6 -1 11 2 17 5 13 3 -3 4 -12
1 -19z m43 -129 c0 -6 -4 -7 -10 -4 -5 3 -10 11 -10 16 0 6 5 7 10 4 6 -3 10
-11 10 -16z"/>
<path d="M7272 3785 c-36 -30 -46 -75 -28 -118 18 -44 39 -59 91 -64 41 -5 47
-3 80 30 37 37 45 78 24 120 -31 61 -114 77 -167 32z m68 -30 c10 -12 10 -18
0 -30 -17 -21 -54 -15 -58 9 -7 32 36 48 58 21z"/>
<path d="M7135 3185 c-57 -20 -105 -75 -105 -121 0 -29 8 -44 38 -74 131 -131
413 -18 325 131 -39 66 -164 97 -258 64z m59 -48 c46 -34 -20 -86 -71 -57 -33
19 -38 33 -18 54 20 19 65 21 89 3z"/>
<path d="M8781 2743 c0 -13 8 -32 18 -42 11 -11 21 -30 23 -43 3 -13 4 3 4 35
0 35 -3 51 -7 40 -6 -13 -8 -14 -8 -3 -1 13 -3 13 -10 1 -7 -11 -10 -9 -14 10
-4 23 -4 23 -6 2z"/>
<path d="M8810 1541 c-5 -11 -10 -24 -10 -30 0 -15 41 -13 61 2 14 10 15 16 4
30 -16 23 -42 22 -55 -2z"/>
<path d="M8905 1540 c-3 -5 -2 -10 4 -10 5 0 13 5 16 10 3 6 2 10 -4 10 -5 0
-13 -4 -16 -10z"/>
<path d="M7700 1360 c0 -9 15 -14 34 -11 4 1 23 -3 41 -9 17 -6 40 -7 50 -4
17 7 17 8 -1 21 -21 15 -124 18 -124 3z"/>
<path d="M8103 3925 c-42 -18 -68 -70 -59 -117 20 -108 175 -115 207 -10 15
51 -8 104 -56 126 -40 19 -51 19 -92 1z m35 -71 c2 -11 -4 -27 -13 -34 -14
-11 -19 -10 -37 8 -18 18 -19 23 -8 37 18 22 54 15 58 -11z"/>
<path d="M3140 4045 l0 -35 60 0 60 0 0 -465 0 -465 -55 0 -55 0 0 -35 0 -35
175 0 175 0 0 35 0 35 -55 0 -55 0 0 104 0 105 47 45 c26 24 51 42 55 40 9 -6
208 -281 208 -288 0 -3 -22 -6 -50 -6 l-50 0 0 -35 0 -35 180 0 180 0 0 35 0
35 -52 0 -53 1 -138 192 -137 192 107 102 108 102 63 1 62 0 0 35 0 35 -165 0
-165 0 0 -34 0 -35 52 -3 52 -3 -150 -139 -149 -139 -3 347 -2 346 -125 0
-125 0 0 -35z"/>
<path d="M4820 4045 l0 -35 60 0 60 0 0 -465 0 -465 -60 0 -60 0 0 -35 0 -35
125 0 125 0 0 52 0 53 31 -38 c41 -50 100 -79 175 -85 212 -17 357 188 324
457 -25 197 -153 320 -320 308 -77 -5 -134 -31 -178 -82 l-32 -36 0 221 0 220
-125 0 -125 0 0 -35z m538 -392 c71 -52 96 -126 96 -278 0 -119 -11 -173 -46
-225 -41 -59 -72 -75 -148 -75 -76 0 -107 16 -147 75 -34 50 -43 94 -43 221 0
171 34 259 115 295 43 20 138 13 173 -13z"/>
<path d="M1944 4040 c-28 -11 -54 -48 -54 -78 0 -32 43 -72 77 -72 32 1 55 15
72 47 30 57 -35 127 -95 103z"/>
<path d="M780 3995 l0 -35 65 0 65 0 0 -440 0 -440 -65 0 -65 0 0 -35 0 -35
205 0 205 0 0 35 0 35 -70 0 -70 0 0 206 0 207 103 -5 c165 -8 167 -9 307
-301 l85 -176 123 -1 122 0 0 35 0 35 -63 0 -63 0 -87 178 c-86 176 -114 216
-170 245 l-29 15 34 7 c60 13 127 54 153 93 33 50 47 126 35 195 -11 73 -30
107 -82 151 -71 61 -104 66 -440 66 l-298 0 0 -35z m584 -61 c58 -30 81 -80
81 -174 0 -94 -23 -144 -81 -174 -33 -18 -61 -22 -176 -24 l-138 -4 0 202 0
202 138 -4 c115 -2 143 -6 176 -24z"/>
<path d="M2635 3744 c-44 -16 -88 -54 -116 -99 l-19 -30 0 63 0 62 -125 0
-125 0 0 -35 0 -35 60 0 60 0 0 -295 0 -295 -55 0 -55 0 0 -35 0 -35 175 0
175 0 0 35 0 35 -55 0 -55 0 0 203 c0 259 13 309 93 362 34 22 129 25 165 6
13 -7 33 -34 45 -59 20 -44 21 -64 22 -277 l0 -230 -52 -3 -53 -3 0 -35 0 -34
175 0 175 0 0 35 0 34 -57 3 -58 3 -5 255 c-5 232 -7 259 -26 300 -48 103
-170 147 -289 104z"/>
<path d="M4263 3746 c-172 -56 -268 -240 -234 -445 30 -187 144 -296 318 -308
168 -12 289 58 337 195 l15 42 -49 0 c-49 0 -49 0 -70 -47 -27 -61 -46 -82
-95 -104 -76 -35 -199 -17 -247 37 -31 35 -59 112 -65 179 l-6 65 272 0 271 0
0 28 c0 47 -20 141 -40 187 -27 63 -92 129 -152 155 -66 28 -194 36 -255 16z
m180 -70 c64 -26 117 -123 117 -213 l0 -33 -196 0 -196 0 7 48 c8 57 38 128
68 161 45 49 133 65 200 37z"/>
<path d="M1810 3705 l0 -34 58 -3 57 -3 0 -290 0 -290 -57 -3 -58 -3 0 -34 0
-35 180 0 180 0 0 35 0 35 -60 0 -60 0 0 330 0 330 -120 0 -120 0 0 -35z"/>
<path d="M5670 3705 c0 -35 1 -35 43 -35 l43 0 136 -336 137 -336 -39 -91
c-48 -112 -67 -132 -121 -132 -44 0 -79 29 -79 66 0 15 -7 19 -35 19 l-35 0 0
-69 0 -69 50 -11 c115 -25 200 -2 243 66 14 21 103 230 197 466 l173 427 38 0
c38 0 39 1 39 35 l0 35 -135 0 -135 0 0 -35 0 -34 54 -3 54 -3 -100 -248 c-56
-136 -102 -246 -103 -245 -2 2 -48 114 -103 251 l-101 247 60 0 59 0 0 35 0
35 -170 0 -170 0 0 -35z"/>
<path d="M980 2250 l0 -120 45 0 45 0 0 80 0 80 150 0 150 0 0 -435 0 -435
-65 0 -65 0 0 -35 0 -35 200 0 200 0 0 35 0 35 -65 0 -65 0 0 435 0 435 150 0
150 0 0 -80 0 -80 40 0 40 0 0 120 0 120 -455 0 -455 0 0 -120z"/>
<path d="M3508 2303 c-16 -4 -18 -18 -18 -114 l0 -109 -55 0 -55 0 0 -35 0
-35 54 0 54 0 4 -277 c3 -265 4 -280 26 -320 32 -61 69 -78 172 -78 67 0 92 4
120 20 39 23 80 93 80 137 0 26 -3 28 -44 28 -44 0 -44 0 -51 -40 -8 -50 -44
-80 -95 -80 -25 0 -43 7 -56 21 -18 20 -19 42 -22 305 l-3 284 121 0 120 0 0
35 0 35 -120 0 -120 0 0 113 0 113 -47 1 c-27 1 -56 -1 -65 -4z"/>
<path d="M5790 2193 l0 -113 -55 0 -55 0 0 -34 0 -35 53 -3 52 -3 5 -285 c6
-315 8 -327 73 -365 37 -22 139 -31 194 -16 75 20 106 58 127 154 6 27 6 27
-43 27 l-48 0 -7 -40 c-8 -53 -39 -80 -91 -80 -30 0 -47 6 -61 21 -18 20 -19
40 -19 303 l0 281 118 3 117 3 0 34 0 35 -120 0 -120 0 0 110 c0 61 -3 110 -7
111 -5 1 -32 2 -60 3 l-53 2 0 -113z"/>
<path d="M2110 2086 c-169 -45 -262 -216 -239 -435 15 -134 77 -229 187 -283
62 -31 74 -33 167 -33 89 0 106 3 157 28 74 36 126 99 152 185 7 21 5 22 -42
22 -47 0 -51 -2 -61 -32 -30 -86 -105 -137 -200 -138 -128 0 -198 77 -217 240
l-7 60 273 0 273 0 -6 69 c-6 77 -41 173 -78 219 -75 93 -227 134 -359 98z
m174 -70 c67 -28 109 -102 118 -206 l3 -35 -198 -3 -198 -2 6 37 c19 110 60
183 120 209 40 17 107 17 149 0z"/>
<path d="M2877 2090 c-149 -38 -220 -188 -143 -302 28 -42 78 -70 196 -109
167 -56 210 -88 210 -159 0 -74 -64 -120 -167 -120 -114 0 -171 35 -193 118
-10 39 -13 42 -46 42 l-35 0 3 -87 3 -87 75 -25 c61 -20 96 -24 191 -25 109
-1 118 1 174 29 77 39 114 90 122 167 5 45 1 65 -16 101 -30 61 -85 94 -243
146 -165 55 -205 92 -182 173 14 49 54 72 134 76 93 6 150 -20 179 -82 12 -23
21 -48 21 -54 0 -7 15 -12 35 -12 l36 0 -3 83 -3 82 -70 23 c-78 26 -217 37
-278 22z"/>
<path d="M4345 2088 c-46 -17 -84 -47 -116 -91 l-29 -40 0 61 0 62 -120 0
-120 0 0 -35 0 -34 58 -3 57 -3 0 -290 0 -290 -57 -3 -58 -3 0 -34 0 -35 175
0 175 0 0 35 0 35 -56 0 -56 0 4 218 c3 195 5 222 24 262 39 85 117 123 204
100 84 -23 100 -81 100 -370 l0 -210 -55 0 -55 0 0 -35 0 -35 175 0 175 0 0
35 0 35 -54 0 -54 0 -5 248 c-3 195 -8 257 -21 292 -19 53 -53 93 -99 116 -39
21 -151 28 -192 12z"/>
<path d="M5145 2093 c-164 -36 -265 -180 -265 -377 0 -246 152 -399 380 -383
132 9 223 66 271 171 28 61 26 66 -29 66 -46 0 -49 -2 -61 -35 -17 -49 -56
-92 -104 -116 -32 -17 -54 -20 -107 -17 -82 4 -128 32 -165 99 -19 36 -43 138
-45 192 0 4 123 7 274 7 l273 0 -4 53 c-15 176 -101 299 -235 334 -50 12 -140
16 -183 6z m170 -86 c48 -26 90 -104 100 -184 l7 -53 -196 0 -196 0 0 35 c0
41 33 133 60 168 46 59 152 75 225 34z"/>
</g>
</svg>
