<svg id="Layer_1" data-name="Layer 1" xmlns="http://www.w3.org/2000/svg" xmlns:xlink="http://www.w3.org/1999/xlink" width="800" height="205" viewBox="0 0 800 205"><defs><style>.cls-1{fill:none;}.cls-2{clip-path:url(#clip-path);}.cls-3{fill:#212121;}.cls-4{fill:#8247e5;}</style><clipPath id="clip-path" transform="translate(0 -297.5)"><rect class="cls-1" x="37.47" y="320.34" width="725.06" height="159.31"/></clipPath></defs><title>polygon_token_logo-freelogovectors.net_</title><g class="cls-2"><path class="cls-3" d="M321.13,371.09a26.72,26.72,0,0,1,10.61,11.43,37,37,0,0,1,4.1,17.81c0,6.72-1.36,12.44-4.44,17.48a25.37,25.37,0,0,1-12,11.09,38.42,38.42,0,0,1-17.79,4,28.39,28.39,0,0,1-10.61-2,21.84,21.84,0,0,1-8.9-5.38v34.95H262.28V368.4h17.11l1.71,7.4c7.52-6.05,15.74-9.08,24.29-9.08A27.75,27.75,0,0,1,321.13,371.09Zm-10.95,41.68a15.36,15.36,0,0,0,5.13-12.1,17.67,17.67,0,0,0-4.79-12.44c-3.08-3.36-7.18-4.7-11.63-4.7a18.82,18.82,0,0,0-9.92,2.35,15.6,15.6,0,0,0-6.5,6.72v15.13a14.24,14.24,0,0,0,5.47,7,17.76,17.76,0,0,0,9.58,2.69A18.37,18.37,0,0,0,310.18,412.77Z" transform="translate(0 -297.5)"/><path class="cls-3" d="M347.48,382.85a31.78,31.78,0,0,1,12.66-11.43,41.46,41.46,0,0,1,18.47-4.37,37.39,37.39,0,0,1,18.48,4.37,31.62,31.62,0,0,1,12.32,11.76,34,34,0,0,1,0,33.61c-3.08,5-6.84,9.08-12.32,11.77a40.38,40.38,0,0,1-18.48,4.37,41.31,41.31,0,0,1-18.47-4,29.53,29.53,0,0,1-12.66-11.42A35.88,35.88,0,0,1,343,400,35.48,35.48,0,0,1,347.48,382.85Zm20.18,29.24c2.74,3.36,6.51,4.7,10.95,4.7a14.34,14.34,0,0,0,10.95-4.7c2.74-3,4.11-7.4,4.11-12.1q0-7.56-4.11-12.1a14.24,14.24,0,0,0-11.29-5,14.9,14.9,0,0,0-10.95,4.7,18.89,18.89,0,0,0-4.1,12.44A17.19,17.19,0,0,0,367.66,412.09Z" transform="translate(0 -297.5)"/><path class="cls-3" d="M446,320.67V431.25H426.18V320.67Z" transform="translate(0 -297.5)"/><path class="cls-3" d="M527.46,370.08l-40.38,90.75H467.92L483,428.22l-28.75-58.14h22.59l16.42,36.3,16.43-36.3Z" transform="translate(0 -297.5)"/><path class="cls-3" d="M603.42,370.08v61.17A26.39,26.39,0,0,1,598.28,447a34.1,34.1,0,0,1-13.68,11.09,44,44,0,0,1-18.82,4,51.48,51.48,0,0,1-13.35-1.68,61.17,61.17,0,0,1-9.23-4,62.51,62.51,0,0,1-8.56-6.38l11.64-13.45a33.12,33.12,0,0,0,8.55,6.05A24.56,24.56,0,0,0,565.44,445a21.65,21.65,0,0,0,12.66-3.7,12.09,12.09,0,0,0,5.13-10.42v-8.74a22.17,22.17,0,0,1-8.9,7.73,32.15,32.15,0,0,1-14.37,3,29.35,29.35,0,0,1-15.74-4.37,32.27,32.27,0,0,1-11.63-11.77,33.89,33.89,0,0,1-4.45-16.46,31.73,31.73,0,0,1,4.45-16.81,34.09,34.09,0,0,1,12-12.1,28.13,28.13,0,0,1,15.4-4.37,43.2,43.2,0,0,1,13.69,2,20.59,20.59,0,0,1,9.24,5.71l2.05-4.7Zm-20.19,37.64V392.59a14.56,14.56,0,0,0-6.5-7,21.54,21.54,0,0,0-10.61-2.69,18.13,18.13,0,0,0-12.32,4.7,15.36,15.36,0,0,0-5.13,12.1,17.36,17.36,0,0,0,17.45,17.48C574,416.79,579.81,413.77,583.23,407.72Z" transform="translate(0 -297.5)"/><path class="cls-3" d="M619.85,382.85a32.62,32.62,0,0,1,12.66-11.76A41.47,41.47,0,0,1,651,366.72a37.49,37.49,0,0,1,18.47,4.37,31.55,31.55,0,0,1,12.32,11.76,34.23,34.23,0,0,1,4.45,16.81,30.91,30.91,0,0,1-4.45,16.8,27.56,27.56,0,0,1-12.32,11.77A40.37,40.37,0,0,1,651,432.6a41.32,41.32,0,0,1-18.48-4,29.47,29.47,0,0,1-12.66-11.42c-3.08-5-4.45-10.76-4.45-17.82A31.43,31.43,0,0,1,619.85,382.85Zm19.84,29.25c2.74,3.36,6.5,4.7,10.95,4.7a14.36,14.36,0,0,0,11-4.7c2.74-3,4.11-7.4,4.11-12.1q0-7.58-4.11-12.1a14.33,14.33,0,0,0-11-4.71,14.87,14.87,0,0,0-10.95,4.71c-3.08,3-4.44,7.39-4.44,12.1A21,21,0,0,0,639.69,412.1Z" transform="translate(0 -297.5)"/><path class="cls-3" d="M756.38,372.09c4.1,3.36,5.81,7.73,6.15,13.11v46.05H742.34V392.59q-.51-9.07-9.23-9.07c-4.45,0-8.22,2-11,6.39s-4.11,9.74-4.11,16.13v25.21H698.2V370.08h18.14l1.37,9.74a25.46,25.46,0,0,1,9.58-9.41c4.1-2.35,8.9-3.36,14.37-3.36C747.48,367.05,752.61,368.73,756.38,372.09Z" transform="translate(0 -297.5)"/><path class="cls-4" d="M177.42,369.07a12,12,0,0,0-11.63,0L139.1,384.54,121,394.62,94.27,410.08a11.91,11.91,0,0,1-11.63,0L61.42,398a11.56,11.56,0,0,1-5.81-9.75V364.37a10.88,10.88,0,0,1,5.81-9.75L82.3,342.86a11.91,11.91,0,0,1,11.63,0l20.87,11.76a11.58,11.58,0,0,1,5.82,9.75v15.46l18.13-10.42V354a10.88,10.88,0,0,0-5.81-9.75L94.27,322a11.91,11.91,0,0,0-11.63,0L43.29,344.2A10.87,10.87,0,0,0,37.47,354v44.7a10.87,10.87,0,0,0,5.82,9.75l39.35,22.18a11.91,11.91,0,0,0,11.63,0L121,415.46,139.1,405l26.69-15.13a12,12,0,0,1,11.63,0l20.87,11.77a11.55,11.55,0,0,1,5.82,9.74v23.87a10.86,10.86,0,0,1-5.82,9.74l-20.87,12.1a11.91,11.91,0,0,1-11.63,0l-20.88-11.76a11.56,11.56,0,0,1-5.81-9.75V420.16L121,430.58V446a10.86,10.86,0,0,0,5.82,9.75L166.13,478a11.91,11.91,0,0,0,11.63,0l39.35-22.18a11.57,11.57,0,0,0,5.82-9.75v-44.7a10.89,10.89,0,0,0-5.82-9.75Z" transform="translate(0 -297.5)"/></g><rect class="cls-1" width="800" height="205"/></svg>