<svg width="40" height="33" viewBox="0 0 40 33" fill="none" xmlns="http://www.w3.org/2000/svg">
<path d="M39.773 25.2189C39.773 29.8193 36.9291 32.1195 31.2413 32.1195C27.8118 32.1195 25.5325 31.2204 24.4033 29.422C23.6087 28.1673 23.2114 25.7207 23.2114 22.0822C23.2114 15.307 23.7342 10.5392 24.7797 7.77895C26.5781 3.13667 30.2794 0.543691 35.8835 0V4.07768C32.5796 4.41225 30.3421 5.98059 29.1711 8.78269C28.5855 10.3719 28.2091 13.2577 28.0419 17.4399C35.8626 17.4399 39.773 20.0329 39.773 25.2189Z" fill="#BDBDBD"/>
<path d="M16.5616 25.2189C16.5616 29.8193 13.7177 32.1195 8.02988 32.1195C4.60046 32.1195 2.32114 31.2204 1.19194 29.422C0.397313 28.1673 3.18093e-07 25.7207 0 22.0822C-5.92306e-07 15.307 0.522778 10.5392 1.56834 7.77895C3.36669 3.13668 7.06797 0.543693 12.6722 2.0292e-06V4.07768C9.3682 4.41226 7.1307 5.98059 5.95968 8.78269C5.37417 10.3719 4.99777 13.2577 4.83048 17.4399C12.6512 17.4399 16.5616 20.0329 16.5616 25.2189Z" fill="#BDBDBD"/>
</svg>
