<svg width="20" height="20" viewBox="0 0 20 20" fill="none" xmlns="http://www.w3.org/2000/svg">
<path fill-rule="evenodd" clip-rule="evenodd" d="M10 18.6364C14.7697 18.6364 18.6364 14.7697 18.6364 10C18.6364 5.23027 14.7697 1.36364 10 1.36364C5.23027 1.36364 1.36364 5.23027 1.36364 10C1.36364 14.7697 5.23027 18.6364 10 18.6364ZM10 20C15.5228 20 20 15.5228 20 10C20 4.47715 15.5228 0 10 0C4.47715 0 0 4.47715 0 10C0 15.5228 4.47715 20 10 20Z" fill="#212121"/>
<path fill-rule="evenodd" clip-rule="evenodd" d="M10 15.4545C13.0125 15.4545 15.4546 13.0124 15.4546 9.99994C15.4546 6.98748 13.0125 4.5454 10 4.5454C6.98754 4.5454 4.54546 6.98748 4.54546 9.99994C4.54546 13.0124 6.98754 15.4545 10 15.4545ZM16.8182 9.99994C16.8182 13.7655 13.7656 16.8181 10 16.8181C6.23443 16.8181 3.18182 13.7655 3.18182 9.99994C3.18182 6.23437 6.23443 3.18176 10 3.18176C13.7656 3.18176 16.8182 6.23437 16.8182 9.99994Z" fill="#212121"/>
<path fill-rule="evenodd" clip-rule="evenodd" d="M10 16.8182C13.7656 16.8182 16.8182 13.7656 16.8182 10C16.8182 6.23443 13.7656 3.18183 10 3.18183C6.23443 3.18183 3.18183 6.23443 3.18183 10C3.18183 13.7656 6.23443 16.8182 10 16.8182ZM18.6364 10C18.6364 14.7697 14.7697 18.6364 10 18.6364C5.23028 18.6364 1.36365 14.7697 1.36365 10C1.36365 5.23028 5.23028 1.36365 10 1.36365C14.7697 1.36365 18.6364 5.23028 18.6364 10Z" fill="#67B68C"/>
<path d="M11.7797 13.4091H8.16197C7.99015 13.4091 7.83742 13.3454 7.70379 13.2182C7.57651 13.0845 7.51288 12.9318 7.51288 12.76V10.8986C7.51288 10.4977 7.65606 10.1572 7.94242 9.87725C8.22879 9.59725 8.57242 9.45725 8.97333 9.45725L11.1211 9.4477V8.07316H8.16197C7.9647 8.07316 7.80561 8.01589 7.6847 7.90134C7.57015 7.78043 7.51288 7.62452 7.51288 7.43361C7.51288 7.23634 7.57015 7.08043 7.6847 6.96589C7.80561 6.85134 7.9647 6.79407 8.16197 6.79407H10.9588C11.3661 6.79407 11.7129 6.93407 11.9992 7.21407C12.2856 7.4877 12.4288 7.82816 12.4288 8.23543V9.29498C12.4288 9.70225 12.2856 10.0459 11.9992 10.3259C11.7129 10.5995 11.3661 10.7363 10.9588 10.7363H8.82061V12.1204H11.7797C11.9706 12.1204 12.1265 12.1809 12.2474 12.3018C12.3683 12.4227 12.4288 12.5754 12.4288 12.76C12.4288 12.9509 12.3683 13.1068 12.2474 13.2277C12.1265 13.3486 11.9706 13.4091 11.7797 13.4091Z" fill="#212121"/>
</svg>
