<svg width="20" height="20" viewBox="0 0 20 20" fill="none" xmlns="http://www.w3.org/2000/svg">
<path fill-rule="evenodd" clip-rule="evenodd" d="M10 18.6364C14.7697 18.6364 18.6364 14.7697 18.6364 10C18.6364 5.23027 14.7697 1.36364 10 1.36364C5.23027 1.36364 1.36364 5.23027 1.36364 10C1.36364 14.7697 5.23027 18.6364 10 18.6364ZM10 20C15.5228 20 20 15.5228 20 10C20 4.47715 15.5228 0 10 0C4.47715 0 0 4.47715 0 10C0 15.5228 4.47715 20 10 20Z" fill="#212121"/>
<path fill-rule="evenodd" clip-rule="evenodd" d="M10 15.4545C13.0125 15.4545 15.4546 13.0124 15.4546 9.99994C15.4546 6.98748 13.0125 4.5454 10 4.5454C6.98754 4.5454 4.54546 6.98748 4.54546 9.99994C4.54546 13.0124 6.98754 15.4545 10 15.4545ZM16.8182 9.99994C16.8182 13.7655 13.7656 16.8181 10 16.8181C6.23443 16.8181 3.18182 13.7655 3.18182 9.99994C3.18182 6.23437 6.23443 3.18176 10 3.18176C13.7656 3.18176 16.8182 6.23437 16.8182 9.99994Z" fill="#212121"/>
<path fill-rule="evenodd" clip-rule="evenodd" d="M10 16.8182C13.7656 16.8182 16.8182 13.7656 16.8182 10C16.8182 6.23443 13.7656 3.18183 10 3.18183C6.23443 3.18183 3.18183 6.23443 3.18183 10C3.18183 13.7656 6.23443 16.8182 10 16.8182ZM18.6364 10C18.6364 14.7697 14.7697 18.6364 10 18.6364C5.23028 18.6364 1.36365 14.7697 1.36365 10C1.36365 5.23028 5.23028 1.36365 10 1.36365C14.7697 1.36365 18.6364 5.23028 18.6364 10Z" fill="#67B68C"/>
<path d="M10.5593 13.4091C10.3621 13.4091 10.1998 13.3486 10.0725 13.2277C9.94523 13.1068 9.8816 12.9509 9.8816 12.76V8.0827H8.68841C8.49114 8.0827 8.32887 8.02543 8.2016 7.91089C8.08069 7.78998 8.02023 7.63089 8.02023 7.43361C8.02023 7.23634 8.08069 7.08043 8.2016 6.96589C8.32887 6.85134 8.49114 6.79407 8.68841 6.79407H9.71932C10.133 6.79407 10.4893 6.93089 10.7884 7.20452C11.0875 7.47816 11.2371 7.82179 11.2371 8.23543V12.76C11.2371 12.9572 11.1734 13.1163 11.0461 13.2372C10.9189 13.3518 10.7566 13.4091 10.5593 13.4091Z" fill="#212121"/>
</svg>
