<svg width="17" height="22" viewBox="0 0 17 22" fill="none" xmlns="http://www.w3.org/2000/svg">
<path d="M15.7808 15.785L12.6596 12.2498H13.8581C14.0281 12.2513 14.1948 12.204 14.3387 12.1136C14.4826 12.0232 14.5976 11.8934 14.67 11.7397C14.7429 11.5877 14.7696 11.4176 14.7468 11.2506C14.724 11.0836 14.6526 10.9269 14.5416 10.8001L11.4893 7.2493H12.6179C12.7908 7.25 12.9602 7.20001 13.1051 7.1055C13.25 7.01099 13.364 6.87611 13.433 6.71752C13.5002 6.56157 13.5202 6.38936 13.4906 6.22218C13.4609 6.05499 13.383 5.90014 13.2663 5.77676L8.95876 1.18912C8.89899 1.12917 8.82797 1.08161 8.74978 1.04916C8.67159 1.0167 8.58777 1 8.50311 1C8.41845 1 8.33463 1.0167 8.25644 1.04916C8.17825 1.08161 8.10723 1.12917 8.04746 1.18912L3.73932 5.77898C3.6228 5.90244 3.54493 6.05728 3.51531 6.22444C3.48569 6.39159 3.50561 6.56376 3.57262 6.71974C3.64174 6.87829 3.75576 7.01313 3.90062 7.10763C4.04548 7.20213 4.21484 7.25215 4.38779 7.25152H5.51803L2.46516 10.8034C2.35449 10.9303 2.28341 11.0869 2.2607 11.2538C2.23798 11.4207 2.26463 11.5906 2.33736 11.7425C2.40978 11.8962 2.52474 12.0259 2.66862 12.1163C2.8125 12.2067 2.97928 12.254 3.1492 12.2526H4.34556L1.22212 15.785C1.10796 15.9116 1.03385 16.0693 1.00913 16.238C0.984404 16.4067 1.01018 16.5789 1.0832 16.733C1.15684 16.8882 1.27309 17.0193 1.41841 17.111C1.56372 17.2027 1.73211 17.2512 1.90393 17.2509H7.25118V18.2061L6.06759 20.0954C6.01996 20.1907 5.99747 20.2965 6.00226 20.403C6.00705 20.5094 6.03896 20.6128 6.09497 20.7035C6.15097 20.7941 6.22921 20.8689 6.32225 20.9208C6.4153 20.9727 6.52006 21 6.6266 21H10.3757C10.4823 21 10.587 20.9727 10.6801 20.9208C10.7731 20.8689 10.8514 20.7941 10.9074 20.7035C10.9634 20.6128 10.9953 20.5094 11.0001 20.403C11.0049 20.2965 10.9824 20.1907 10.9347 20.0954L9.75115 18.2061V17.2531H15.0984C15.2702 17.2534 15.4386 17.205 15.5839 17.1133C15.7292 17.0216 15.8455 16.8904 15.9191 16.7352C15.9927 16.5809 16.0188 16.4083 15.9942 16.2391C15.9696 16.0699 15.8953 15.9119 15.7808 15.785Z" fill="#67B68C" stroke="#212121"/>
</svg>
