<svg width="64" height="64" viewBox="0 0 64 64" fill="none" xmlns="http://www.w3.org/2000/svg">
<circle cx="32" cy="32" r="32" fill="#E5E7DB"/>
<path d="M40.6018 32.9327L29.6013 43.6134C29.4752 43.736 29.3254 43.8332 29.1606 43.8995C28.9958 43.9659 28.8191 44 28.6406 44C28.4622 44 28.2855 43.9659 28.1207 43.8995C27.9559 43.8332 27.8061 43.736 27.68 43.6134L26.3968 42.3675C26.1427 42.1203 26 41.7854 26 41.4361C26 41.0869 26.1427 40.7519 26.3968 40.5048L35.1175 32L26.3968 23.4952C26.1427 23.2481 26 22.9131 26 22.5639C26 22.2146 26.1427 21.8797 26.3968 21.6325L27.68 20.3866C27.8061 20.264 27.9559 20.1668 28.1207 20.1005C28.2855 20.0341 28.4622 20 28.6406 20C28.8191 20 28.9958 20.0341 29.1606 20.1005C29.3254 20.1668 29.4752 20.264 29.6013 20.3866L40.6018 31.0673C40.7281 31.1897 40.8282 31.3351 40.8965 31.4952C40.9648 31.6552 41 31.8268 41 32C41 32.1732 40.9648 32.3448 40.8965 32.5048C40.8282 32.6649 40.7281 32.8103 40.6018 32.9327Z" fill="#757575"/>
</svg>
