<svg width="64" height="64" viewBox="0 0 64 64" fill="none" xmlns="http://www.w3.org/2000/svg">
  <circle cx="32" cy="32" r="32" fill="#E5E7DB"/>
  <g clip-path="url(#clip0)">
    <path d="M23.3982 31.0673L34.3987 20.3866C34.5248 20.264 34.6746 20.1668 34.8394 20.1005C35.0042 20.0341 35.1809 20 35.3594 20C35.5378 20 35.7145 20.0341 35.8793 20.1005C36.0441 20.1668 36.1939 20.264 36.32 20.3866L37.6032 21.6325C37.8573 21.8797 38 22.2146 38 22.5639C38 22.9131 37.8573 23.2481 37.6032 23.4952L28.8825 32L37.6032 40.5047C37.8573 40.7519 38 41.0869 38 41.4361C38 41.7854 37.8573 42.1203 37.6032 42.3675L36.32 43.6134C36.1939 43.736 36.0441 43.8332 35.8793 43.8995C35.7145 43.9659 35.5378 44 35.3594 44C35.1809 44 35.0042 43.9659 34.8394 43.8995C34.6746 43.8332 34.5248 43.736 34.3987 43.6134L23.3982 32.9327C23.2719 32.8103 23.1718 32.6649 23.1035 32.5048C23.0352 32.3448 23 32.1732 23 32C23 31.8268 23.0352 31.6552 23.1035 31.4952C23.1718 31.3351 23.2719 31.1897 23.3982 31.0673Z" fill="#757575"/>
  </g>
  <defs>
    <clipPath id="clip0">
      <rect width="24" height="24" fill="white" transform="translate(20 44) rotate(-90)"/>
    </clipPath>
  </defs>
</svg>
