<svg width="24" height="24" viewBox="0 0 24 24" fill="none" xmlns="http://www.w3.org/2000/svg">
<path d="M21.8672 3.92337L12.8672 0.173367C12.593 0.0596386 12.2991 0.00109863 12.0023 0.00109863C11.7055 0.00109863 11.4117 0.0596386 11.1375 0.173367L2.1375 3.92337C1.29844 4.27024 0.75 5.09055 0.75 5.99993C0.75 15.3046 6.11719 21.7359 11.1328 23.8265C11.6859 24.0562 12.3094 24.0562 12.8625 23.8265C16.8797 22.1531 23.25 16.3734 23.25 5.99993C23.25 5.09055 22.7016 4.27024 21.8672 3.92337ZM12.0047 20.9202L12 3.06087L20.2453 6.49681C20.0906 13.5937 16.3969 18.7359 12.0047 20.9202Z" fill="#212121"/>
</svg>
