<svg width="28" height="24" viewBox="0 0 28 24" fill="none" xmlns="http://www.w3.org/2000/svg">
<g clip-path="url(#clip0)">
<path d="M14 1.5C6.54406 1.5 0.5 7.54406 0.5 15C0.5 17.475 1.16797 19.7934 2.33094 21.7875C2.59391 22.2384 3.095 22.5 3.61719 22.5H24.3828C24.905 22.5 25.4061 22.2384 25.6691 21.7875C26.832 19.7934 27.5 17.475 27.5 15C27.5 7.54406 21.4559 1.5 14 1.5ZM14 4.5C14.6895 4.5 15.2459 4.97484 15.4213 5.60859C15.3692 5.71453 15.2975 5.80687 15.2595 5.92125L14.8273 7.21828C14.5869 7.38188 14.3131 7.5 14.0005 7.5C13.1722 7.5 12.5005 6.82828 12.5005 6C12.5005 5.17172 13.1717 4.5 14 4.5ZM5 18C4.17172 18 3.5 17.3283 3.5 16.5C3.5 15.6717 4.17172 15 5 15C5.82828 15 6.5 15.6717 6.5 16.5C6.5 17.3283 5.82828 18 5 18ZM7.25 10.5C6.42172 10.5 5.75 9.82828 5.75 9C5.75 8.17172 6.42172 7.5 7.25 7.5C8.07828 7.5 8.75 8.17172 8.75 9C8.75 9.82828 8.07828 10.5 7.25 10.5ZM18.8173 7.10578L15.9425 15.7308C16.5842 16.2811 17 17.0878 17 18C17 18.5494 16.8416 19.057 16.5837 19.5H11.4163C11.1584 19.057 11 18.5494 11 18C11 16.4091 12.2422 15.1205 13.8078 15.0192L16.6831 6.39375C16.8786 5.805 17.5142 5.48203 18.1063 5.68266C18.6955 5.87906 19.0133 6.51656 18.8173 7.10578ZM19.5045 9.78703L20.232 7.605C20.3947 7.54453 20.5662 7.50047 20.75 7.50047C21.5783 7.50047 22.25 8.17219 22.25 9.00047C22.25 9.82875 21.5783 10.5005 20.75 10.5005C20.2166 10.5 19.7708 10.2061 19.5045 9.78703ZM23 18C22.1717 18 21.5 17.3283 21.5 16.5C21.5 15.6717 22.1717 15 23 15C23.8283 15 24.5 15.6717 24.5 16.5C24.5 17.3283 23.8283 18 23 18Z" fill="#212121"/>
</g>
<defs>
<clipPath id="clip0">
<rect width="27" height="24" fill="white" transform="translate(0.5)"/>
</clipPath>
</defs>
</svg>
