<svg width="18" height="24" viewBox="0 0 18 24" fill="none" xmlns="http://www.w3.org/2000/svg">
<g clip-path="url(#clip0)">
<path d="M17.7336 17.7417L13.9887 13.5H15.4245C15.8468 13.5 16.2204 13.2656 16.3986 12.8878C16.5767 12.5109 16.5181 12.0787 16.2448 11.7605L12.5825 7.49999H13.9367C14.3632 7.49999 14.7476 7.2492 14.9145 6.86202C15.0795 6.48092 15.0017 6.03749 14.7157 5.73327L9.54684 0.226392C9.26419 -0.0759522 8.73684 -0.0759522 8.45372 0.226392L3.28434 5.73327C2.9984 6.03749 2.92106 6.48092 3.08559 6.86202C3.25247 7.2492 3.63731 7.49999 4.06387 7.49999H5.41809L1.75528 11.7614C1.48294 12.0792 1.42434 12.5109 1.602 12.8883C1.78012 13.2656 2.15325 13.5 2.57606 13.5H4.01184L0.266998 17.7417C-0.0142516 18.06 -0.0780016 18.4959 0.100123 18.8789C0.275905 19.2562 0.662623 19.5 1.08497 19.5H7.50028V20.6461L6.08044 22.9148C5.83106 23.4136 6.19387 24.0005 6.75122 24.0005H11.2493C11.8067 24.0005 12.1695 23.4136 11.9201 22.9148L10.5003 20.6461V19.5H16.9156C17.3379 19.5 17.7247 19.2562 17.9004 18.8789C18.0786 18.4959 18.0148 18.06 17.7336 17.7417Z" fill="#212121"/>
</g>
<defs>
<clipPath id="clip0">
<rect width="18" height="24" fill="white"/>
</clipPath>
</defs>
</svg>
