<svg width="26" height="26" viewBox="0 0 26 26" fill="none" xmlns="http://www.w3.org/2000/svg">
<path d="M16.0797 13.66L16.4397 11.33H14.2097V9.81997C14.1931 9.64598 14.216 9.47049 14.2767 9.3066C14.3374 9.14271 14.4343 8.99465 14.5603 8.87349C14.6863 8.75234 14.838 8.66118 15.0041 8.60689C15.1703 8.5526 15.3465 8.53656 15.5197 8.55996H16.5197V6.55996C15.9244 6.46281 15.3228 6.40933 14.7197 6.39995C14.3078 6.37447 13.8953 6.43904 13.511 6.58919C13.1266 6.73934 12.7795 6.97148 12.494 7.2694C12.2084 7.56732 11.9913 7.92389 11.8575 8.31429C11.7238 8.70469 11.6768 9.11953 11.7197 9.52996V11.38H9.71973V13.71H11.7197V19.33H14.2297V13.71L16.0797 13.66Z" fill="#757575"/>
<path d="M12.85 25.7C10.3085 25.7 7.8241 24.9464 5.71093 23.5344C3.59776 22.1224 1.95076 20.1155 0.978171 17.7675C0.00558501 15.4195 -0.248911 12.8358 0.246909 10.3431C0.742729 7.85045 1.96659 5.56078 3.76369 3.76367C5.5608 1.96657 7.85044 0.742737 10.3431 0.246917C12.8358 -0.248903 15.4194 0.00556237 17.7675 0.978148C20.1155 1.95073 22.1224 3.59776 23.5344 5.71094C24.9464 7.82411 25.7 10.3085 25.7 12.85C25.6974 16.2572 24.3427 19.5241 21.9334 21.9334C19.5241 24.3427 16.2572 25.6974 12.85 25.7ZM12.85 0.999999C10.5063 0.999999 8.21522 1.69501 6.2665 2.9971C4.31778 4.29919 2.79893 6.14991 1.90203 8.31522C1.00513 10.4805 0.770478 12.8632 1.22771 15.1618C1.68495 17.4605 2.81353 19.572 4.47079 21.2292C6.12804 22.8865 8.23952 24.0151 10.5382 24.4723C12.8369 24.9296 15.2195 24.6949 17.3848 23.798C19.5501 22.9011 21.4008 21.3822 22.7029 19.4335C24.005 17.4848 24.7 15.1937 24.7 12.85C24.6974 9.708 23.448 6.69546 21.2263 4.47372C19.0046 2.25199 15.992 1.00265 12.85 0.999999Z" fill="#757575"/>
</svg>
