<svg width="26" height="26" viewBox="0 0 26 26" fill="none" xmlns="http://www.w3.org/2000/svg">
<path d="M12.85 25.7C10.3085 25.7 7.82408 24.9464 5.71091 23.5344C3.59773 22.1224 1.95073 20.1155 0.978148 17.7675C0.00556237 15.4195 -0.248903 12.8358 0.246917 10.3431C0.742737 7.85045 1.96657 5.56078 3.76367 3.76367C5.56078 1.96657 7.85042 0.742737 10.3431 0.246917C12.8357 -0.248903 15.4195 0.00556237 17.7675 0.978148C20.1155 1.95073 22.1224 3.59776 23.5344 5.71094C24.9464 7.82411 25.7 10.3085 25.7 12.85C25.6973 16.2572 24.3426 19.5241 21.9334 21.9334C19.5241 24.3427 16.2572 25.6974 12.85 25.7ZM12.85 0.999999C10.5063 0.999999 8.2152 1.69501 6.26648 2.9971C4.31776 4.29919 2.79894 6.14991 1.90204 8.31522C1.00514 10.4805 0.770456 12.8632 1.22769 15.1618C1.68493 17.4605 2.81354 19.572 4.47079 21.2292C6.12805 22.8865 8.2395 24.0151 10.5382 24.4723C12.8369 24.9296 15.2195 24.6949 17.3848 23.798C19.5501 22.9011 21.4008 21.3822 22.7029 19.4335C24.005 17.4848 24.7 15.1937 24.7 12.85C24.6973 9.708 23.448 6.69546 21.2263 4.47372C19.0046 2.25199 15.992 1.00265 12.85 0.999999Z" fill="#757575"/>
<path d="M6.53006 9.23001C7.17087 8.12154 8.0916 7.20081 9.20007 6.56C10.3211 5.9151 11.5917 5.57568 12.885 5.57568C14.1783 5.57568 15.449 5.9151 16.57 6.56C17.6785 7.20081 18.5993 8.12154 19.2401 9.23001C19.7863 10.1716 20.1166 11.2227 20.2071 12.3075C20.2975 13.3923 20.146 14.4836 19.7632 15.5027C19.3805 16.5217 18.7761 17.443 17.9939 18.2C17.2117 18.957 16.2711 19.5308 15.2401 19.88C15.1757 19.8988 15.1078 19.9023 15.0418 19.8901C14.9758 19.878 14.9136 19.8505 14.8601 19.81C14.82 19.7734 14.7885 19.7285 14.7678 19.6783C14.7471 19.6282 14.7376 19.5742 14.7401 19.52C14.7401 19.52 14.7401 19.33 14.7401 19C14.7401 18.67 14.7401 18.39 14.7401 18.15H14.96C15.1363 18.1666 15.3138 18.1666 15.4901 18.15C15.7116 18.145 15.9324 18.1216 16.1501 18.08C16.3836 18.0361 16.6031 17.9366 16.7901 17.79C16.987 17.6408 17.1336 17.4349 17.21 17.2L17.3101 16.98C17.39 16.8052 17.4907 16.6407 17.6101 16.49C17.7187 16.3376 17.8629 16.214 18.0301 16.13H18.1001L18.2201 16.02C18.2564 15.9814 18.2868 15.9376 18.3101 15.89C18.3101 15.89 18.3101 15.81 18.3101 15.78C18.218 15.7586 18.1222 15.7586 18.0301 15.78H17.8401C17.6703 15.8264 17.5109 15.9045 17.3701 16.01C17.1814 16.1404 17.0243 16.3112 16.9101 16.51C16.784 16.7496 16.6022 16.9553 16.38 17.11C16.1958 17.2415 15.9763 17.3147 15.75 17.32C15.5705 17.3379 15.3896 17.3379 15.21 17.32C15.0617 17.2906 14.9173 17.2436 14.7801 17.18C14.7516 16.8002 14.5843 16.4443 14.3101 16.18C14.6473 16.1493 14.9816 16.0924 15.3101 16.01C15.6244 15.9247 15.9267 15.8004 16.21 15.64C16.5062 15.4792 16.7678 15.2618 16.9801 15C17.2063 14.7 17.3758 14.361 17.4801 14C17.6189 13.5362 17.6864 13.0541 17.6801 12.57C17.6912 12.203 17.6298 11.8375 17.4994 11.4943C17.369 11.1511 17.1721 10.837 16.9201 10.57C17.0427 10.2489 17.0998 9.90643 17.0877 9.5629C17.0757 9.21936 16.9949 8.88175 16.8501 8.57001C16.5699 8.52544 16.2827 8.57096 16.0301 8.70001C15.7543 8.80266 15.4869 8.92635 15.2301 9.07001L14.82 9.33002C13.6191 8.99872 12.351 8.99872 11.1501 9.33002L10.7901 9.10001C10.5107 8.93244 10.216 8.79179 9.91006 8.67999C9.67162 8.56237 9.40188 8.52385 9.14004 8.57001C8.9925 8.88074 8.90938 9.21812 8.89563 9.56183C8.88188 9.90554 8.93781 10.2485 9.06006 10.57C8.80801 10.837 8.61113 11.1511 8.48071 11.4943C8.35029 11.8375 8.2889 12.203 8.30005 12.57C8.29368 13.0573 8.36112 13.5428 8.50006 14.01C8.60563 14.3725 8.77866 14.7117 9.01007 15.01C9.22408 15.27 9.48533 15.4871 9.78006 15.65C10.0635 15.8103 10.3658 15.9346 10.6801 16.02C11.0085 16.1025 11.3428 16.1594 11.6801 16.19C11.5017 16.3659 11.3643 16.5789 11.2779 16.8141C11.1915 17.0492 11.158 17.3005 11.1801 17.55V19.55C11.1819 19.6041 11.1721 19.658 11.1514 19.708C11.1307 19.758 11.0996 19.803 11.0601 19.84C11.0073 19.882 10.9451 19.9104 10.8788 19.9226C10.8125 19.9348 10.7443 19.9305 10.6801 19.91C9.65015 19.5593 8.7108 18.9847 7.92962 18.2274C7.14844 17.4702 6.54486 16.5491 6.16232 15.5306C5.77978 14.5121 5.62782 13.4215 5.71734 12.3372C5.80687 11.2529 6.13565 10.202 6.68005 9.26001L6.53006 9.23001Z" fill="#757575"/>
</svg>
