<svg width="26" height="26" viewBox="0 0 26 26" fill="none" xmlns="http://www.w3.org/2000/svg">
<path d="M12.8508 9.56005C12.0905 9.55257 11.351 9.80868 10.7582 10.2848C10.1654 10.7609 9.75581 11.4277 9.59908 12.1717C9.44234 12.9157 9.54816 13.6911 9.89852 14.3659C10.2489 15.0407 10.8221 15.5733 11.5209 15.8732C12.2196 16.1731 13.0006 16.2217 13.7311 16.0108C14.4616 15.7998 15.0965 15.3424 15.5278 14.7162C15.9591 14.0901 16.1603 13.3338 16.097 12.5761C16.0337 11.8184 15.71 11.106 15.1808 10.56C14.8779 10.2475 14.5159 9.99824 14.116 9.82659C13.716 9.65493 13.286 9.56433 12.8508 9.56005ZM12.8508 15C12.3534 15.0002 11.8713 14.8278 11.4867 14.5124C11.1021 14.1969 10.8388 13.7578 10.7416 13.27C10.6445 12.7822 10.7195 12.2757 10.9538 11.837C11.1882 11.3983 11.5675 11.0544 12.027 10.8639C12.4865 10.6735 12.9979 10.6482 13.4739 10.7925C13.9499 10.9368 14.3612 11.2417 14.6377 11.6552C14.9141 12.0687 15.0386 12.5653 14.9899 13.0604C14.9413 13.5554 14.7224 14.0182 14.3708 14.37C14.1715 14.5701 13.9346 14.7288 13.6738 14.837C13.4129 14.9451 13.1332 15.0005 12.8508 15ZM17.0508 9.43004C17.0528 9.60828 16.993 9.78174 16.8815 9.92079C16.77 10.0598 16.6136 10.1559 16.4392 10.1926C16.2648 10.2292 16.083 10.2042 15.9249 10.1218C15.7668 10.0394 15.6423 9.90474 15.5724 9.74074C15.5026 9.57674 15.4918 9.39359 15.5419 9.22252C15.592 9.05146 15.6999 8.9031 15.8472 8.80272C15.9945 8.70234 16.1721 8.65618 16.3497 8.67211C16.5272 8.68803 16.6937 8.76506 16.8208 8.89006C16.9542 9.02018 17.0359 9.19427 17.0508 9.38005V9.43004ZM19.2308 10.21C19.2551 9.71377 19.1753 9.21791 18.9964 8.75435C18.8176 8.29079 18.5437 7.86981 18.1923 7.51848C17.841 7.16715 17.42 6.89325 16.9565 6.7144C16.4929 6.53556 15.997 6.45574 15.5008 6.48006C14.4408 6.42006 11.2608 6.42006 10.2008 6.48006C9.70414 6.45417 9.20757 6.53291 8.7433 6.7112C8.27903 6.88949 7.85742 7.16334 7.50575 7.515C7.15409 7.86667 6.88021 8.28831 6.70192 8.75258C6.52363 9.21685 6.44489 9.71339 6.47078 10.21C6.41078 11.27 6.41078 14.4501 6.47078 15.5101C6.44646 16.0063 6.52628 16.5022 6.70513 16.9657C6.88397 17.4293 7.15787 17.8503 7.5092 18.2016C7.86054 18.553 8.28155 18.8268 8.7451 19.0057C9.20866 19.1845 9.70453 19.2644 10.2008 19.24C11.2608 19.3 14.4408 19.3 15.5008 19.24C15.997 19.2644 16.4929 19.1845 16.9565 19.0057C17.42 18.8268 17.841 18.553 18.1923 18.2016C18.5437 17.8503 18.8176 17.4293 18.9964 16.9657C19.1753 16.5022 19.2551 16.0063 19.2308 15.5101C19.2908 14.4401 19.2908 11.2601 19.2308 10.2001V10.21ZM17.8608 16.65C17.7517 16.926 17.5871 17.1767 17.3772 17.3865C17.1674 17.5964 16.9168 17.7609 16.6408 17.87C14.1291 18.2133 11.5824 18.2133 9.07079 17.87C8.79482 17.7609 8.54415 17.5964 8.33431 17.3865C8.12447 17.1767 7.95991 16.926 7.85079 16.65C7.50749 14.1384 7.50749 11.5917 7.85079 9.08006C7.95991 8.8041 8.12447 8.55343 8.33431 8.34358C8.54415 8.13374 8.79482 7.96919 9.07079 7.86006C11.5824 7.51677 14.1291 7.51677 16.6408 7.86006C16.9168 7.96919 17.1674 8.13374 17.3772 8.34358C17.5871 8.55343 17.7517 8.8041 17.8608 9.08006C18.2041 11.5917 18.2041 14.1384 17.8608 16.65Z" fill="#757575"/>
<path d="M12.85 25.7C10.3085 25.7 7.82411 24.9464 5.71094 23.5344C3.59776 22.1224 1.95073 20.1155 0.978148 17.7675C0.00556237 15.4195 -0.248903 12.8358 0.246917 10.3431C0.742737 7.85045 1.96657 5.56078 3.76367 3.76367C5.56078 1.96657 7.85042 0.742737 10.3431 0.246917C12.8357 -0.248903 15.4195 0.00556237 17.7675 0.978148C20.1155 1.95073 22.1224 3.59776 23.5344 5.71094C24.9464 7.82411 25.7 10.3085 25.7 12.85C25.6974 16.2572 24.3427 19.5241 21.9334 21.9334C19.5241 24.3427 16.2572 25.6974 12.85 25.7ZM12.85 0.999999C10.5063 0.999999 8.21523 1.69501 6.26651 2.9971C4.31779 4.29919 2.79894 6.14991 1.90204 8.31522C1.00514 10.4805 0.770456 12.8632 1.22769 15.1618C1.68493 17.4605 2.81354 19.572 4.47079 21.2292C6.12805 22.8865 8.2395 24.0151 10.5382 24.4723C12.8369 24.9296 15.2195 24.6949 17.3848 23.798C19.5501 22.9011 21.4008 21.3822 22.7029 19.4335C24.005 17.4848 24.7 15.1937 24.7 12.85C24.6974 9.708 23.448 6.69546 21.2263 4.47372C19.0046 2.25199 15.992 1.00265 12.85 0.999999Z" fill="#757575"/>
</svg>
