<svg width="26" height="26" viewBox="0 0 26 26" fill="none" xmlns="http://www.w3.org/2000/svg">
<path d="M12.85 25.7C10.3085 25.7 7.82409 24.9464 5.71091 23.5344C3.59774 22.1224 1.95071 20.1155 0.978126 17.7675C0.00553977 15.4195 -0.248895 12.8358 0.246925 10.3431C0.742745 7.85045 1.96654 5.56078 3.76365 3.76367C5.56075 1.96657 7.85046 0.742737 10.3431 0.246917C12.8358 -0.248903 15.4195 0.00556237 17.7675 0.978148C20.1155 1.95073 22.1224 3.59776 23.5344 5.71094C24.9464 7.82411 25.7 10.3085 25.7 12.85C25.6973 16.2572 24.3427 19.5241 21.9334 21.9334C19.5241 24.3427 16.2572 25.6974 12.85 25.7ZM12.85 0.999999C10.5063 0.999999 8.21524 1.69501 6.26652 2.9971C4.31779 4.29919 2.79891 6.14991 1.90201 8.31522C1.00512 10.4805 0.770464 12.8632 1.2277 15.1618C1.68493 17.4605 2.81355 19.572 4.4708 21.2292C6.12805 22.8865 8.23951 24.0151 10.5382 24.4723C12.8369 24.9296 15.2195 24.6949 17.3848 23.798C19.5501 22.9011 21.4008 21.3822 22.7029 19.4335C24.005 17.4848 24.7 15.1937 24.7 12.85C24.6973 9.708 23.448 6.69546 21.2263 4.47372C19.0046 2.25199 15.992 1.00265 12.85 0.999999Z" fill="#757575"/>
<path d="M9.32076 19.2702H6.66079V10.7001H9.32076V19.2702ZM7.9908 9.53013C7.63206 9.53292 7.28343 9.41118 7.00442 9.18568C6.7254 8.96017 6.53324 8.64487 6.46071 8.29353C6.38819 7.94218 6.43979 7.57656 6.60671 7.25901C6.77363 6.94146 7.04554 6.69162 7.37606 6.55213C7.70658 6.41265 8.07525 6.39213 8.41921 6.49409C8.76317 6.59604 9.06111 6.81417 9.26223 7.11125C9.46335 7.40832 9.55521 7.76596 9.52212 8.12318C9.48902 8.4804 9.33304 8.81507 9.08077 9.07014C8.93686 9.21563 8.7656 9.33118 8.5768 9.41013C8.38801 9.48909 8.18544 9.52987 7.98079 9.53013H7.9908ZM19.2808 19.2702H16.6207V15.1001C16.6207 14.1001 16.6208 12.8301 15.2408 12.8301C13.8608 12.8301 13.6408 13.9101 13.6408 15.0301V19.2702H10.9808V10.7001H13.5308V11.8701C13.787 11.4339 14.1566 11.0753 14.6003 10.8323C15.044 10.5893 15.5453 10.4711 16.0508 10.4902C18.7408 10.4902 19.2408 12.2601 19.2408 14.5701L19.2808 19.2702Z" fill="#757575"/>
</svg>
