<svg width="26" height="26" viewBox="0 0 26 26" fill="none" xmlns="http://www.w3.org/2000/svg">
<path d="M12.85 25.7C10.3085 25.7 7.82409 24.9464 5.71091 23.5344C3.59774 22.1224 1.95071 20.1155 0.978126 17.7675C0.00553977 15.4194 -0.248895 12.8358 0.246925 10.3431C0.742745 7.85044 1.96654 5.5608 3.76365 3.76369C5.56075 1.96659 7.85046 0.742729 10.3431 0.246909C12.8358 -0.248911 15.4195 0.00558501 17.7675 0.978171C20.1155 1.95076 22.1224 3.59776 23.5344 5.71093C24.9464 7.8241 25.7 10.3085 25.7 12.85C25.6973 16.2572 24.3427 19.5241 21.9334 21.9334C19.5241 24.3427 16.2572 25.6974 12.85 25.7ZM12.85 1.00002C10.5063 1.00002 8.21524 1.695 6.26652 2.99709C4.31779 4.29919 2.79891 6.1499 1.90201 8.31521C1.00512 10.4805 0.770464 12.8632 1.2277 15.1618C1.68493 17.4605 2.81355 19.572 4.4708 21.2292C6.12805 22.8865 8.23951 24.0151 10.5382 24.4723C12.8369 24.9295 15.2195 24.6949 17.3848 23.798C19.5501 22.9011 21.4008 21.3822 22.7029 19.4335C24.005 17.4848 24.7 15.1937 24.7 12.85C24.6973 9.70799 23.448 6.69545 21.2263 4.47372C19.0046 2.25198 15.992 1.00267 12.85 1.00002Z" fill="#757575"/>
<path d="M7.94995 9.82999C7.95791 9.75235 7.94758 9.67394 7.9198 9.60101C7.89202 9.52808 7.84758 9.46267 7.78998 9.41L6.58997 7.95999V7.75H10.3099L13.1899 14.06L15.72 7.75H19.27V7.97L18.27 8.97C18.2269 9.00373 18.1939 9.04856 18.1746 9.09967C18.1552 9.15078 18.1501 9.20621 18.16 9.25998V16.49C18.1501 16.5438 18.1552 16.5992 18.1746 16.6503C18.1939 16.7014 18.2269 16.7463 18.27 16.78L19.27 17.78V18H14.27V17.78L15.27 16.78C15.37 16.68 15.3699 16.65 15.3699 16.49V10.65L12.46 17.93H12.0699L8.70996 10.6V15.52C8.69667 15.6216 8.70687 15.725 8.73981 15.8221C8.77275 15.9192 8.82756 16.0074 8.89996 16.08L10.2499 17.72V17.94H6.45996V17.73L7.80994 16.09C7.88008 16.0164 7.93202 15.9275 7.96155 15.8302C7.99107 15.7329 7.9974 15.6301 7.97998 15.53L7.94995 9.82999Z" fill="#757575"/>
</svg>
