<svg width="272" height="26" viewBox="0 0 272 26" fill="none" xmlns="http://www.w3.org/2000/svg">
<path d="M19.2403 8.43982L17.3003 17.5798C17.1503 18.2298 16.7703 18.3898 16.2303 18.0798L13.2303 15.8998L11.8003 17.2698C11.7309 17.3603 11.6416 17.4336 11.5393 17.4839C11.4369 17.5342 11.3243 17.5602 11.2103 17.5598L11.4203 14.5598L16.9003 9.6098C17.1403 9.3998 16.8503 9.27981 16.5303 9.48981L9.7603 13.7498L6.8503 12.8398C6.2203 12.6398 6.2003 12.2098 6.9803 11.8998L18.3803 7.50983C18.9503 7.31983 19.4103 7.63982 19.2403 8.43982Z" fill="#757575"/>
<path d="M12.85 25.7C10.3085 25.7 7.82411 24.9464 5.71094 23.5344C3.59776 22.1224 1.95073 20.1155 0.978148 17.7675C0.00556237 15.4195 -0.248903 12.8357 0.246917 10.3431C0.742737 7.85042 1.96657 5.56078 3.76367 3.76367C5.56078 1.96657 7.85042 0.742737 10.3431 0.246917C12.8357 -0.248903 15.4195 0.00556237 17.7675 0.978148C20.1155 1.95073 22.1224 3.59773 23.5344 5.71091C24.9464 7.82408 25.7 10.3085 25.7 12.85C25.6974 16.2572 24.3427 19.5241 21.9334 21.9334C19.5241 24.3426 16.2572 25.6974 12.85 25.7ZM12.85 0.999999C10.5063 0.999999 8.2152 1.69497 6.26648 2.99707C4.31776 4.29916 2.79894 6.14988 1.90204 8.31518C1.00514 10.4805 0.770456 12.8631 1.22769 15.1618C1.68493 17.4605 2.81354 19.572 4.47079 21.2292C6.12805 22.8865 8.2395 24.0151 10.5382 24.4723C12.8369 24.9295 15.2195 24.6949 17.3848 23.798C19.5501 22.9011 21.4008 21.3822 22.7029 19.4335C24.005 17.4848 24.7 15.1937 24.7 12.85C24.6974 9.708 23.448 6.69543 21.2263 4.47369C19.0046 2.25196 15.992 1.00265 12.85 0.999999Z" fill="#757575"/>
<path d="M53.8508 9.56005C53.0905 9.55257 52.351 9.80868 51.7582 10.2848C51.1654 10.7609 50.7558 11.4277 50.5991 12.1717C50.4423 12.9157 50.5482 13.6911 50.8985 14.3659C51.2489 15.0407 51.8221 15.5733 52.5209 15.8732C53.2196 16.1731 54.0006 16.2217 54.7311 16.0108C55.4616 15.7998 56.0965 15.3424 56.5278 14.7162C56.9591 14.0901 57.1603 13.3338 57.097 12.5761C57.0337 11.8184 56.71 11.106 56.1808 10.56C55.8779 10.2475 55.5159 9.99824 55.116 9.82659C54.716 9.65493 54.286 9.56433 53.8508 9.56005ZM53.8508 15C53.3534 15.0002 52.8713 14.8278 52.4867 14.5124C52.1021 14.1969 51.8388 13.7578 51.7416 13.27C51.6445 12.7822 51.7195 12.2757 51.9538 11.837C52.1882 11.3983 52.5675 11.0544 53.027 10.8639C53.4865 10.6735 53.9979 10.6482 54.4739 10.7925C54.9499 10.9368 55.3612 11.2417 55.6377 11.6552C55.9141 12.0687 56.0386 12.5653 55.9899 13.0604C55.9413 13.5554 55.7224 14.0182 55.3708 14.37C55.1715 14.5701 54.9346 14.7288 54.6738 14.837C54.4129 14.9451 54.1332 15.0005 53.8508 15ZM58.0508 9.43004C58.0528 9.60828 57.993 9.78174 57.8815 9.92079C57.77 10.0598 57.6136 10.1559 57.4392 10.1926C57.2648 10.2292 57.083 10.2042 56.9249 10.1218C56.7668 10.0394 56.6423 9.90474 56.5724 9.74074C56.5026 9.57674 56.4918 9.39359 56.5419 9.22252C56.592 9.05146 56.6999 8.9031 56.8472 8.80272C56.9945 8.70234 57.1721 8.65618 57.3497 8.67211C57.5272 8.68803 57.6937 8.76506 57.8208 8.89006C57.9542 9.02018 58.0359 9.19427 58.0508 9.38005V9.43004ZM60.2308 10.21C60.2551 9.71377 60.1753 9.21791 59.9964 8.75435C59.8176 8.29079 59.5437 7.86981 59.1923 7.51848C58.841 7.16715 58.42 6.89325 57.9565 6.7144C57.4929 6.53556 56.997 6.45574 56.5008 6.48006C55.4408 6.42006 52.2608 6.42006 51.2008 6.48006C50.7041 6.45417 50.2076 6.53291 49.7433 6.7112C49.279 6.88949 48.8574 7.16334 48.5058 7.515C48.1541 7.86667 47.8802 8.28831 47.7019 8.75258C47.5236 9.21685 47.4449 9.71339 47.4708 10.21C47.4108 11.27 47.4108 14.4501 47.4708 15.5101C47.4465 16.0063 47.5263 16.5022 47.7051 16.9657C47.884 17.4293 48.1579 17.8503 48.5092 18.2016C48.8605 18.553 49.2815 18.8268 49.7451 19.0057C50.2087 19.1845 50.7045 19.2644 51.2008 19.24C52.2608 19.3 55.4408 19.3 56.5008 19.24C56.997 19.2644 57.4929 19.1845 57.9565 19.0057C58.42 18.8268 58.841 18.553 59.1923 18.2016C59.5437 17.8503 59.8176 17.4293 59.9964 16.9657C60.1753 16.5022 60.2551 16.0063 60.2308 15.5101C60.2908 14.4401 60.2908 11.2601 60.2308 10.2001V10.21ZM58.8608 16.65C58.7517 16.926 58.5871 17.1767 58.3772 17.3865C58.1674 17.5964 57.9168 17.7609 57.6408 17.87C55.1291 18.2133 52.5824 18.2133 50.0708 17.87C49.7948 17.7609 49.5441 17.5964 49.3343 17.3865C49.1245 17.1767 48.9599 16.926 48.8508 16.65C48.5075 14.1384 48.5075 11.5917 48.8508 9.08006C48.9599 8.8041 49.1245 8.55343 49.3343 8.34358C49.5441 8.13374 49.7948 7.96919 50.0708 7.86006C52.5824 7.51677 55.1291 7.51677 57.6408 7.86006C57.9168 7.96919 58.1674 8.13374 58.3772 8.34358C58.5871 8.55343 58.7517 8.8041 58.8608 9.08006C59.2041 11.5917 59.2041 14.1384 58.8608 16.65Z" fill="#757575"/>
<path d="M53.85 25.7C51.3085 25.7 48.8241 24.9464 46.7109 23.5344C44.5978 22.1224 42.9507 20.1155 41.9781 17.7675C41.0056 15.4195 40.7511 12.8358 41.2469 10.3431C41.7427 7.85045 42.9666 5.56078 44.7637 3.76367C46.5608 1.96657 48.8504 0.742737 51.3431 0.246917C53.8357 -0.248903 56.4195 0.00556237 58.7675 0.978148C61.1155 1.95073 63.1224 3.59776 64.5344 5.71094C65.9464 7.82411 66.7 10.3085 66.7 12.85C66.6974 16.2572 65.3427 19.5241 62.9334 21.9334C60.5241 24.3427 57.2572 25.6974 53.85 25.7ZM53.85 0.999999C51.5063 0.999999 49.2152 1.69501 47.2665 2.9971C45.3178 4.29919 43.7989 6.14991 42.902 8.31522C42.0051 10.4805 41.7705 12.8632 42.2277 15.1618C42.6849 17.4605 43.8135 19.572 45.4708 21.2292C47.128 22.8865 49.2395 24.0151 51.5382 24.4723C53.8369 24.9296 56.2195 24.6949 58.3848 23.798C60.5501 22.9011 62.4008 21.3822 63.7029 19.4335C65.005 17.4848 65.7 15.1937 65.7 12.85C65.6974 9.708 64.448 6.69546 62.2263 4.47372C60.0046 2.25199 56.992 1.00265 53.85 0.999999Z" fill="#757575"/>
<path d="M139.08 13.66L139.44 11.33H137.21V9.81997C137.193 9.64598 137.216 9.47049 137.277 9.3066C137.337 9.14271 137.434 8.99465 137.56 8.87349C137.686 8.75234 137.838 8.66118 138.004 8.60689C138.17 8.5526 138.347 8.53656 138.52 8.55996H139.52V6.55996C138.924 6.46281 138.323 6.40933 137.72 6.39995C137.308 6.37447 136.895 6.43904 136.511 6.58919C136.127 6.73934 135.78 6.97148 135.494 7.2694C135.208 7.56732 134.991 7.92389 134.858 8.31429C134.724 8.70469 134.677 9.11953 134.72 9.52996V11.38H132.72V13.71H134.72V19.33H137.23V13.71L139.08 13.66Z" fill="#757575"/>
<path d="M135.85 25.7C133.309 25.7 130.824 24.9464 128.711 23.5344C126.598 22.1224 124.951 20.1155 123.978 17.7675C123.006 15.4195 122.751 12.8358 123.247 10.3431C123.743 7.85045 124.967 5.56078 126.764 3.76367C128.561 1.96657 130.85 0.742737 133.343 0.246917C135.836 -0.248903 138.419 0.00556237 140.767 0.978148C143.116 1.95073 145.122 3.59776 146.534 5.71094C147.946 7.82411 148.7 10.3085 148.7 12.85C148.697 16.2572 147.343 19.5241 144.933 21.9334C142.524 24.3427 139.257 25.6974 135.85 25.7ZM135.85 0.999999C133.506 0.999999 131.215 1.69501 129.267 2.9971C127.318 4.29919 125.799 6.14991 124.902 8.31522C124.005 10.4805 123.77 12.8632 124.228 15.1618C124.685 17.4605 125.814 19.572 127.471 21.2292C129.128 22.8865 131.24 24.0151 133.538 24.4723C135.837 24.9296 138.22 24.6949 140.385 23.798C142.55 22.9011 144.401 21.3822 145.703 19.4335C147.005 17.4848 147.7 15.1937 147.7 12.85C147.697 9.708 146.448 6.69546 144.226 4.47372C142.005 2.25199 138.992 1.00265 135.85 0.999999Z" fill="#757575"/>
<path d="M99.9599 10.6298C99.9599 10.7398 99.9599 10.8598 99.9599 10.9698C99.9583 12.3144 99.5953 13.6338 98.9089 14.7899C98.2224 15.946 97.2378 16.8964 96.0581 17.5414C94.8784 18.1865 93.547 18.5026 92.2032 18.4565C90.8594 18.4105 89.5527 18.0041 88.4199 17.2798C88.6331 17.2923 88.8468 17.2923 89.0599 17.2798C90.2448 17.2847 91.3968 16.8902 92.3299 16.1598C91.7865 16.1524 91.2587 15.9774 90.8184 15.6589C90.3781 15.3403 90.0469 14.8936 89.8699 14.3798C90.0363 14.3924 90.2035 14.3924 90.3699 14.3798C90.6028 14.3787 90.8346 14.3485 91.0599 14.2898C90.4643 14.1697 89.9287 13.8471 89.5441 13.3767C89.1594 12.9064 88.9495 12.3174 88.9499 11.7098C89.3151 11.912 89.7228 12.0251 90.1399 12.0398C89.5812 11.6674 89.1854 11.0961 89.0331 10.4421C88.8808 9.78821 88.9833 9.10083 89.3199 8.51984C89.9808 9.33505 90.8057 10.0021 91.7412 10.4776C92.6768 10.9531 93.7018 11.2264 94.7499 11.2798C94.7064 11.0827 94.683 10.8817 94.6799 10.6798C94.6823 10.1522 94.8427 9.63739 95.1405 9.20181C95.4383 8.76624 95.8598 8.42988 96.3506 8.23615C96.8413 8.04241 97.3789 8.0002 97.894 8.11493C98.409 8.22966 98.8778 8.49608 99.2399 8.87982C99.8295 8.76493 100.395 8.54835 100.91 8.23981C100.712 8.84811 100.3 9.36361 99.7499 9.68982C100.274 9.62988 100.787 9.49167 101.27 9.27982C100.909 9.80412 100.463 10.2639 99.9499 10.6398L99.9599 10.6298Z" fill="#757575"/>
<path d="M94.85 25.7C92.3085 25.7 89.8241 24.9464 87.7109 23.5344C85.5978 22.1224 83.9507 20.1155 82.9781 17.7675C82.0056 15.4195 81.7511 12.8358 82.2469 10.3431C82.7427 7.85045 83.9666 5.56078 85.7637 3.76367C87.5608 1.96657 89.8505 0.742737 92.3431 0.246917C94.8358 -0.248903 97.4195 0.00556237 99.7675 0.978148C102.116 1.95073 104.122 3.59776 105.534 5.71094C106.946 7.82411 107.7 10.3085 107.7 12.85C107.697 16.2572 106.343 19.5241 103.933 21.9334C101.524 24.3427 98.2572 25.6974 94.85 25.7ZM94.85 0.999999C92.5063 0.999999 90.2152 1.69501 88.2665 2.9971C86.3178 4.29919 84.7989 6.14991 83.902 8.31522C83.0051 10.4805 82.7705 12.8632 83.2277 15.1618C83.6849 17.4605 84.8135 19.572 86.4708 21.2292C88.128 22.8865 90.2395 24.0151 92.5382 24.4723C94.8369 24.9296 97.2195 24.6949 99.3848 23.798C101.55 22.9011 103.401 21.3822 104.703 19.4335C106.005 17.4848 106.7 15.1937 106.7 12.85C106.697 9.708 105.448 6.69546 103.226 4.47372C101.005 2.25199 97.992 1.00265 94.85 0.999999Z" fill="#757575"/>
<path d="M258.85 25.7C256.309 25.7 253.824 24.9464 251.711 23.5344C249.598 22.1224 247.951 20.1155 246.978 17.7675C246.006 15.4195 245.751 12.8358 246.247 10.3431C246.743 7.85045 247.967 5.56078 249.764 3.76367C251.561 1.96657 253.85 0.742737 256.343 0.246917C258.836 -0.248903 261.419 0.00556237 263.767 0.978148C266.116 1.95073 268.122 3.59776 269.534 5.71094C270.946 7.82411 271.7 10.3085 271.7 12.85C271.697 16.2572 270.343 19.5241 267.933 21.9334C265.524 24.3427 262.257 25.6974 258.85 25.7ZM258.85 0.999999C256.506 0.999999 254.215 1.69501 252.266 2.9971C250.318 4.29919 248.799 6.14991 247.902 8.31522C247.005 10.4805 246.77 12.8632 247.228 15.1618C247.685 17.4605 248.814 19.572 250.471 21.2292C252.128 22.8865 254.24 24.0151 256.538 24.4723C258.837 24.9296 261.219 24.6949 263.385 23.798C265.55 22.9011 267.401 21.3822 268.703 19.4335C270.005 17.4848 270.7 15.1937 270.7 12.85C270.697 9.708 269.448 6.69546 267.226 4.47372C265.005 2.25199 261.992 1.00265 258.85 0.999999Z" fill="#757575"/>
<path d="M252.53 9.23001C253.171 8.12154 254.092 7.20081 255.2 6.56C256.321 5.9151 257.592 5.57568 258.885 5.57568C260.178 5.57568 261.449 5.9151 262.57 6.56C263.679 7.20081 264.599 8.12154 265.24 9.23001C265.786 10.1716 266.117 11.2227 266.207 12.3075C266.298 13.3923 266.146 14.4836 265.763 15.5027C265.38 16.5217 264.776 17.443 263.994 18.2C263.212 18.957 262.271 19.5308 261.24 19.88C261.176 19.8988 261.108 19.9023 261.042 19.8901C260.976 19.878 260.914 19.8505 260.86 19.81C260.82 19.7734 260.789 19.7285 260.768 19.6783C260.747 19.6282 260.738 19.5742 260.74 19.52C260.74 19.52 260.74 19.33 260.74 19C260.74 18.67 260.74 18.39 260.74 18.15H260.96C261.136 18.1666 261.314 18.1666 261.49 18.15C261.712 18.145 261.932 18.1216 262.15 18.08C262.384 18.0361 262.603 17.9366 262.79 17.79C262.987 17.6408 263.134 17.4349 263.21 17.2L263.31 16.98C263.39 16.8052 263.491 16.6407 263.61 16.49C263.719 16.3376 263.863 16.214 264.03 16.13H264.1L264.22 16.02C264.256 15.9814 264.287 15.9376 264.31 15.89C264.31 15.89 264.31 15.81 264.31 15.78C264.218 15.7586 264.122 15.7586 264.03 15.78H263.84C263.67 15.8264 263.511 15.9045 263.37 16.01C263.181 16.1404 263.024 16.3112 262.91 16.51C262.784 16.7496 262.602 16.9553 262.38 17.11C262.196 17.2415 261.976 17.3147 261.75 17.32C261.57 17.3379 261.39 17.3379 261.21 17.32C261.062 17.2906 260.917 17.2436 260.78 17.18C260.752 16.8002 260.584 16.4443 260.31 16.18C260.647 16.1493 260.982 16.0924 261.31 16.01C261.624 15.9247 261.927 15.8004 262.21 15.64C262.506 15.4792 262.768 15.2618 262.98 15C263.206 14.7 263.376 14.361 263.48 14C263.619 13.5362 263.686 13.0541 263.68 12.57C263.691 12.203 263.63 11.8375 263.499 11.4943C263.369 11.1511 263.172 10.837 262.92 10.57C263.043 10.2489 263.1 9.90643 263.088 9.5629C263.076 9.21936 262.995 8.88175 262.85 8.57001C262.57 8.52544 262.283 8.57096 262.03 8.70001C261.754 8.80266 261.487 8.92635 261.23 9.07001L260.82 9.33002C259.619 8.99872 258.351 8.99872 257.15 9.33002L256.79 9.10001C256.511 8.93244 256.216 8.79179 255.91 8.67999C255.672 8.56237 255.402 8.52385 255.14 8.57001C254.993 8.88074 254.909 9.21812 254.896 9.56183C254.882 9.90554 254.938 10.2485 255.06 10.57C254.808 10.837 254.611 11.1511 254.481 11.4943C254.35 11.8375 254.289 12.203 254.3 12.57C254.294 13.0573 254.361 13.5428 254.5 14.01C254.606 14.3725 254.779 14.7117 255.01 15.01C255.224 15.27 255.485 15.4871 255.78 15.65C256.063 15.8103 256.366 15.9346 256.68 16.02C257.008 16.1025 257.343 16.1594 257.68 16.19C257.502 16.3659 257.364 16.5789 257.278 16.8141C257.191 17.0492 257.158 17.3005 257.18 17.55V19.55C257.182 19.6041 257.172 19.658 257.151 19.708C257.131 19.758 257.1 19.803 257.06 19.84C257.007 19.882 256.945 19.9104 256.879 19.9226C256.813 19.9348 256.744 19.9305 256.68 19.91C255.65 19.5593 254.711 18.9847 253.93 18.2274C253.148 17.4702 252.545 16.5491 252.162 15.5306C251.78 14.5121 251.628 13.4215 251.717 12.3372C251.807 11.2529 252.136 10.202 252.68 9.26001L252.53 9.23001Z" fill="#757575"/>
<path d="M176.85 25.7C174.309 25.7 171.824 24.9464 169.711 23.5344C167.598 22.1224 165.951 20.1155 164.978 17.7675C164.006 15.4195 163.751 12.8358 164.247 10.3431C164.743 7.85045 165.967 5.56078 167.764 3.76367C169.561 1.96657 171.85 0.742737 174.343 0.246917C176.836 -0.248903 179.419 0.00556237 181.767 0.978148C184.116 1.95073 186.122 3.59776 187.534 5.71094C188.946 7.82411 189.7 10.3085 189.7 12.85C189.697 16.2572 188.343 19.5241 185.933 21.9334C183.524 24.3427 180.257 25.6974 176.85 25.7ZM176.85 0.999999C174.506 0.999999 172.215 1.69501 170.267 2.9971C168.318 4.29919 166.799 6.14991 165.902 8.31522C165.005 10.4805 164.77 12.8632 165.228 15.1618C165.685 17.4605 166.814 19.572 168.471 21.2292C170.128 22.8865 172.24 24.0151 174.538 24.4723C176.837 24.9296 179.219 24.6949 181.385 23.798C183.55 22.9011 185.401 21.3822 186.703 19.4335C188.005 17.4848 188.7 15.1937 188.7 12.85C188.697 9.708 187.448 6.69546 185.226 4.47372C183.005 2.25199 179.992 1.00265 176.85 0.999999Z" fill="#757575"/>
<path d="M173.321 19.2702H170.661V10.7001H173.321V19.2702ZM171.991 9.53013C171.632 9.53292 171.283 9.41118 171.004 9.18568C170.725 8.96017 170.533 8.64487 170.461 8.29353C170.388 7.94218 170.44 7.57656 170.607 7.25901C170.774 6.94146 171.046 6.69162 171.376 6.55213C171.707 6.41265 172.075 6.39213 172.419 6.49409C172.763 6.59604 173.061 6.81417 173.262 7.11125C173.463 7.40832 173.555 7.76596 173.522 8.12318C173.489 8.4804 173.333 8.81507 173.081 9.07014C172.937 9.21563 172.766 9.33118 172.577 9.41013C172.388 9.48909 172.185 9.52987 171.981 9.53013H171.991ZM183.281 19.2702H180.621V15.1001C180.621 14.1001 180.621 12.8301 179.241 12.8301C177.861 12.8301 177.641 13.9101 177.641 15.0301V19.2702H174.981V10.7001H177.531V11.8701C177.787 11.4339 178.157 11.0753 178.6 10.8323C179.044 10.5893 179.545 10.4711 180.051 10.4902C182.741 10.4902 183.241 12.2601 183.241 14.5701L183.281 19.2702Z" fill="#757575"/>
<path d="M217.85 25.7C215.309 25.7 212.824 24.9464 210.711 23.5344C208.598 22.1224 206.951 20.1155 205.978 17.7675C205.006 15.4194 204.751 12.8358 205.247 10.3431C205.743 7.85044 206.967 5.5608 208.764 3.76369C210.561 1.96659 212.85 0.742729 215.343 0.246909C217.836 -0.248911 220.419 0.00558501 222.767 0.978171C225.116 1.95076 227.122 3.59776 228.534 5.71093C229.946 7.8241 230.7 10.3085 230.7 12.85C230.697 16.2572 229.343 19.5241 226.933 21.9334C224.524 24.3427 221.257 25.6974 217.85 25.7ZM217.85 1.00002C215.506 1.00002 213.215 1.695 211.267 2.99709C209.318 4.29919 207.799 6.1499 206.902 8.31521C206.005 10.4805 205.77 12.8632 206.228 15.1618C206.685 17.4605 207.814 19.572 209.471 21.2292C211.128 22.8865 213.24 24.0151 215.538 24.4723C217.837 24.9295 220.219 24.6949 222.385 23.798C224.55 22.9011 226.401 21.3822 227.703 19.4335C229.005 17.4848 229.7 15.1937 229.7 12.85C229.697 9.70799 228.448 6.69545 226.226 4.47372C224.005 2.25198 220.992 1.00267 217.85 1.00002Z" fill="#757575"/>
 <a class="pointer-event" href="https://github.com/treejer" target="_blank">
   <path d="M212.95 9.82999C212.958 9.75235 212.948 9.67394 212.92 9.60101C212.892 9.52808 212.848 9.46267 212.79 9.41L211.59 7.95999V7.75H215.31L218.19 14.06L220.72 7.75H224.27V7.97L223.27 8.97C223.227 9.00373 223.194 9.04856 223.175 9.09967C223.155 9.15078 223.15 9.20621 223.16 9.25998V16.49C223.15 16.5438 223.155 16.5992 223.175 16.6503C223.194 16.7014 223.227 16.7463 223.27 16.78L224.27 17.78V18H219.27V17.78L220.27 16.78C220.37 16.68 220.37 16.65 220.37 16.49V10.65L217.46 17.93H217.07L213.71 10.6V15.52C213.697 15.6216 213.707 15.725 213.74 15.8221C213.773 15.9192 213.828 16.0074 213.9 16.08L215.25 17.72V17.94H211.46V17.73L212.81 16.09C212.88 16.0164 212.932 15.9275 212.962 15.8302C212.991 15.7329 212.997 15.6301 212.98 15.53L212.95 9.82999Z" fill="#757575" onclick="window.open('https://github.com/treejer','_blank')" />
 </a>
</svg>
