<svg width="26" height="26" viewBox="0 0 26 26" fill="none" xmlns="http://www.w3.org/2000/svg">
<path d="M19.2403 8.43982L17.3003 17.5798C17.1503 18.2298 16.7703 18.3898 16.2303 18.0798L13.2303 15.8998L11.8003 17.2698C11.7309 17.3603 11.6416 17.4336 11.5393 17.4839C11.4369 17.5342 11.3243 17.5602 11.2103 17.5598L11.4203 14.5598L16.9003 9.6098C17.1403 9.3998 16.8503 9.27981 16.5303 9.48981L9.7603 13.7498L6.8503 12.8398C6.2203 12.6398 6.2003 12.2098 6.9803 11.8998L18.3803 7.50983C18.9503 7.31983 19.4103 7.63982 19.2403 8.43982Z" fill="#757575"/>
<path d="M12.85 25.7C10.3085 25.7 7.82411 24.9464 5.71094 23.5344C3.59776 22.1224 1.95073 20.1155 0.978148 17.7675C0.00556237 15.4195 -0.248903 12.8357 0.246917 10.3431C0.742737 7.85042 1.96657 5.56078 3.76367 3.76367C5.56078 1.96657 7.85042 0.742737 10.3431 0.246917C12.8357 -0.248903 15.4195 0.00556237 17.7675 0.978148C20.1155 1.95073 22.1224 3.59773 23.5344 5.71091C24.9464 7.82408 25.7 10.3085 25.7 12.85C25.6974 16.2572 24.3427 19.5241 21.9334 21.9334C19.5241 24.3426 16.2572 25.6974 12.85 25.7ZM12.85 0.999999C10.5063 0.999999 8.2152 1.69497 6.26648 2.99707C4.31776 4.29916 2.79894 6.14988 1.90204 8.31518C1.00514 10.4805 0.770456 12.8631 1.22769 15.1618C1.68493 17.4605 2.81354 19.572 4.47079 21.2292C6.12805 22.8865 8.2395 24.0151 10.5382 24.4723C12.8369 24.9295 15.2195 24.6949 17.3848 23.798C19.5501 22.9011 21.4008 21.3822 22.7029 19.4335C24.005 17.4848 24.7 15.1937 24.7 12.85C24.6974 9.708 23.448 6.69543 21.2263 4.47369C19.0046 2.25196 15.992 1.00265 12.85 0.999999Z" fill="#757575"/>
</svg>
