<svg width="26" height="26" viewBox="0 0 26 26" fill="none" xmlns="http://www.w3.org/2000/svg">
<path d="M17.9599 10.6298C17.9599 10.7398 17.9599 10.8598 17.9599 10.9698C17.9583 12.3144 17.5953 13.6338 16.9089 14.7899C16.2224 15.946 15.2378 16.8964 14.0581 17.5414C12.8784 18.1865 11.547 18.5026 10.2032 18.4565C8.85942 18.4105 7.55274 18.0041 6.41992 17.2798C6.63307 17.2923 6.84676 17.2923 7.05991 17.2798C8.24482 17.2847 9.39683 16.8902 10.3299 16.1598C9.78654 16.1524 9.25866 15.9774 8.81839 15.6589C8.37812 15.3403 8.04688 14.8936 7.8699 14.3798C8.03633 14.3924 8.20347 14.3924 8.3699 14.3798C8.60276 14.3787 8.83456 14.3485 9.05991 14.2898C8.46432 14.1697 7.92871 13.8471 7.54407 13.3767C7.15942 12.9064 6.94948 12.3174 6.94992 11.7098C7.31506 11.912 7.7228 12.0251 8.13992 12.0398C7.58125 11.6674 7.18545 11.0961 7.03311 10.4421C6.88078 9.78821 6.98334 9.10083 7.31992 8.51984C7.98076 9.33505 8.80573 10.0021 9.74124 10.4776C10.6768 10.9531 11.7018 11.2264 12.7499 11.2798C12.7064 11.0827 12.683 10.8817 12.6799 10.6798C12.6823 10.1522 12.8427 9.63739 13.1405 9.20181C13.4383 8.76624 13.8598 8.42988 14.3506 8.23615C14.8413 8.04241 15.3789 8.0002 15.894 8.11493C16.409 8.22966 16.8778 8.49608 17.2399 8.87982C17.8295 8.76493 18.3946 8.54835 18.9099 8.23981C18.7124 8.84811 18.3 9.36361 17.7499 9.68982C18.2742 9.62988 18.7866 9.49167 19.2699 9.27982C18.9095 9.80412 18.4632 10.2639 17.9499 10.6398L17.9599 10.6298Z" fill="#757575"/>
<path d="M12.85 25.7C10.3085 25.7 7.82411 24.9464 5.71094 23.5344C3.59776 22.1224 1.95073 20.1155 0.978148 17.7675C0.00556237 15.4195 -0.248903 12.8358 0.246917 10.3431C0.742737 7.85045 1.96657 5.56078 3.76367 3.76367C5.56078 1.96657 7.85045 0.742737 10.3431 0.246917C12.8358 -0.248903 15.4195 0.00556237 17.7675 0.978148C20.1155 1.95073 22.1224 3.59776 23.5344 5.71094C24.9464 7.82411 25.7 10.3085 25.7 12.85C25.6974 16.2572 24.3427 19.5241 21.9334 21.9334C19.5241 24.3427 16.2572 25.6974 12.85 25.7ZM12.85 0.999999C10.5063 0.999999 8.21523 1.69501 6.26651 2.9971C4.31779 4.29919 2.79894 6.14991 1.90204 8.31522C1.00514 10.4805 0.770456 12.8632 1.22769 15.1618C1.68493 17.4605 2.81354 19.572 4.47079 21.2292C6.12805 22.8865 8.2395 24.0151 10.5382 24.4723C12.8369 24.9296 15.2195 24.6949 17.3848 23.798C19.5501 22.9011 21.4008 21.3822 22.7029 19.4335C24.005 17.4848 24.7 15.1937 24.7 12.85C24.6974 9.708 23.448 6.69546 21.2263 4.47372C19.0046 2.25199 15.992 1.00265 12.85 0.999999Z" fill="#757575"/>
</svg>
