<svg width="272" height="196" viewBox="0 0 272 196" fill="none" xmlns="http://www.w3.org/2000/svg">
<path d="M217.808 104.467L228.733 98.7032L222.425 88.7199L211.5 94.4838L217.808 104.467Z" fill="#FF6584"/>
<path d="M222.559 106.548L215.972 96.1245L227.379 90.1057L233.966 100.529L222.559 106.548ZM216.734 96.311L222.762 105.853L233.204 100.346L227.177 90.8033L216.734 96.311Z" fill="#2F2E41"/>
<path d="M212.344 134.558C215.267 134.558 217.637 132.392 217.637 129.721C217.637 127.05 215.267 124.884 212.344 124.884C209.42 124.884 207.051 127.05 207.051 129.721C207.051 132.392 209.42 134.558 212.344 134.558Z" fill="#D0CDE1"/>
<path d="M216.246 134.815C215.144 134.815 214.066 134.516 213.15 133.957C212.233 133.397 211.519 132.602 211.097 131.671C210.675 130.741 210.565 129.717 210.78 128.729C210.995 127.741 211.526 126.834 212.305 126.121C213.084 125.409 214.078 124.924 215.159 124.728C216.24 124.531 217.36 124.632 218.378 125.018C219.397 125.403 220.267 126.056 220.88 126.893C221.492 127.731 221.819 128.715 221.819 129.722C221.819 131.073 221.232 132.368 220.186 133.323C219.141 134.278 217.724 134.815 216.246 134.815ZM216.246 125.14C215.254 125.14 214.284 125.408 213.46 125.912C212.635 126.416 211.992 127.131 211.613 127.969C211.233 128.806 211.134 129.727 211.327 130.616C211.521 131.505 211.998 132.322 212.7 132.963C213.401 133.604 214.295 134.04 215.267 134.217C216.24 134.394 217.249 134.303 218.165 133.956C219.081 133.609 219.865 133.022 220.416 132.268C220.967 131.515 221.261 130.629 221.261 129.722C221.261 128.507 220.732 127.341 219.792 126.482C218.851 125.623 217.576 125.14 216.246 125.14Z" fill="#2F2E41"/>
<path d="M73.279 127.498C89.5908 127.498 102.814 115.415 102.814 100.509C102.814 85.604 89.5908 73.5208 73.279 73.5208C56.9672 73.5208 43.7439 85.604 43.7439 100.509C43.7439 115.415 56.9672 127.498 73.279 127.498Z" fill="#D0CDE1"/>
<path d="M65.2999 139.92L72.5635 144.034V116.226L64.4205 111.615C63.7473 111.234 63.2553 110.636 63.042 109.939C63.8198 109.803 64.6251 109.939 65.2983 110.32L72.5619 114.434V103.65C72.5617 101.564 72.8414 99.4858 73.3949 97.4619C73.9484 99.4858 74.2282 101.564 74.2279 103.65V121.25L84.9456 115.178C85.8016 114.694 86.7919 114.444 87.7986 114.459C87.3649 115.29 86.6794 115.989 85.8235 116.473L74.2326 123.04V177.771H72.565V145.826L64.422 141.215C63.7488 140.834 63.2568 140.235 63.0435 139.539C63.8213 139.403 64.6267 139.539 65.2999 139.92Z" fill="#3F3D56"/>
<path d="M29.5351 129.79C45.8469 129.79 59.0703 117.707 59.0703 102.801C59.0703 87.896 45.8469 75.8127 29.5351 75.8127C13.2233 75.8127 0 87.896 0 102.801C0 117.707 13.2233 129.79 29.5351 129.79Z" fill="#D0CDE1"/>
<path d="M37.5143 142.212L30.2507 146.326V118.518L38.3937 113.907C39.0669 113.526 39.5589 112.928 39.7722 112.231C38.9944 112.095 38.1891 112.231 37.5159 112.612L30.2522 116.726V105.942C30.2525 103.856 29.9727 101.778 29.4192 99.7539C28.8657 101.778 28.586 103.856 28.5862 105.942V123.542L17.8685 117.47C17.0126 116.986 16.0223 116.736 15.0156 116.751C15.4493 117.582 16.1348 118.281 16.9907 118.765L28.5816 125.332V180.063H30.2492V148.118L38.3921 143.507C39.0654 143.126 39.5574 142.527 39.7707 141.831C38.9928 141.695 38.1875 141.831 37.5143 142.212Z" fill="#3F3D56"/>
<path d="M107.55 184.13C153.56 184.13 190.859 182.466 190.859 180.413C190.859 178.36 153.56 176.696 107.55 176.696C61.5392 176.696 24.2405 178.36 24.2405 180.413C24.2405 182.466 61.5392 184.13 107.55 184.13Z" fill="#3F3D56"/>
<path d="M182.501 189.971C228.511 189.971 265.81 188.307 265.81 186.254C265.81 184.201 228.511 182.537 182.501 182.537C136.491 182.537 99.1919 184.201 99.1919 186.254C99.1919 188.307 136.491 189.971 182.501 189.971Z" fill="#3F3D56"/>
<path d="M112.844 195.281C158.855 195.281 196.153 193.617 196.153 191.564C196.153 189.511 158.855 187.847 112.844 187.847C66.8339 187.847 29.5352 189.511 29.5352 191.564C29.5352 193.617 66.8339 195.281 112.844 195.281Z" fill="#3F3D56"/>
<path d="M130.399 174.914L128.727 182.297H135.692L134.856 174.914H130.399Z" fill="#FFB8B8"/>
<path d="M105.879 172.368L104.207 179.751H111.172L110.336 172.368H105.879Z" fill="#FFB8B8"/>
<path d="M116.05 107.57C116.05 107.57 118.278 116.481 120.508 119.282C122.738 122.082 128.032 130.229 128.032 130.229C128.032 130.229 129.146 140.414 133.325 138.122C137.504 135.83 131.096 128.447 131.096 128.447L123.017 112.153L121.344 106.552L116.05 107.57Z" fill="#FFB8B8"/>
<path d="M127.5 82.9302C131.341 82.9302 134.454 80.4011 134.454 77.2814C134.454 74.1616 131.341 71.6326 127.5 71.6326C123.659 71.6326 120.545 74.1616 120.545 77.2814C120.545 80.4011 123.659 82.9302 127.5 82.9302Z" fill="#FFB8B8"/>
<path d="M129.418 82.364L125.795 89.747L118.272 87.9648C118.272 87.9648 124.123 82.1083 123.287 79.5621L129.418 82.364Z" fill="#FFB8B8"/>
<path d="M117.442 86.6937C117.442 86.6937 126.358 86.9479 128.588 89.7483C130.818 92.5487 131.931 93.8225 131.931 93.8225C132.908 94.1418 133.753 94.7289 134.351 95.5035C134.95 96.2782 135.272 97.2028 135.273 98.1509C135.552 101.715 136.109 107.572 136.109 107.572C136.109 107.572 142.797 114.192 143.911 126.919C145.025 139.646 154.499 177.076 143.911 177.335C133.323 177.593 125.8 181.148 127.194 176.571C128.588 171.994 130.816 145.502 130.816 145.502C130.816 145.502 129.144 178.092 122.457 177.842C115.77 177.592 107.132 173.513 105.182 173.005C103.232 172.496 119.392 141.179 119.392 141.179L121.343 113.937C121.343 113.937 107.132 91.0221 117.442 86.6937Z" fill="#2F2E41"/>
<path d="M114.656 94.3311L116.046 110.881H122.176L114.656 94.3311Z" fill="#2F2E41"/>
<path d="M126.358 107.062C126.358 107.062 128.586 115.973 130.816 118.773C133.046 121.574 138.34 129.721 138.34 129.721C138.34 129.721 139.454 139.906 143.633 137.614C147.812 135.322 141.404 127.939 141.404 127.939L133.325 111.645L131.652 106.044L126.358 107.062Z" fill="#FFB8B8"/>
<path d="M131.093 180.896C131.093 180.896 129.143 178.86 128.585 179.878C128.027 180.896 125.52 185.989 129.143 185.989C132.765 185.989 148.646 185.225 146.696 182.176C146.313 181.356 145.633 180.681 144.771 180.264C143.909 179.847 142.917 179.712 141.959 179.884H138.337C138.337 179.884 135.729 177.225 135.223 178.172C134.716 179.12 133.88 180.648 133.88 180.648C133.525 180.988 133.049 181.201 132.537 181.247C132.025 181.292 131.513 181.168 131.093 180.896Z" fill="#2F2E41"/>
<path d="M105.579 176.417C105.579 176.417 105.094 173.748 104.033 174.345C102.973 174.942 97.9088 178.068 100.989 179.809C104.069 181.55 118.015 188.536 118.116 185C118.262 184.119 118.072 183.219 117.579 182.45C117.086 181.681 116.319 181.089 115.406 180.775L112.326 179.034C112.326 179.034 111.64 175.519 110.663 176.081C109.687 176.643 108.096 177.539 108.096 177.539C107.599 177.66 107.071 177.613 106.609 177.407C106.146 177.201 105.781 176.849 105.579 176.417Z" fill="#2F2E41"/>
<path d="M123.015 88.2204C123.015 88.2204 121.064 91.7848 123.015 98.1496C124.965 104.514 126.359 109.861 126.359 109.861C126.359 109.861 130.818 107.319 132.768 108.079C134.719 108.839 129.677 91.1112 129.677 91.1112C129.677 91.1112 126.637 85.1644 123.015 88.2204Z" fill="#2F2E41"/>
<path d="M136.68 75.5106C136.68 75.5106 139.378 66.9046 128.828 68.3818C128.828 68.3818 121.836 66.1745 118.107 74.0673L114.282 82.3527L115.543 81.929L115.904 83.0885L117.717 83.7875L118.768 82.436L118.862 84.2719L134.076 87.8306C134.076 87.8306 127.78 83.128 128.787 76.4116L129.894 77.8676L136.68 75.5106Z" fill="#2F2E41"/>
<path d="M247.971 138.399H192.245V186.01H247.971V138.399Z" fill="#67B68C"/>
<path d="M225.959 137.105H214.257V187.538H225.959V137.105Z" fill="#3F3D56"/>
<path d="M50.9892 92.9343C79.0738 92.9343 101.841 72.1303 101.841 46.4672C101.841 20.8041 79.0738 0 50.9892 0C22.9047 0 0.137695 20.8041 0.137695 46.4672C0.137695 72.1303 22.9047 92.9343 50.9892 92.9343Z" fill="#D0CDE1"/>
<path d="M64.7281 114.321L52.2192 121.403V73.5292L66.2396 65.5898C67.3989 64.9337 68.2462 63.9034 68.6134 62.7033C67.274 62.4693 65.8873 62.7037 64.7281 63.36L52.2192 70.4436V51.8745C52.2191 48.283 51.7369 44.7051 50.7835 41.2208C49.8301 44.7051 49.348 48.283 49.3478 51.8745V82.1747L30.8951 71.7244C29.4217 70.89 27.7169 70.4601 25.9836 70.4859C26.7297 71.916 27.9099 73.1199 29.3836 73.9543L49.3493 85.2604V179.494H52.2192V124.49L66.2396 116.551C67.3989 115.894 68.2462 114.864 68.6134 113.664C67.274 113.43 65.8873 113.664 64.7281 114.321Z" fill="#3F3D56"/>
<path d="M47.8626 186.507C47.5342 186.513 47.2169 186.617 46.9585 186.802C46.1857 184.913 44.9942 183.695 43.6543 183.695C42.3144 183.695 41.1213 184.91 40.3501 186.802C40.0917 186.617 39.7744 186.513 39.446 186.507C37.9238 186.507 36.689 188.896 36.689 191.845H50.6197C50.6197 188.898 49.3864 186.507 47.8626 186.507Z" fill="#3F3D56"/>
<path d="M77.3977 173.012C77.0693 173.018 76.7521 173.122 76.4936 173.307C75.7209 171.418 74.5294 170.2 73.1895 170.2C71.8495 170.2 70.6565 171.415 69.8853 173.307C69.6267 173.122 69.3095 173.019 68.9812 173.012C67.4589 173.012 66.2241 175.401 66.2241 178.35H80.1548C80.1564 175.403 78.9215 173.012 77.3977 173.012Z" fill="#3F3D56"/>
<path d="M42.5694 176.576C42.241 176.583 41.9237 176.686 41.6653 176.872C40.8925 174.982 39.701 173.765 38.3611 173.765C37.0212 173.765 35.8281 174.979 35.0569 176.872C34.7984 176.686 34.4812 176.583 34.1528 176.576C32.6306 176.576 31.3958 178.966 31.3958 181.914H45.3264C45.328 178.967 44.0932 176.576 42.5694 176.576Z" fill="#3F3D56"/>
<path d="M259.364 133.962C259.064 138.452 252.425 141.737 252.425 141.737C252.425 141.737 246.271 137.741 246.564 133.25C246.858 128.759 253.503 125.474 253.503 125.474C253.503 125.474 259.662 129.471 259.364 133.962Z" fill="#3F3D56"/>
<path d="M259.664 147.975C254.748 147.715 251.133 141.658 251.133 141.658C251.133 141.658 255.488 136.022 260.406 136.282C265.323 136.542 268.936 142.599 268.936 142.599C268.936 142.599 264.578 148.229 259.664 147.975Z" fill="#3F3D56"/>
<path opacity="0.1" d="M247.971 143.597V160.217L229.88 138.399H243.661L247.971 143.597Z" fill="black"/>
<path d="M272 166.434L231.617 117.73L222.511 124.034L262.895 172.738L272 166.434Z" fill="#67B68C"/>
<path d="M255.476 145.453L248.241 136.727L238.692 143.338L245.927 152.064L255.476 145.453Z" fill="#3F3D56"/>
<path d="M195.851 114.604L208.038 117.59L211.305 106.454L199.119 103.468L195.851 114.604Z" fill="#D0CDE1"/>
<path d="M202.87 119.255L190.146 116.14L193.556 104.513L206.279 107.628L202.87 119.255ZM190.83 115.78L202.476 118.631L205.596 107.988L193.95 105.137L190.83 115.78Z" fill="#2F2E41"/>
</svg>
