<svg width="16" height="18" viewBox="0 0 16 18" fill="none" xmlns="http://www.w3.org/2000/svg">
<path d="M15.782 14.8352L12.667 11.7202C12.5973 11.6505 12.5145 11.5953 12.4233 11.5578C12.3322 11.5202 12.2346 11.501 12.136 11.5012H11.627C12.6462 10.1974 13.1297 8.55397 12.979 6.90599C12.8282 5.25801 12.0546 3.72957 10.8158 2.63231C9.57702 1.53505 7.96636 0.95161 6.31223 1.00094C4.65811 1.05027 3.08508 1.72865 1.91387 2.89778C0.742671 4.0669 0.0614929 5.63872 0.00922722 7.29276C-0.0430385 8.9468 0.537544 10.5585 1.6326 11.7992C2.72765 13.04 4.25471 13.8163 5.90243 13.97C7.55014 14.1236 9.19442 13.643 10.5 12.6262V13.1352C10.4998 13.2337 10.519 13.3314 10.5566 13.4225C10.5942 13.5136 10.6494 13.5964 10.719 13.6662L13.835 16.7822C13.9044 16.8519 13.9869 16.9073 14.0778 16.9451C14.1687 16.9828 14.2661 17.0023 14.3645 17.0023C14.4629 17.0023 14.5604 16.9828 14.6512 16.9451C14.7421 16.9073 14.8246 16.8519 14.894 16.7822L15.778 15.8982C15.9189 15.7574 15.9985 15.5667 15.9992 15.3675C16 15.1683 15.9219 14.977 15.782 14.8352ZM6.50001 11.5002C5.70889 11.5002 4.93553 11.2656 4.27773 10.8261C3.61994 10.3865 3.10725 9.76182 2.8045 9.03092C2.50174 8.30001 2.42253 7.49574 2.57687 6.71982C2.73121 5.9439 3.11218 5.23116 3.67159 4.67175C4.231 4.11234 4.94373 3.73138 5.71965 3.57704C6.49558 3.4227 7.29984 3.50191 8.03075 3.80466C8.76165 4.10741 9.38637 4.6201 9.82589 5.2779C10.2654 5.9357 10.5 6.70906 10.5 7.50018C10.5 8.56105 10.0786 9.57846 9.32844 10.3286C8.57829 11.0788 7.56088 11.5002 6.50001 11.5002Z" fill="#9E9E9E"/>
</svg>
