<svg width="272" height="256" viewBox="0 0 272 256" fill="none" xmlns="http://www.w3.org/2000/svg">
<g clip-path="url(#clip0)">
<path d="M54.4503 206.358C54.5059 212.058 51.1363 214.082 46.956 214.122C46.8589 214.123 46.7623 214.123 46.6661 214.122C46.4723 214.12 46.2805 214.113 46.0907 214.101C42.3152 213.871 39.3633 211.807 39.3116 206.505C39.2581 201.019 46.2029 194.026 46.7238 193.509L46.7247 193.509C46.7445 193.489 46.7546 193.479 46.7546 193.479C46.7546 193.479 54.3947 200.657 54.4503 206.358Z" fill="#67B68C"/>
<path d="M173.951 206.037C174.007 211.738 170.637 213.761 166.457 213.802C166.359 213.803 166.263 213.803 166.167 213.802C165.973 213.799 165.781 213.792 165.591 213.781C161.816 213.551 158.864 211.487 158.812 206.185C158.759 200.698 165.703 193.706 166.224 193.189L166.225 193.188C166.245 193.168 166.255 193.159 166.255 193.159C166.255 193.159 173.895 200.337 173.951 206.037Z" fill="#67B68C"/>
<path d="M272 213.392H0V214.033H272V213.392Z" fill="#3F3D56"/>
<path d="M55.4252 106.365C84.7971 106.365 108.608 82.5545 108.608 53.1826C108.608 23.8106 84.7971 0 55.4252 0C26.0533 0 2.24265 23.8106 2.24265 53.1826C2.24265 82.5545 26.0533 106.365 55.4252 106.365Z" fill="#67B68C"/>
<path d="M120.141 165.955H120.141C132.887 165.955 145.11 171.018 154.122 180.031C163.135 189.043 168.198 201.266 168.198 214.012V214.012H92.9093V193.187C92.9093 185.965 95.7784 179.038 100.885 173.931C105.992 168.824 112.919 165.955 120.141 165.955Z" fill="#3F3D56"/>
<path d="M224.552 102.54C224.552 102.54 226.744 131.039 223.675 131.916C220.606 132.793 209.645 139.37 192.106 137.616C192.106 137.616 175.006 146.824 177.637 138.055C180.268 129.286 192.106 131.478 192.106 131.478C192.106 131.478 213.152 127.093 214.029 124.024C214.906 120.955 211.398 108.24 212.714 107.801C214.029 107.363 224.552 102.54 224.552 102.54Z" fill="#A0616A"/>
<path d="M198.289 152.229C198.289 152.229 199.998 193.403 202.629 199.541C204.821 204.654 206.099 221.328 206.465 226.755C206.539 227.843 206.575 228.479 206.575 228.479C206.575 228.479 213.591 228.479 214.029 226.726C214.468 224.972 215.783 205.68 214.029 199.541C212.275 193.403 216.266 150.914 216.266 150.914L198.289 152.229Z" fill="#2F2E41"/>
<path d="M208.329 226.287C208.329 226.287 203.945 227.603 203.068 229.356C202.191 231.11 187.722 234.179 192.106 236.372C196.491 238.564 209.644 234.618 209.644 234.618C209.644 234.618 216.66 234.179 216.221 231.549C215.783 228.918 214.186 225.676 214.186 225.676L208.329 226.287Z" fill="#2F2E41"/>
<path d="M220.606 231.008C220.606 231.008 216.221 232.323 215.344 234.077C214.468 235.831 199.998 238.9 204.383 241.092C208.768 243.285 221.921 239.338 221.921 239.338C221.921 239.338 228.937 238.9 228.498 236.269C228.06 233.639 226.463 230.397 226.463 230.397L220.606 231.008Z" fill="#2F2E41"/>
<path d="M202.191 151.208L208.329 161.731L218.574 198.318C218.574 198.318 217.537 231.885 218.852 231.885C220.168 231.885 227.183 234.077 227.621 231.885C227.992 230.033 232.903 212.293 230.455 200.486C228.862 193.023 227.838 185.451 227.391 177.834L226.306 157.347C226.306 157.347 230.691 149.455 225.867 148.139C221.044 146.824 202.191 151.208 202.191 151.208Z" fill="#2F2E41"/>
<path d="M207.891 83.686C213.702 83.686 218.414 78.9747 218.414 73.163C218.414 67.3513 213.702 62.64 207.891 62.64C202.079 62.64 197.368 67.3513 197.368 73.163C197.368 78.9747 202.079 83.686 207.891 83.686Z" fill="#A0616A"/>
<path d="M206.575 80.1783C206.575 80.1783 208.329 94.209 207.891 95.0859C207.452 95.9628 218.414 85.4398 218.414 85.4398C218.414 85.4398 214.468 79.3014 215.344 76.2322L206.575 80.1783Z" fill="#A0616A"/>
<path d="M231.129 94.2089C231.129 94.2089 218.852 85.4398 218.414 83.686L209.206 91.5782L207.641 89.7158C207.641 89.7158 200.437 96.8397 200.437 99.9089C200.437 102.978 199.998 112.186 201.314 114.816C202.629 117.447 197.368 150.77 197.368 150.77C197.368 150.77 201.752 154.716 202.191 155.155C202.629 155.593 220.167 152.524 220.167 152.524C220.167 152.524 228.937 151.647 228.937 150.332C228.937 149.016 226.306 129.286 227.183 124.024C228.06 118.763 231.129 94.2089 231.129 94.2089Z" fill="#575A89"/>
<path d="M233.76 106.486C233.76 106.486 235.952 134.986 232.883 135.862C229.814 136.739 218.852 143.316 201.314 141.562C201.314 141.562 184.214 150.77 186.845 142.001C189.475 133.232 201.314 135.424 201.314 135.424C201.314 135.424 222.36 131.039 223.237 127.97C224.114 124.901 220.606 112.186 221.921 111.747C223.237 111.309 233.76 106.486 233.76 106.486Z" fill="#A0616A"/>
<path d="M203.396 67.9063C204.834 67.3943 206.421 67.1314 207.888 67.5558C209.963 68.1564 211.401 69.976 212.952 71.481C214.502 72.986 216.677 74.3197 218.718 73.6119C218.595 72.727 218.827 71.8293 219.364 71.115C219.631 70.8487 219.828 70.5209 219.938 70.1605C220.025 69.5969 219.551 69.1108 219.409 68.5585C219.16 67.5906 219.843 66.2656 219.003 65.7231C218.782 65.5799 218.501 65.5473 218.285 65.3961C217.436 64.803 218.379 63.3278 217.817 62.4576C217.649 62.2329 217.431 62.0508 217.18 61.9257C213.111 59.5517 208.136 59.5452 203.425 59.605C202.77 59.6134 201.857 59.939 202.042 60.5682C201.152 59.9292 199.986 60.8264 199.269 61.6546L197.8 63.3496C197.11 64.0867 196.508 64.9014 196.005 65.7773C195.557 66.6352 195.457 67.9542 196.35 68.3282C195.687 68.0501 194.881 71.9819 197.941 71.335C199.719 70.9591 201.462 68.5945 203.396 67.9063Z" fill="#2F2E41"/>
<path d="M224.114 95.0859L231.129 94.2089C231.129 94.2089 238.144 107.801 234.198 109.993C230.252 112.186 220.168 113.94 220.168 113.063C220.168 112.186 224.114 95.0859 224.114 95.0859Z" fill="#575A89"/>
<path d="M127.966 98.0684C127.966 98.0684 130.059 104.945 128.863 107.037C127.667 109.13 130.956 113.614 136.337 111.522C141.719 109.429 142.018 107.037 142.018 107.037C142.018 107.037 139.925 103.749 139.327 96.8725L127.966 98.0684Z" fill="#FFB9B9"/>
<path d="M100.611 165.485C100.611 165.485 89.8485 170.866 94.6319 178.041C97.4124 182.212 102.718 190.322 106.674 196.382C109.985 201.455 112.524 206.99 114.208 212.808L114.961 215.412L117.951 218.999L124.229 211.824C124.229 211.824 114.961 194.783 114.961 191.495C114.961 188.206 107.487 177.742 107.487 177.742L114.961 172.959C114.961 172.959 106.59 163.392 100.611 165.485Z" fill="#FFB9B9"/>
<path d="M135.59 184.02C135.59 184.02 135.889 192.391 136.188 195.68C136.435 198.393 134.036 205.99 134.868 214.441C135.375 219.909 135.314 225.414 134.686 230.869L133.497 241.72L142.466 242.617L145.456 218.102C145.456 218.102 147.25 200.762 146.353 195.082L146.652 183.124C146.652 183.124 140.074 180.732 135.59 184.02Z" fill="#FFB9B9"/>
<path d="M119.595 149.191C119.595 149.191 98.668 162.645 98.369 166.83C98.369 166.83 110.328 165.634 110.627 176.098C110.627 176.098 117.802 173.407 119.595 172.809C121.389 172.211 130.956 165.933 130.956 165.933C130.956 165.933 134.843 168.923 134.843 173.706C134.843 178.49 134.544 186.861 134.843 187.458C135.142 188.056 142.018 179.386 147.698 186.861L151.585 166.232C151.585 166.232 152.78 153.676 150.389 152.779L133.647 146.5L119.595 149.191Z" fill="#2F2E41"/>
<path d="M132.301 101.805C137.255 101.805 141.27 97.7899 141.27 92.8365C141.27 87.8831 137.255 83.8676 132.301 83.8676C127.348 83.8676 123.332 87.8831 123.332 92.8365C123.332 97.7899 127.348 101.805 132.301 101.805Z" fill="#FFB9B9"/>
<path d="M130.059 108.532C130.059 108.532 140.176 111.204 141.545 106.131C141.545 106.131 153.976 108.532 156.069 116.604C158.162 124.676 150.987 144.109 150.987 144.707C150.987 145.305 156.966 148.892 154.275 150.686C151.585 152.48 149.193 150.387 150.389 152.779C151.585 155.17 153.677 155.768 151.883 156.366C150.09 156.964 139.327 147.696 130.956 150.088C122.585 152.48 118.4 150.686 118.4 150.686L114.646 118.245C114.499 117.002 114.667 115.742 115.132 114.581C115.597 113.419 116.346 112.392 117.31 111.594C119.184 110.052 121.67 108.386 124.08 107.934C128.863 107.037 129.062 106.546 129.062 106.546L130.059 108.532Z" fill="#D0CDE1"/>
<path d="M120.492 160.851C120.492 160.851 123.183 176.098 126.771 174.005C130.358 171.912 125.874 160.851 125.874 160.851H120.492Z" fill="#FFB9B9"/>
<path d="M132.981 162.824C132.981 162.824 128.319 177.588 132.468 177.391C136.617 177.193 137.753 165.311 137.753 165.311L132.981 162.824Z" fill="#FFB9B9"/>
<path d="M116.456 214.814C116.456 214.814 114.364 212.422 113.168 215.711C111.972 218.999 108.683 223.185 108.683 223.185C108.683 223.185 101.508 231.257 106.591 231.556C111.673 231.855 118.848 224.381 118.848 224.381L127.219 216.607C127.219 216.607 124.445 209.851 123.141 209.791C121.838 209.731 122.137 217.803 116.456 214.814Z" fill="#2F2E41"/>
<path d="M135.889 239.628C135.889 239.628 133.782 240.243 133.939 237.693C133.939 237.693 126.322 241.72 128.415 244.71C130.508 247.7 132.899 250.689 132.899 250.689C132.899 250.689 143.961 256.968 144.858 255.473C145.755 253.978 145.755 250.988 145.157 249.792C144.559 248.597 141.569 246.504 142.466 244.71C143.363 242.916 142.167 238.133 140.672 238.133C139.178 238.133 135.889 239.628 135.889 239.628Z" fill="#2F2E41"/>
<path d="M124.474 85.2367C124.474 85.2367 127.36 78.9854 132.89 80.428C138.419 81.8707 141.545 84.0345 141.786 86.1985C142.026 88.3624 141.665 91.6082 141.665 91.6082C141.665 91.6082 141.064 87.1602 137.217 88.1219C133.37 89.0837 127.36 88.3624 127.36 88.3624L126.398 97.018C126.398 97.018 125.316 95.4552 124.114 96.4169C122.911 97.3786 120.627 87.1602 124.474 85.2367Z" fill="#2F2E41"/>
<path d="M150.987 116.305C150.987 116.305 143.811 135.738 144.409 138.129C145.007 140.521 144.409 140.82 143.512 141.418C142.616 142.016 140.224 148.294 140.224 148.294C140.224 148.294 138.729 151.882 137.533 152.779C136.337 153.676 136.337 156.067 136.337 156.067C136.337 156.067 133.348 159.057 133.946 159.655C134.544 160.253 134.544 161.15 133.348 162.047C132.152 162.943 130.956 164.139 131.554 164.438C132.152 164.737 136.337 168.026 137.533 167.727C138.729 167.428 136.935 166.232 138.43 165.634C139.925 165.036 140.822 164.139 140.224 163.84C139.626 163.541 137.832 163.541 139.626 162.943C141.42 162.346 147.698 158.459 149.791 153.676C151.883 148.892 161.91 119.951 155.851 115.886C155.851 115.886 153.378 112.718 150.987 116.305Z" fill="#D0CDE1"/>
<path d="M117.802 113.017L117.68 113.067C116.551 113.538 115.553 114.277 114.774 115.22C113.995 116.164 113.457 117.283 113.208 118.48C112.555 121.605 111.912 126.125 112.42 130.356C113.317 137.831 113.915 141.119 115.111 143.511C116.307 145.903 116.606 145.006 116.307 146.799C116.008 148.593 114.513 147.098 116.008 149.49C117.503 151.882 118.4 151.284 117.802 152.48C117.204 153.676 116.307 153.676 117.503 155.17C118.699 156.665 118.699 157.263 118.997 157.861C119.296 158.459 120.193 162.943 120.193 162.943C120.193 162.943 124.977 161.449 127.667 162.047C127.667 162.047 125.276 157.861 125.874 156.964C126.472 156.067 127.368 155.768 126.472 154.871C125.575 153.975 124.08 154.274 125.575 153.377C127.069 152.48 124.379 143.212 124.379 143.212L117.802 113.017Z" fill="#D0CDE1"/>
<path d="M60.5512 213.371H49.6584L54.6243 45.1731L60.5512 213.371Z" fill="#3F3D56"/>
<path d="M55.5854 77.0506L67.2792 60.8716L55.4252 81.0554L54.1437 78.8127L55.5854 77.0506Z" fill="#3F3D56"/>
<path d="M54.3039 93.3899L42.6101 77.2108L54.4641 97.3946L55.7456 95.1519L54.3039 93.3899Z" fill="#3F3D56"/>
<path d="M60.3037 125.882L55.032 128.926L56.6339 131.701L61.9056 128.657L60.3037 125.882Z" fill="#3F3D56"/>
</g>
<defs>
<clipPath id="clip0">
<rect width="272" height="255.703" fill="white"/>
</clipPath>
</defs>
</svg>
