<svg width="36" height="26" viewBox="0 0 36 26" fill="none" xmlns="http://www.w3.org/2000/svg">
<path d="M23.9941 3H8.00592C3.58437 3 0 6.58172 0 11C0 15.4183 3.58437 19 8.00592 19H23.9941C28.4156 19 32 15.4183 32 11C32 6.58172 28.4156 3 23.9941 3Z" fill="#67B68C" fill-opacity="0.65"/>
<path d="M26.092 1H9.37224C4.74838 1 1 4.74838 1 9.37224C1 13.9961 4.74838 17.7445 9.37224 17.7445H26.092C30.7158 17.7445 34.4642 13.9961 34.4642 9.37224C34.4642 4.74838 30.7158 1 26.092 1Z" stroke="#616161" stroke-width="1.2" stroke-linecap="round" stroke-linejoin="round"/>
<path d="M9.43652 7L9.43652 25" stroke="#616161" stroke-width="1.2" stroke-linecap="round" stroke-linejoin="round"/>
<path d="M18.4365 4.49958L18.4365 24.9996" stroke="#616161" stroke-width="1.2" stroke-linecap="round" stroke-linejoin="round"/>
<path d="M25.436 10L25.436 25" stroke="#616161" stroke-width="1.2" stroke-linecap="round" stroke-linejoin="round"/>
<path d="M18.4141 11.728C18.4141 11.728 22.9525 9.57768 23.6696 5.75628" stroke="#616161" stroke-width="1.2" stroke-linecap="round" stroke-linejoin="round"/>
<path d="M9.03128 13.5793C9.03128 13.5793 5.20902 13.8154 5.44775 9.51214" stroke="#616161" stroke-width="1.2" stroke-linecap="round" stroke-linejoin="round"/>
<path d="M25.6938 14.8133C25.6938 14.8133 29.0191 15.0785 29.7866 12.0034" stroke="#616161" stroke-width="1.2" stroke-linecap="round" stroke-linejoin="round"/>
<path d="M17.5461 14.7778C16.8583 14.7613 16.1817 14.5997 15.5606 14.3037C14.9396 14.0077 14.388 13.5838 13.942 13.06C13.496 12.5361 13.1656 11.9239 12.9725 11.2636C12.7793 10.6032 12.7277 9.90949 12.8211 9.22784" stroke="#616161" stroke-width="1.2" stroke-linecap="round" stroke-linejoin="round"/>
</svg>
