<svg width="25" height="26" viewBox="0 0 25 26" fill="none" xmlns="http://www.w3.org/2000/svg">
<path d="M3.67042 25C3.65787 23.8506 3.88177 22.7101 4.32912 21.6447C4.77647 20.5793 5.43842 19.61 6.27666 18.7929C7.1149 17.9758 8.1128 17.3271 9.21262 16.8844C10.3124 16.4418 11.4924 16.2138 12.6841 16.2138C13.8758 16.2138 15.0558 16.4418 16.1556 16.8844C17.2554 17.3271 18.2533 17.9758 19.0915 18.7929C19.9298 19.61 20.5917 20.5793 21.0391 21.6447C21.4864 22.7101 21.7103 23.8506 21.6978 25" stroke="#616161" stroke-width="1.2" stroke-linecap="round" stroke-linejoin="round"/>
<path d="M17.8446 8.98663C17.8586 9.1371 17.8656 9.29046 17.8656 9.4448C17.8654 10.7703 17.3192 12.0414 16.3474 12.9786C15.3756 13.9157 14.0577 14.4422 12.6835 14.4422C11.3093 14.4422 9.99135 13.9157 9.01955 12.9786C8.04775 12.0414 7.50173 10.7703 7.50146 9.4448C7.50146 9.29046 7.50846 9.13903 7.52246 8.98855" stroke="#616161" stroke-width="1.2" stroke-linecap="round" stroke-linejoin="round"/>
<path d="M7.52637 6.45559C7.51237 6.30512 7.50537 6.15272 7.50537 5.99839C7.50537 4.6729 8.05124 3.40169 9.02285 2.46434C9.99446 1.52698 11.3123 1.00026 12.6865 1C14.0608 1 15.3789 1.52661 16.3507 2.46399C17.3225 3.40137 17.8686 4.67273 17.8686 5.99839C17.8686 6.15175 17.8616 6.30319 17.8476 6.45366" stroke="#616161" stroke-width="1.2" stroke-linecap="round" stroke-linejoin="round"/>
<path d="M17.8092 6.46623C22.0023 6.67457 24.3673 7.16554 24.3673 7.73752C24.3673 8.49857 19.1362 9.11782 12.6832 9.11782C6.23006 9.11782 1 8.49953 1 7.73752C1 7.15878 2.98502 6.65914 7.29208 6.45562" stroke="#616161" stroke-width="1.2" stroke-linecap="round" stroke-linejoin="round"/>
</svg>
