<svg width="32" height="25" viewBox="0 0 32 25" fill="none" xmlns="http://www.w3.org/2000/svg">
<circle cx="30" cy="2" r="2" fill="#67B68C" fill-opacity="0.8"/>
<path d="M17.8369 9.99848L17.8369 0.959961" stroke="#616161" stroke-width="1.2" stroke-linecap="round" stroke-linejoin="round"/>
<path d="M18.25 7.78022C18.5646 6.44236 19.3663 5.27699 20.492 4.52078C21.6178 3.76457 22.9831 3.47423 24.311 3.70881C24.183 4.38677 23.9235 5.03175 23.5475 5.6056C23.1714 6.17946 22.6867 6.67059 22.1217 7.05006C21.5568 7.42954 20.9231 7.68966 20.2581 7.81507C19.5932 7.94048 18.9104 7.9286 18.25 7.78022V7.78022Z" stroke="#616161" stroke-width="1.2" stroke-linecap="round" stroke-linejoin="round"/>
<path d="M9 2.32428C10.7545 1.85469 12.6191 2.09694 14.2025 3.00019C15.786 3.90344 16.9654 5.39756 17.4936 7.16926C16.6246 7.44686 15.7092 7.54068 14.8035 7.44497C13.8978 7.34926 13.0207 7.066 12.2258 6.61256C11.4309 6.15912 10.7348 5.54502 10.1802 4.80771C9.62553 4.0704 9.22404 3.22538 9 2.32428Z" stroke="#616161" stroke-width="1.2" stroke-linecap="round" stroke-linejoin="round"/>
<path d="M5.81198 10.4909L25.9018 10.57L23.8228 17.7414L14.3314 18.1628L5.81198 10.4909Z" stroke="#616161" stroke-width="1.2" stroke-linecap="round" stroke-linejoin="round"/>
<path d="M17.1613 18.4604L20.099 23.5946C20.1926 23.725 20.3205 23.8228 20.4671 23.8759C20.6136 23.929 20.7722 23.9351 20.9234 23.8935C21.0745 23.8518 21.2115 23.7642 21.3174 23.6414C21.4233 23.5187 21.4935 23.3663 21.5191 23.2031L21.4781 18.2251" stroke="#616161" stroke-width="1.2" stroke-linecap="round" stroke-linejoin="round"/>
<path d="M10 15L6 19" stroke="#616161" stroke-width="1.2" stroke-linecap="round" stroke-linejoin="round"/>
<path d="M30 8H28.2354L26 11" stroke="#616161" stroke-width="1.2" stroke-linecap="round" stroke-linejoin="round"/>
<path d="M5.35492 23.9999C7.76008 23.9999 9.70985 22.0502 9.70985 19.645C9.70985 17.2399 7.76008 15.2901 5.35492 15.2901C2.94977 15.2901 1 17.2399 1 19.645C1 22.0502 2.94977 23.9999 5.35492 23.9999Z" stroke="#616161" stroke-width="1.2" stroke-linecap="round" stroke-linejoin="round"/>
</svg>
