<svg width="28" height="34" viewBox="0 0 28 34" fill="none" xmlns="http://www.w3.org/2000/svg">
<path d="M14.7056 15.3942C15.9383 16.0195 19.6968 14.3544 19.8305 10.5866" stroke="#FAF8F1" stroke-width="1.093" stroke-linecap="round" stroke-linejoin="round"/>
<path d="M13.5799 21.1374C12.1543 21.8621 7.80488 19.933 7.65039 15.574" stroke="#FAF8F1" stroke-width="1.093" stroke-linecap="round" stroke-linejoin="round"/>
<path d="M14.2368 9.32888V31.1591" stroke="#FAF8F1" stroke-width="1.048" stroke-linecap="round" stroke-linejoin="round"/>
<path d="M27.3954 13.3207C27.3939 11.9476 26.9078 10.6161 26.0176 9.54715C25.1273 8.47816 23.8865 7.73578 22.5006 7.44308C22.8455 6.59933 22.8643 5.66348 22.5538 4.80733C22.2433 3.95117 21.6242 3.23216 20.8102 2.78227C19.9962 2.33238 19.042 2.1818 18.1225 2.35819C17.2031 2.53457 16.3802 3.02607 15.8049 3.74247L15.7396 3.88198C14.8569 2.55844 13.4938 1.60322 11.9193 1.20477C10.3447 0.806322 8.67313 0.993586 7.23424 1.72962C5.79534 2.46565 4.6936 3.69699 4.14646 5.18072C3.59932 6.66445 3.64646 8.29281 4.27859 9.74453C3.28315 10.0829 2.42711 10.7231 1.83743 11.57C1.24775 12.4169 0.955912 13.4253 1.0054 14.4455C1.05488 15.4657 1.44301 16.4433 2.11207 17.2329C2.78114 18.0226 3.69547 18.5823 4.71929 18.8289C4.26498 19.9247 4.22213 21.14 4.59829 22.2631C4.97446 23.3862 5.74582 24.346 6.77785 24.9752C7.80988 25.6045 9.03722 25.8632 10.2461 25.7065C11.4549 25.5497 12.5686 24.9873 13.3932 24.1174C14 23.5 14.0085 23.7225 14.2766 23.477C14.495 24.0504 14.8409 24.5704 15.2898 25.0001C15.7387 25.4298 16.2797 25.7587 16.8745 25.9636C17.4693 26.1685 18.1033 26.2443 18.7317 26.1857C19.3601 26.1272 19.9675 25.9356 20.5109 25.6246C21.0544 25.3136 21.5206 24.8907 21.8765 24.386C22.2325 23.8813 22.4696 23.3069 22.5709 22.7037C22.6722 22.1005 22.6351 21.4831 22.4627 20.8952C22.2902 20.3073 21.9864 19.7633 21.5727 19.3017C23.1468 19.2083 24.6251 18.5378 25.7067 17.4267C26.7884 16.3157 27.3922 14.8474 27.3954 13.3207Z" stroke="#FAF8F1" stroke-width="1.093" stroke-linecap="round" stroke-linejoin="round"/>
<path d="M6.99951 31.1591H21.3051" stroke="#FAF8F1" stroke-width="0.995" stroke-linecap="round" stroke-linejoin="round"/>
<path d="M4.99512 31.1591H7.0086" stroke="#FAF8F1" stroke-width="0.995" stroke-linecap="round" stroke-linejoin="round"/>
<path d="M15.5513 33H18.9852" stroke="#FAF8F1" stroke-width="0.995" stroke-linecap="round" stroke-linejoin="round"/>
</svg>
