<?xml version="1.0" standalone="no"?>
<!DOCTYPE svg PUBLIC "-//W3C//DTD SVG 20010904//EN"
 "http://www.w3.org/TR/2001/REC-SVG-20010904/DTD/svg10.dtd">
<svg version="1.0" xmlns="http://www.w3.org/2000/svg"
 width="213.000000pt" height="213.000000pt" viewBox="0 0 213.000000 213.000000"
 preserveAspectRatio="xMidYMid meet">
<metadata>
Created by potrace 1.11, written by Peter Selinger 2001-2013
</metadata>
<g transform="translate(0.000000,213.000000) scale(0.100000,-0.100000)"
fill="#000000" stroke="none">
<path d="M575 1639 c-274 -17 -455 -200 -457 -464 -1 -168 89 -318 237 -395
l60 -31 5 -82 c4 -74 7 -82 25 -82 18 0 20 8 23 78 2 42 5 77 7 77 2 0 14 -4
27 -9 22 -8 23 -12 21 -119 -1 -84 2 -114 12 -122 28 -23 35 1 35 121 l0 119
28 0 29 0 0 -85 c0 -85 12 -120 33 -99 5 5 10 47 12 94 3 84 3 85 31 88 l27 3
0 -120 c0 -119 7 -144 34 -122 9 8 12 43 11 126 l-1 115 27 0 c28 0 28 -1 31
-72 3 -65 5 -73 23 -73 18 0 20 8 23 71 l3 70 252 3 c139 1 260 4 270 7 25 8
46 54 37 80 -14 35 -60 46 -212 49 -79 2 -151 3 -161 4 -10 1 -24 15 -31 33
-13 30 -12 34 7 50 11 10 29 18 41 19 12 1 108 2 214 4 138 2 196 6 208 15 46
39 41 100 -11 124 -27 13 -60 15 -167 12 -144 -4 -174 2 -187 36 -20 55 15 78
119 78 83 0 110 18 110 75 0 62 -23 68 -238 68 -205 -1 -222 3 -222 57 0 48
26 60 133 60 84 0 100 3 117 20 30 30 30 73 0 104 -16 17 -37 19 -252 20 -128
0 -278 -2 -333 -5z m-105 -109 c0 -5 -2 -10 -4 -10 -3 0 -8 5 -11 10 -3 6 -1
10 4 10 6 0 11 -4 11 -10z m321 -203 c-10 -9 -11 -8 -5 6 3 10 9 15 12 12 3
-3 0 -11 -7 -18z m86 -129 c-3 -8 -6 -5 -6 6 -1 11 2 17 5 13 3 -3 4 -12 1
-19z m190 0 c-3 -8 -6 -5 -6 6 -1 11 2 17 5 13 3 -3 4 -12 1 -19z m-400 -30
c-3 -8 -6 -5 -6 6 -1 11 2 17 5 13 3 -3 4 -12 1 -19z m-510 -80 c-3 -7 -5 -2
-5 12 0 14 2 19 5 13 2 -7 2 -19 0 -25z m300 -50 c-3 -8 -6 -5 -6 6 -1 11 2
17 5 13 3 -3 4 -12 1 -19z m220 -20 c-3 -8 -6 -5 -6 6 -1 11 2 17 5 13 3 -3 4
-12 1 -19z m34 -5 c-12 -20 -14 -14 -5 12 4 9 9 14 11 11 3 -2 0 -13 -6 -23z
m-183 -48 c-3 -3 -9 2 -12 12 -6 14 -5 15 5 6 7 -7 10 -15 7 -18z m384 -7 c-8
-8 -9 -4 -5 13 4 13 8 18 11 10 2 -7 -1 -18 -6 -23z m-601 5 c13 -16 12 -17
-3 -4 -17 13 -22 21 -14 21 2 0 10 -8 17 -17z m100 -90 c13 -16 12 -17 -3 -4
-10 7 -18 15 -18 17 0 8 8 3 21 -13z"/>
<path d="M1241 1634 c-46 -19 -56 -79 -19 -114 18 -17 35 -20 101 -20 87 0
113 9 128 46 13 35 -15 93 -45 96 -74 5 -141 2 -165 -8z"/>
<path d="M1498 1623 c-60 -67 32 -163 101 -105 29 24 34 66 11 95 -24 30 -89
36 -112 10z"/>
<path d="M1667 1616 c-13 -10 -17 -24 -15 -47 7 -69 108 -69 108 0 0 16 -6 33
-13 39 -22 19 -61 22 -80 8z"/>
<path d="M1488 1381 c-34 -4 -64 -13 -74 -23 -24 -24 -22 -75 4 -100 19 -20
31 -21 144 -19 144 2 151 4 166 37 17 36 15 49 -11 80 -21 24 -30 26 -97 28
-41 1 -101 0 -132 -3z"/>
<path d="M1780 1353 c-23 -16 -27 -65 -7 -81 21 -17 95 -21 117 -5 23 16 26
51 7 77 -17 23 -89 29 -117 9z"/>
<path d="M1602 1116 c-47 -24 -56 -80 -18 -115 21 -20 32 -22 134 -20 62 1
110 5 107 9 -3 4 3 7 12 6 24 -2 48 45 39 77 -11 44 -53 59 -162 55 -52 -2
-103 -7 -112 -12z"/>
<path d="M1922 1094 c-25 -17 -30 -65 -9 -83 23 -18 72 -24 84 -9 22 27 24 55
6 76 -25 29 -55 35 -81 16z"/>
<path d="M1567 860 c-52 -4 -72 -10 -83 -24 -20 -28 -17 -63 6 -86 17 -17 33
-20 113 -20 105 0 127 11 127 67 0 58 -38 73 -163 63z"/>
<path d="M1767 832 c-31 -34 -11 -78 40 -88 35 -7 63 15 63 51 0 50 -69 75
-103 37z"/>
<path d="M1526 691 c-9 -14 4 -41 19 -41 21 0 28 19 15 35 -14 17 -26 19 -34
6z"/>
<path d="M936 678 c-25 -14 -9 -28 30 -28 l34 0 0 -94 c0 -86 9 -120 27 -102
3 3 7 49 7 101 l1 95 62 0 c60 0 86 11 61 26 -17 11 -204 12 -222 2z"/>
<path d="M1537 633 c-4 -3 -7 -43 -7 -88 0 -85 -8 -102 -53 -118 -24 -9 -12
-27 18 -27 34 0 65 37 66 79 1 41 1 117 0 144 -1 17 -12 22 -24 10z"/>
<path d="M1113 610 c-12 -5 -27 -19 -34 -31 -12 -23 -16 -115 -6 -125 14 -14
27 10 27 49 0 48 8 64 40 80 42 22 18 45 -27 27z"/>
<path d="M1206 598 c-15 -13 -29 -37 -32 -55 -5 -27 -1 -37 25 -64 27 -26 37
-30 63 -25 38 8 72 36 59 49 -5 5 -21 3 -38 -7 -27 -13 -32 -13 -52 0 -39 28
-22 84 26 84 30 0 29 -14 -2 -28 -24 -11 -31 -23 -19 -35 12 -11 62 15 75 40
12 23 11 27 -10 44 -31 25 -64 24 -95 -3z"/>
<path d="M1394 608 c-24 -11 -44 -48 -44 -78 0 -10 11 -31 24 -46 29 -34 84
-38 116 -9 25 23 12 42 -18 26 -51 -27 -101 8 -80 55 13 28 72 36 62 9 -4 -8
-15 -15 -25 -15 -18 0 -27 -24 -11 -33 14 -9 51 12 68 39 18 26 17 27 -5 45
-26 21 -55 23 -87 7z"/>
<path d="M1635 608 c-48 -26 -60 -83 -26 -127 31 -41 131 -29 131 15 0 16 -26
19 -35 4 -12 -19 -64 -11 -76 11 -16 31 3 69 36 69 32 0 32 -18 0 -30 -26 -10
-34 -29 -12 -31 66 -6 109 69 51 91 -32 12 -44 12 -69 -2z"/>
<path d="M1794 597 c-22 -19 -27 -33 -29 -75 -1 -28 2 -57 6 -63 14 -23 29 3
29 52 0 45 3 52 30 67 16 9 30 23 30 30 0 20 -37 14 -66 -11z"/>
</g>
</svg>
