<svg xmlns="http://www.w3.org/2000/svg" width="26.998" height="36" viewBox="0 0 26.998 36">
    <path id="prefix__tree" d="M26.6 26.6l-5.617-6.362h2.157a1.6 1.6 0 001.461-.918 1.55 1.55 0 00-.231-1.691l-5.493-6.39h2.031a1.593 1.593 0 001.467-.957 1.564 1.564 0 00-.3-1.693L14.323.333a1.158 1.158 0 00-1.64 0L4.93 8.593a1.566 1.566 0 00-.3 1.693 1.594 1.594 0 001.467.957h2.034l-5.494 6.392a1.552 1.552 0 00-.23 1.69 1.6 1.6 0 001.461.918h2.153L.4 26.6a1.554 1.554 0 00-.25 1.706 1.631 1.631 0 001.477.932h9.623v1.719l-2.13 3.4a1.125 1.125 0 001.006 1.628h6.747a1.125 1.125 0 001.006-1.628l-2.13-3.4v-1.715h9.623a1.631 1.631 0 001.477-.932 1.554 1.554 0 00-.249-1.71z" transform="translate(-.004 .007)" style="fill:#67b68c"/>
</svg>
