<svg width="21" height="21" viewBox="0 0 21 21" fill="none" xmlns="http://www.w3.org/2000/svg">
<path d="M20.4648 2.47168C20.4648 2.65918 20.4414 2.83203 20.3945 2.99023C20.3477 3.14844 20.2744 3.30664 20.1748 3.46484L16.2109 10.1006C16.5684 10.6572 16.8408 11.2549 17.0283 11.8936C17.2158 12.5264 17.3096 13.1738 17.3096 13.8359C17.3096 14.4746 17.2246 15.0898 17.0547 15.6816C16.8906 16.2734 16.6562 16.8271 16.3516 17.3428C16.0527 17.8584 15.6924 18.3271 15.2705 18.749C14.8486 19.1709 14.3799 19.5312 13.8643 19.8301C13.3486 20.1348 12.7949 20.3691 12.2031 20.5332C11.6113 20.7031 10.9961 20.7881 10.3574 20.7881C9.71875 20.7881 9.10352 20.7031 8.51172 20.5332C7.91992 20.3691 7.36621 20.1348 6.85059 19.8301C6.33496 19.5312 5.86621 19.1709 5.44434 18.749C5.02246 18.3271 4.65918 17.8584 4.35449 17.3428C4.05566 16.8271 3.82129 16.2734 3.65137 15.6816C3.4873 15.0898 3.40527 14.4746 3.40527 13.8359C3.40527 13.1738 3.49902 12.5264 3.68652 11.8936C3.87402 11.2549 4.14648 10.6572 4.50391 10.1006L0.53125 3.43848C0.4375 3.28613 0.367188 3.13379 0.320312 2.98145C0.273438 2.82324 0.25 2.65332 0.25 2.47168C0.25 2.20801 0.299805 1.96191 0.399414 1.7334C0.499023 1.50488 0.633789 1.30566 0.803711 1.13574C0.979492 0.959961 1.18164 0.822266 1.41016 0.722656C1.63867 0.623047 1.88477 0.573242 2.14844 0.573242H18.5664C18.8301 0.573242 19.0762 0.623047 19.3047 0.722656C19.5332 0.822266 19.7324 0.959961 19.9023 1.13574C20.0781 1.30566 20.2158 1.50488 20.3154 1.7334C20.415 1.96191 20.4648 2.20801 20.4648 2.47168ZM10.3574 19.5225C10.8789 19.5225 11.3828 19.4551 11.8691 19.3203C12.3555 19.1855 12.8066 18.9922 13.2227 18.7402C13.6445 18.4941 14.0283 18.1982 14.374 17.8525C14.7197 17.5068 15.0156 17.126 15.2617 16.71C15.5137 16.2881 15.707 15.834 15.8418 15.3477C15.9766 14.8613 16.0439 14.3574 16.0439 13.8359C16.0439 13.5195 16.0117 13.1914 15.9473 12.8516C15.8887 12.5117 15.8008 12.1777 15.6836 11.8496C15.5723 11.5215 15.4316 11.208 15.2617 10.9092C15.0918 10.6104 14.8984 10.3408 14.6816 10.1006C14.1074 9.47363 13.457 8.99316 12.7305 8.65918C12.0039 8.3252 11.2129 8.1582 10.3574 8.1582C9.57227 8.1582 8.83398 8.30762 8.14258 8.60645C7.45117 8.89941 6.84766 9.30371 6.33203 9.81934C5.82227 10.335 5.41797 10.9385 5.11914 11.6299C4.82031 12.3154 4.6709 13.0508 4.6709 13.8359C4.6709 14.3574 4.73828 14.8613 4.87305 15.3477C5.00781 15.834 5.19824 16.2881 5.44434 16.71C5.69629 17.126 5.99512 17.5068 6.34082 17.8525C6.68652 18.1982 7.06738 18.4941 7.4834 18.7402C7.90527 18.9922 8.35938 19.1855 8.8457 19.3203C9.33203 19.4551 9.83594 19.5225 10.3574 19.5225ZM10.3574 9.41504C10.9668 9.41504 11.5381 9.53223 12.0713 9.7666C12.6104 9.99512 13.0791 10.3115 13.4775 10.7158C13.8818 11.1143 14.1982 11.583 14.4268 12.1221C14.6611 12.6553 14.7783 13.2266 14.7783 13.8359C14.7783 14.4453 14.6611 15.0195 14.4268 15.5586C14.1982 16.0918 13.8818 16.5605 13.4775 16.9648C13.0791 17.3633 12.6104 17.6797 12.0713 17.9141C11.5381 18.1484 10.9668 18.2656 10.3574 18.2656C9.74805 18.2656 9.17383 18.1484 8.63477 17.9141C8.0957 17.6855 7.62695 17.3721 7.22852 16.9736C6.83008 16.5693 6.51367 16.0977 6.2793 15.5586C6.05078 15.0195 5.93652 14.4453 5.93652 13.8359C5.93652 13.2266 6.05078 12.6553 6.2793 12.1221C6.51367 11.583 6.83008 11.1143 7.22852 10.7158C7.63281 10.3115 8.10156 9.99512 8.63477 9.7666C9.17383 9.53223 9.74805 9.41504 10.3574 9.41504ZM10.3574 17.6328C10.8789 17.6328 11.3682 17.5332 11.8252 17.334C12.2881 17.1348 12.6895 16.8623 13.0293 16.5166C13.375 16.1709 13.6475 15.7695 13.8467 15.3125C14.0459 14.8496 14.1455 14.3574 14.1455 13.8359C14.1455 13.3145 14.0459 12.8252 13.8467 12.3682C13.6475 11.9053 13.375 11.5039 13.0293 11.1641C12.6895 10.8184 12.2881 10.5459 11.8252 10.3467C11.3682 10.1475 10.8789 10.0479 10.3574 10.0479C9.8418 10.0479 9.35547 10.1475 8.89844 10.3467C8.44141 10.54 8.04004 10.8066 7.69434 11.1465C7.34863 11.4863 7.07324 11.8848 6.86816 12.3418C6.66895 12.793 6.56934 13.2764 6.56934 13.792C6.56934 14.3193 6.66602 14.8174 6.85938 15.2861C7.05273 15.7549 7.31934 16.1621 7.65918 16.5078C7.99902 16.8535 8.40039 17.126 8.86328 17.3252C9.32617 17.5303 9.82422 17.6328 10.3574 17.6328ZM2.14844 1.83887C1.9668 1.83887 1.81445 1.90039 1.69141 2.02344C1.57422 2.14062 1.51562 2.29004 1.51562 2.47168C1.51562 2.58887 1.54785 2.69727 1.6123 2.79688L5.67285 9.59961C5.86035 9.38867 6.0625 9.19238 6.2793 9.01074C6.49609 8.8291 6.72461 8.66211 6.96484 8.50977L3.03613 1.83887H2.14844ZM18.9971 1.99707C18.874 1.8916 18.7305 1.83887 18.5664 1.83887H17.6787L13.75 8.50977C13.9902 8.66211 14.2188 8.8291 14.4355 9.01074C14.6523 9.19238 14.8545 9.38867 15.042 9.59961L19.0938 2.79688C19.123 2.75 19.1465 2.70898 19.1641 2.67383C19.1875 2.63281 19.1992 2.58301 19.1992 2.52441C19.1992 2.41895 19.1904 2.34277 19.1729 2.2959C19.1611 2.24316 19.1436 2.20215 19.1201 2.17285C19.0967 2.14355 19.0732 2.12012 19.0498 2.10254C19.0322 2.0791 19.0146 2.04395 18.9971 1.99707ZM13.7852 1.83887H6.92969L8.41504 4.36133H12.2998L13.7852 1.83887ZM11.623 11.3135C11.8223 11.5361 12.0332 11.7471 12.2559 11.9463V13.5986C11.9336 13.8447 11.6143 14.0938 11.2979 14.3457C10.9873 14.5977 10.6738 14.8496 10.3574 15.1016H12.2559V16.3672H8.45898V15.1016L10.9902 13.2119V12.5791H8.45898V11.9463C8.67578 11.7471 8.88672 11.5361 9.0918 11.3135H11.623ZM9.56641 7.56934L6.19141 1.83887H4.30176C4.90527 2.87598 5.50879 3.9043 6.1123 4.92383C6.71582 5.94336 7.32227 6.97168 7.93164 8.00879C8.45898 7.78613 9.00391 7.63965 9.56641 7.56934ZM14.5234 1.83887L11.1484 7.56934C11.7109 7.63965 12.2559 7.78613 12.7832 8.00879C13.3926 6.97168 13.999 5.94336 14.6025 4.92383C15.2061 3.9043 15.8096 2.87598 16.4131 1.83887H14.5234Z" fill="#707070"/>
</svg>
