<svg xmlns="http://www.w3.org/2000/svg" viewBox="0 0 113 155" width="113" height="155">
	<style>
		tspan { white-space:pre }
		.shp0 { fill: #dfd2ae } 
	</style>
	<g id="Layer">
		<path id="Layer" class="shp0" d="M30.03 34.98L82.63 34.98C89.88 34.98 96.85 32.14 101.98 27.08C107.11 22.02 110 15.16 110 8L110 141C109.77 134 106.78 127.37 101.68 122.5C96.58 117.63 89.75 114.9 82.65 114.9L30.03 114.9C27.1 114.9 24.3 113.76 22.23 111.72C20.16 109.68 19 106.91 19 104.03L19 45.85C19 42.97 20.16 40.2 22.23 38.16C24.3 36.12 27.1 34.98 30.03 34.98L71.39 34.98L30.03 34.98Z" />
	</g>
</svg>