<svg width="28" height="29" viewBox="0 0 28 29" fill="none" xmlns="http://www.w3.org/2000/svg">
<rect y="5" width="26.5269" height="22.1057" rx="3" fill="#C5E8D5"/>
<path d="M14.5011 6.9729C13.0527 6.24832 18.574 -1.34384 21.12 1.72872C23.666 4.80128 15.9495 7.69749 14.5011 6.9729Z" stroke="#616161" stroke-linejoin="round"/>
<path d="M14.0243 6.78591C15.4727 6.08401 9.95141 -1.27046 7.40538 1.70591C4.85934 4.68228 12.5759 7.48781 14.0243 6.78591Z" stroke="#616161" stroke-linejoin="round"/>
<rect x="1.5" y="7.39404" width="25.5269" height="21.1057" rx="2.5" stroke="#616161"/>
<path d="M21.1532 18.086C21.1435 17.286 20.859 16.5136 20.3474 15.8985C19.8357 15.2833 19.128 14.8629 18.3431 14.7076C18.4459 14.4574 18.4993 14.1896 18.5006 13.919C18.4912 13.333 18.2495 12.7747 17.8285 12.3668C17.4076 11.959 16.8419 11.735 16.2558 11.7441C15.9191 11.7437 15.5866 11.8187 15.2827 11.9635C14.9787 12.1083 14.711 12.3194 14.4992 12.5812L14.4617 12.6614C14.1163 12.1479 13.6495 11.7277 13.1027 11.4379C12.5559 11.1482 11.9461 10.9979 11.3273 11.0004C10.3513 10.9855 9.40927 11.3587 8.70835 12.0381C8.00744 12.7175 7.60502 13.6474 7.58954 14.6234C7.58931 15.1078 7.68911 15.587 7.88264 16.0311C7.31476 16.2123 6.82263 16.5761 6.48276 17.0658C6.14289 17.5555 5.9743 18.1438 6.00318 18.7392C6.03206 19.3346 6.25674 19.9038 6.64241 20.3583C7.02808 20.8128 7.55313 21.1272 8.13588 21.2527C7.99476 21.5923 7.92128 21.9562 7.91954 22.324C7.93199 23.1073 8.25496 23.8536 8.81751 24.3989C9.38006 24.9441 10.1361 25.2436 10.9194 25.2316C11.3294 25.2319 11.7353 25.1488 12.1121 24.9873C12.489 24.8258 12.8291 24.5894 13.1117 24.2924C13.2946 24.1895 13.4651 24.066 13.62 23.9243C13.804 24.3868 14.1233 24.7829 14.5362 25.0608C14.949 25.3387 15.4362 25.4855 15.9339 25.482C16.2546 25.4871 16.5732 25.429 16.8715 25.311C17.1697 25.193 17.4418 25.0173 17.6721 24.7942C17.9025 24.571 18.0866 24.3046 18.214 24.0102C18.3414 23.7159 18.4096 23.3993 18.4147 23.0786C18.4116 22.5027 18.1963 21.9481 17.81 21.5209C18.6997 21.4813 19.5409 21.1039 20.162 20.4657C20.7832 19.8275 21.1377 18.9765 21.1532 18.086Z" fill="#67B68C"/>
<path d="M14.7988 19.2779C15.4848 19.6373 17.5761 18.6802 17.6505 16.5145" stroke="#616161" stroke-linecap="round" stroke-linejoin="round"/>
<path d="M14.1734 22.579C13.3801 22.9956 10.96 21.8867 10.874 19.3812" stroke="#616161" stroke-linecap="round" stroke-linejoin="round"/>
<path d="M14.5386 15.7917V28.3395" stroke="#616161" stroke-linecap="round" stroke-linejoin="round"/>
<path d="M21.8604 18.0859C21.8596 17.2967 21.5891 16.5314 21.0938 15.917C20.5984 15.3025 19.908 14.8758 19.1368 14.7076C19.3287 14.2226 19.3392 13.6847 19.1664 13.1926C18.9937 12.7004 18.6492 12.2872 18.1963 12.0286C17.7433 11.77 17.2124 11.6834 16.7008 11.7848C16.1892 11.8862 15.7313 12.1687 15.4112 12.5805L15.3748 12.6607C14.8837 11.8999 14.1252 11.3509 13.2491 11.1218C12.373 10.8928 11.4429 11.0005 10.6422 11.4235C9.84159 11.8466 9.22855 12.5543 8.92411 13.4072C8.61967 14.26 8.6459 15.196 8.99763 16.0304C8.44375 16.2249 7.96742 16.5929 7.63931 17.0797C7.31119 17.5664 7.14881 18.1461 7.17634 18.7325C7.20388 19.3189 7.41984 19.8808 7.79213 20.3347C8.16441 20.7886 8.67317 21.1103 9.24285 21.252C8.99006 21.8818 8.96622 22.5804 9.17552 23.2259C9.38483 23.8715 9.81403 24.4232 10.3883 24.7848C10.9625 25.1465 11.6455 25.2952 12.3181 25.2051C12.9907 25.115 13.6104 24.7918 14.0692 24.2917C14.2466 24.1883 14.4116 24.0648 14.5608 23.9237C14.6823 24.2533 14.8747 24.5521 15.1245 24.7991C15.3743 25.0461 15.6754 25.2352 16.0063 25.3529C16.3373 25.4707 16.69 25.5143 17.0397 25.4806C17.3894 25.4469 17.7273 25.3368 18.0297 25.1581C18.3321 24.9793 18.5915 24.7363 18.7896 24.4461C18.9876 24.156 19.1196 23.8259 19.1759 23.4792C19.2323 23.1325 19.2117 22.7776 19.1157 22.4397C19.0197 22.1018 18.8507 21.7891 18.6205 21.5237C19.4964 21.47 20.3189 21.0847 20.9208 20.446C21.5227 19.8074 21.8587 18.9635 21.8604 18.0859Z" stroke="#616161" stroke-linecap="round" stroke-linejoin="round"/>
</svg>
