<svg width="30" height="30" viewBox="0 0 30 30" fill="none" xmlns="http://www.w3.org/2000/svg">
<path d="M15 26.9069C21.5765 26.9069 26.9078 21.5756 26.9078 14.9992C26.9078 8.42271 21.5765 3.09143 15 3.09143C8.42356 3.09143 3.09229 8.42271 3.09229 14.9992C3.09229 21.5756 8.42356 26.9069 15 26.9069Z" fill="#C5E8D5"/>
<path d="M15 29C22.732 29 29 22.732 29 15C29 7.26801 22.732 1 15 1C7.26801 1 1 7.26801 1 15C1 22.732 7.26801 29 15 29Z" stroke="#616161" stroke-width="0.564" stroke-linecap="round" stroke-linejoin="round"/>
<path d="M11.5068 18.8664C11.5068 19.8918 11.9142 20.8752 12.6392 21.6003C13.3643 22.3254 14.3477 22.7327 15.3731 22.7327C16.3985 22.7327 17.382 22.3254 18.1071 21.6003C18.8321 20.8752 19.2394 19.8918 19.2394 18.8664C19.2394 16.728 17.769 15.5193 15.3731 15.0001C13.0636 14.6579 11.5068 13.2688 11.5068 11.1338C11.5068 10.1084 11.9142 9.12495 12.6392 8.39987C13.3643 7.6748 14.3477 7.26746 15.3731 7.26746C16.3985 7.26746 17.382 7.6748 18.1071 8.39987C18.8321 9.12495 19.2394 10.1084 19.2394 11.1338" stroke="#616161" stroke-width="1.091" stroke-linecap="round" stroke-linejoin="round"/>
<path d="M19.2039 20.0476C19.2039 20.0476 18.2502 15.3105 23.8084 14.959C23.8084 14.9564 23.9563 21.1596 19.2039 20.0476Z" fill="#67B68C" stroke="#616161" stroke-width="0.725" stroke-linecap="round" stroke-linejoin="round"/>
<path d="M18.9248 19.9441C18.9248 19.9441 21.5492 19.809 21.6894 17.3215" stroke="#616161" stroke-width="0.725" stroke-linecap="round" stroke-linejoin="round"/>
<path d="M11.996 8.94135C11.996 8.94135 10.9328 13.6545 5.71582 11.7068C5.71753 11.7068 8.11343 5.98601 11.996 8.94135Z" fill="#67B68C" stroke="#616161" stroke-width="0.725" stroke-linecap="round" stroke-linejoin="round"/>
<path d="M11.9882 9.15262C11.9882 9.15262 9.47587 8.38278 8.49219 10.6692" stroke="#616161" stroke-width="0.725" stroke-linecap="round" stroke-linejoin="round"/>
</svg>
