<svg width="19" height="20" viewBox="0 0 19 20" fill="none" xmlns="http://www.w3.org/2000/svg">
<path d="M10.6298 1H8.33138C4.28237 1 1 4.28237 1 8.33138V8.3321C1 12.3811 4.28237 15.6635 8.33138 15.6635H10.6298C14.6788 15.6635 17.9611 12.3811 17.9611 8.3321V8.33138C17.9611 4.28237 14.6788 1 10.6298 1Z" stroke="#616161" stroke-width="1.2" stroke-linecap="round" stroke-linejoin="round"/>
<path d="M9.98682 4.07603V18.9999" stroke="#616161" stroke-width="1.2" stroke-linecap="round" stroke-linejoin="round"/>
<path d="M10.2983 10.8996C10.2983 10.8996 13.8873 9.19949 14.4545 6.17622" stroke="#616161" stroke-width="1.2" stroke-linecap="round" stroke-linejoin="round"/>
<path d="M9.63395 13.613C9.02893 13.5985 8.43382 13.4563 7.88751 13.1959C7.3412 12.9355 6.85607 12.5628 6.46376 12.1019C6.07144 11.6411 5.78084 11.1027 5.61094 10.5218C5.44104 9.94099 5.39562 9.33081 5.47777 8.73122" stroke="#616161" stroke-width="1.2" stroke-linecap="round" stroke-linejoin="round"/>
</svg>
