<svg width="25" height="30" viewBox="0 0 25 30" fill="none" xmlns="http://www.w3.org/2000/svg">
<path d="M23.0624 11.7846C23.0477 10.5669 22.6147 9.39139 21.836 8.45519C21.0572 7.51899 19.9802 6.87909 18.7856 6.64285C18.942 6.26192 19.0234 5.85438 19.0252 5.44259C19.0109 4.55067 18.6431 3.70094 18.0024 3.08022C17.3618 2.4595 16.5008 2.11858 15.6089 2.13243C15.0964 2.13184 14.5904 2.24595 14.1277 2.4664C13.6651 2.68685 13.2577 3.00805 12.9353 3.40645L12.8782 3.52849C12.3526 2.74707 11.6421 2.1075 10.8099 1.66653C9.97779 1.22556 9.04968 0.996837 8.10792 1.00066C6.62246 0.977892 5.18873 1.54594 4.12197 2.57993C3.05522 3.61392 2.44276 5.02921 2.41919 6.51466C2.41884 7.25187 2.57074 7.98122 2.86528 8.65704C2.001 8.93289 1.252 9.48649 0.734738 10.2318C0.217476 10.9771 -0.0391154 11.8725 0.00483638 12.7786C0.0487882 13.6848 0.390751 14.5511 0.977717 15.2428C1.56468 15.9346 2.36378 16.4131 3.2507 16.604C3.03592 17.1209 2.92408 17.6748 2.92144 18.2345C2.94039 19.4267 3.43193 20.5626 4.2881 21.3924C5.14427 22.2222 6.29494 22.6781 7.48713 22.6598C8.11113 22.6602 8.72876 22.5337 9.30234 22.2879C9.87592 22.0422 10.3935 21.6824 10.8237 21.2304C11.102 21.0738 11.3616 20.8858 11.5972 20.6702C11.8772 21.374 12.3632 21.9768 12.9916 22.3998C13.62 22.8228 14.3615 23.0462 15.1189 23.0408C15.607 23.0486 16.0919 22.9602 16.5458 22.7806C16.9997 22.6009 17.4138 22.3337 17.7644 21.994C18.115 21.6543 18.3952 21.2489 18.5891 20.8009C18.783 20.3529 18.8868 19.8711 18.8945 19.383C18.8899 18.5065 18.5622 17.6624 17.9742 17.0123C19.3283 16.952 20.6085 16.3776 21.5539 15.4063C22.4992 14.435 23.0387 13.1398 23.0624 11.7846Z" fill="#67B68C"/>
<path d="M13.3916 13.5986C14.4356 14.1456 17.6184 12.6889 17.7317 9.39282" stroke="#616161" stroke-width="1.093" stroke-linecap="round" stroke-linejoin="round"/>
<path d="M12.4394 18.6226C11.2321 19.2566 7.54879 17.569 7.41797 13.7557" stroke="#616161" stroke-width="1.093" stroke-linecap="round" stroke-linejoin="round"/>
<path d="M12.9951 8.2926V27.3896" stroke="#616161" stroke-width="1.048" stroke-linecap="round" stroke-linejoin="round"/>
<path d="M24.1391 11.7846C24.1379 10.5834 23.7262 9.41865 22.9723 8.4835C22.2184 7.54834 21.1676 6.89891 19.994 6.64286C20.286 5.90475 20.3019 5.08607 20.039 4.33711C19.776 3.58815 19.2518 2.95916 18.5625 2.56559C17.8731 2.17203 17.065 2.04031 16.2864 2.19461C15.5077 2.34891 14.8108 2.77887 14.3237 3.40558L14.2684 3.52762C13.5208 2.36979 12.3665 1.53416 11.0331 1.1856C9.69974 0.837041 8.28414 1.00086 7.06561 1.64474C5.84708 2.28862 4.91406 3.36579 4.45072 4.66375C3.98737 5.96171 4.02729 7.3862 4.56261 8.65617C3.71962 8.95218 2.99468 9.51221 2.49531 10.2531C1.99594 10.9939 1.7488 11.8761 1.7907 12.7686C1.83261 13.6611 2.16129 14.5162 2.72789 15.207C3.29449 15.8978 4.0688 16.3875 4.93582 16.6032C4.55108 17.5617 4.5148 18.6249 4.83335 19.6074C5.15191 20.5899 5.80513 21.4295 6.67911 21.98C7.55309 22.5304 8.59246 22.7568 9.61619 22.6196C10.6399 22.4825 11.5831 21.9905 12.2813 21.2295C12.5513 21.072 12.8024 20.8841 13.0295 20.6693C13.2144 21.1709 13.5073 21.6258 13.8874 22.0017C14.2676 22.3776 14.7258 22.6653 15.2295 22.8446C15.7331 23.0238 16.2701 23.0901 16.8022 23.0389C17.3344 22.9876 17.8488 22.8201 18.309 22.548C18.7692 22.2759 19.164 21.906 19.4655 21.4645C19.7669 21.0229 19.9677 20.5205 20.0535 19.9928C20.1392 19.4651 20.1079 18.925 19.9618 18.4107C19.8157 17.8964 19.5585 17.4205 19.2081 17.0167C20.5412 16.935 21.7931 16.3485 22.7091 15.3765C23.6251 14.4046 24.1364 13.1202 24.1391 11.7846Z" stroke="#616161" stroke-width="1.093" stroke-linecap="round" stroke-linejoin="round"/>
<path d="M8.5791 27.3896H18.9819" stroke="#616161" stroke-width="0.995" stroke-linecap="round" stroke-linejoin="round"/>
<path d="M5.16943 27.3896H6.87456" stroke="#616161" stroke-width="0.995" stroke-linecap="round" stroke-linejoin="round"/>
<path d="M14.1084 29H17.0164" stroke="#616161" stroke-width="0.995" stroke-linecap="round" stroke-linejoin="round"/>
</svg>
