<svg width="55" height="55" viewBox="0 0 55 55" fill="none" xmlns="http://www.w3.org/2000/svg">
<path d="M40.2705 31.8667L39.6946 19.8867C39.6513 18.9947 39.287 18.1476 38.6675 17.4986C38.0481 16.8496 37.2144 16.4415 36.3174 16.3482L24.2711 15.1054C23.7297 15.0488 23.1823 15.1088 22.6666 15.2812C22.1508 15.4537 21.6788 15.7345 21.2829 16.1045L1.77339 34.3572C1.04571 35.0379 0.620861 35.9769 0.592243 36.9676C0.563625 37.9583 0.933582 38.9198 1.62078 39.6405L14.2677 52.8682C14.9532 53.5841 15.8967 54.0028 16.8926 54.0329C17.8885 54.063 18.8561 53.7022 19.5845 53.0291L39.094 34.7764C39.4911 34.4046 39.802 33.9519 40.0051 33.4495C40.2083 32.9471 40.2988 32.4071 40.2705 31.8667ZM28.1159 27.3729C27.646 26.8831 27.3336 26.2662 27.2182 25.6004C27.1028 24.9346 27.1897 24.2499 27.4677 23.633C27.7458 23.0162 28.2026 22.4949 28.7802 22.1353C29.3578 21.7757 30.0303 21.594 30.7123 21.6131C31.3944 21.6323 32.0553 21.8515 32.6114 22.2429C33.1675 22.6343 33.5937 23.1804 33.836 23.8119C34.0783 24.4434 34.1258 25.1319 33.9725 25.7901C33.8192 26.4484 33.4719 27.0467 32.9748 27.5094C32.3111 28.1271 31.4274 28.4594 30.5169 28.4338C29.6064 28.4083 28.7431 28.0268 28.1159 27.3729Z" fill="#8DC63F"/>
<path d="M16.9951 54.6229C16.3997 54.6239 15.8104 54.5043 15.2634 54.2712C14.7165 54.0382 14.2235 53.6968 13.8149 53.268L1.1926 40.0451C0.397667 39.2106 -0.0305962 38.0981 0.00170292 36.9515C0.034002 35.8049 0.524227 34.7177 1.3649 33.9284L20.8744 15.6757C21.3307 15.2483 21.8748 14.9235 22.4695 14.7233C23.0642 14.5231 23.6955 14.4523 24.3204 14.5157L36.3668 15.7634C37.4141 15.8642 38.3889 16.3376 39.1104 17.0958C39.8319 17.8541 40.2512 18.8457 40.2903 19.8867L40.8515 31.8424C40.8821 32.4656 40.7761 33.088 40.5407 33.6669C40.3053 34.2457 39.9462 34.7672 39.4879 35.1956L19.9932 53.4434C19.1831 54.2019 18.1101 54.6241 16.9951 54.6229ZM23.8872 15.6708C23.0756 15.6719 22.2952 15.9806 21.7063 16.5335L2.1821 34.7862C1.87793 35.0702 1.63331 35.4108 1.46223 35.7885C1.29115 36.1661 1.19697 36.5735 1.18508 36.9873C1.17319 37.4011 1.24383 37.8131 1.39294 38.1998C1.54206 38.5865 1.76673 38.9403 2.0541 39.2409L14.6764 52.4638C15.2564 53.0708 16.0561 53.4251 16.8997 53.4489C17.7434 53.4726 18.5621 53.1639 19.176 52.5905L38.6855 34.3378C39.0172 34.0258 39.277 33.6465 39.4469 33.2259C39.6169 32.8053 39.693 32.3533 39.67 31.9009L39.0941 19.9257C39.0612 19.1729 38.7555 18.457 38.2329 17.9092C37.7103 17.3614 37.0059 17.0184 36.2486 16.9429L24.2072 15.6903C24.096 15.678 23.9843 15.6715 23.8724 15.6708H23.8872ZM30.6316 29.0253C29.6937 29.025 28.7853 28.701 28.0627 28.1091C27.3401 27.5172 26.8485 26.6944 26.6726 25.7824C26.4967 24.8703 26.6474 23.9261 27.0988 23.1122C27.5502 22.2983 28.2741 21.6657 29.1458 21.3233C30.0176 20.9808 30.9826 20.9499 31.8749 21.2359C32.7671 21.522 33.5308 22.107 34.0343 22.8903C34.5379 23.6737 34.7498 24.6063 34.6337 25.5277C34.5176 26.449 34.0807 27.3015 33.3983 27.9384C32.6466 28.6411 31.6506 29.0303 30.6168 29.0253H30.6316ZM30.6316 22.2018C29.978 22.2022 29.3446 22.4257 28.8381 22.8346C28.3316 23.2436 27.983 23.8129 27.8512 24.4467C27.7193 25.0804 27.8122 25.7398 28.1142 26.3136C28.4162 26.8874 28.9089 27.3406 29.5091 27.5967C30.1093 27.8528 30.7803 27.8961 31.409 27.7194C32.0377 27.5427 32.5857 27.1567 32.9604 26.6266C33.3352 26.0965 33.5138 25.4546 33.4662 24.8093C33.4187 24.164 33.1477 23.5546 32.6992 23.084C32.4299 22.8059 32.1055 22.5857 31.7464 22.4373C31.3872 22.2888 31.001 22.2153 30.6119 22.2213L30.6316 22.2018Z" fill="#231F20"/>
<path d="M34.0676 19.5895C34.0676 19.5895 26.9392 12.8732 36.0663 0.581299C36.0663 0.586173 44.0118 9.48102 34.0676 19.5895Z" fill="#40A743"/>
<path d="M34.068 20.1792C33.9159 20.1796 33.7696 20.122 33.6594 20.0183C33.5855 19.9452 26.275 12.8001 35.5891 0.240117C35.6419 0.169409 35.7099 0.111268 35.7883 0.0699469C35.8666 0.0286261 35.9534 0.00517122 36.042 0.00129631C36.1341 -0.00470362 36.2262 0.0101788 36.3115 0.04481C36.3969 0.0794411 36.4731 0.132906 36.5343 0.201126C36.618 0.293729 44.731 9.62722 34.5159 20.0037C34.4579 20.0625 34.388 20.1085 34.3108 20.1387C34.2336 20.169 34.1509 20.1827 34.068 20.1792ZM36.0864 1.57069C29.1943 11.2795 32.7782 17.1184 34.0778 18.7219C41.6 10.6702 37.5731 3.62747 36.0864 1.57069Z" fill="#231F20"/>
<path d="M42.328 13.6726C42.328 13.6726 41.9982 4.83621 54.0347 2.71606C54.0495 2.72094 52.0459 13.6482 42.328 13.6726Z" fill="#40A743"/>
<path d="M42.3283 14.2623C42.1745 14.2625 42.0266 14.2037 41.9156 14.0983C41.8045 13.9929 41.739 13.8491 41.7326 13.6969C41.7326 13.6043 41.5308 4.31959 53.9316 2.14096C54.0273 2.12171 54.1263 2.12605 54.2199 2.1536C54.3136 2.18115 54.3989 2.23107 54.4684 2.29895C54.538 2.36684 54.5896 2.45062 54.6187 2.54291C54.6479 2.63519 54.6537 2.73316 54.6356 2.82818C54.6356 2.94028 52.4252 14.238 42.3283 14.2672V14.2623ZM53.2571 3.47153C44.455 5.37235 43.1504 11.1918 42.9633 13.0633C50.1163 12.6734 52.5926 5.91822 53.2571 3.47153Z" fill="#231F20"/>
<path d="M38.8824 20.4668C38.8824 20.4668 46.4785 13.2925 54.0105 19.3994C54.0105 19.3994 49.0187 27.685 38.8824 20.4668Z" fill="#40A743"/>
<path d="M46.6702 24.0149C44.1152 24.0149 41.378 22.9865 38.5129 20.9394C38.4416 20.8889 38.3825 20.8234 38.3397 20.7476C38.2969 20.6719 38.2716 20.5877 38.2655 20.5011C38.2594 20.4145 38.2726 20.3276 38.3043 20.2467C38.3361 20.1658 38.3854 20.0928 38.4489 20.0329C38.5277 19.9598 46.5372 12.5758 54.3844 18.9217C54.4938 19.0112 54.5674 19.1366 54.5918 19.2751C54.6161 19.4136 54.5897 19.5562 54.5173 19.6771C53.1395 21.7782 50.9884 23.2645 48.5212 23.8199C47.9126 23.9476 47.2923 24.013 46.6702 24.0149ZM39.8273 20.4131C42.8844 22.4406 45.7348 23.2009 48.28 22.6745C50.2475 22.2277 51.9916 21.1053 53.2029 19.5065C47.3544 15.1834 41.6143 18.9899 39.8273 20.4131Z" fill="#231F20"/>
<path d="M12.8799 40.9078C13.1082 40.7677 13.3574 40.6641 13.6183 40.6007C13.8229 40.5517 14.0352 40.5417 14.2435 40.5715C14.4172 40.602 14.5839 40.6631 14.7358 40.7518C14.8906 40.8439 15.0315 40.9571 15.1543 41.0881C15.3406 41.2673 15.4822 41.487 15.5676 41.7298C15.6531 41.9727 15.6801 42.2319 15.6466 42.4869C15.5185 43.1192 15.17 43.6868 14.662 44.0904C14.3991 44.3483 14.1008 44.5681 13.7759 44.7435C13.5215 44.8797 13.2448 44.9705 12.9587 45.0116C12.7351 45.0437 12.5073 45.0305 12.2891 44.9726C12.1134 44.926 11.9536 44.8334 11.8264 44.7045C11.7735 44.6524 11.7322 44.59 11.7051 44.5212C11.6779 44.4523 11.6656 44.3787 11.6689 44.3049C11.6728 44.2305 11.6918 44.1576 11.7248 44.0906C11.7578 44.0236 11.8041 43.9639 11.8608 43.915C11.9436 43.83 12.0529 43.7751 12.171 43.759C12.3144 43.7515 12.4582 43.7614 12.5993 43.7882C12.7084 43.8087 12.8185 43.8233 12.9291 43.8321C13.0304 43.8454 13.133 43.8454 13.2343 43.8321C13.3582 43.8052 13.4776 43.7609 13.5888 43.7005C13.7326 43.6227 13.8651 43.526 13.9826 43.413C14.2012 43.2322 14.3506 42.9828 14.406 42.7062C14.4283 42.6015 14.4252 42.493 14.397 42.3896C14.3687 42.2862 14.3161 42.191 14.2435 42.1116C14.1526 42.0146 14.0311 41.9511 13.8989 41.9313C13.7253 41.9196 13.5525 41.964 13.4066 42.058L12.0381 42.794C11.8096 42.9223 11.5645 43.0191 11.3095 43.0815C11.1162 43.129 10.9153 43.1373 10.7187 43.1059C10.556 43.0776 10.4005 43.018 10.2609 42.9304C10.1201 42.8392 9.99114 42.7311 9.87691 42.6088C9.67369 42.4067 9.52915 42.1541 9.45847 41.8777C9.39584 41.6231 9.39584 41.3573 9.45847 41.1027C9.52593 40.8378 9.63739 40.5858 9.7883 40.357C9.94831 40.1164 10.1367 39.8955 10.3495 39.6991C10.5466 39.5105 10.7665 39.3468 11.0043 39.2117C11.2401 39.0737 11.4934 38.9672 11.7575 38.8949C11.985 38.8334 12.2225 38.8168 12.4565 38.8461C12.6531 38.8693 12.8357 38.9588 12.9734 39.0996C13.0259 39.1522 13.0656 39.216 13.0895 39.2861C13.1133 39.3562 13.1208 39.4307 13.1113 39.5041C13.0871 39.6589 13.0086 39.8004 12.8897 39.9038C12.8189 39.9746 12.7278 40.0222 12.6288 40.0402C12.5094 40.0539 12.3888 40.0539 12.2694 40.0402C12.057 40.0204 11.8427 40.0335 11.6344 40.0792C11.3926 40.1559 11.1742 40.2917 10.9993 40.474C10.8044 40.6344 10.6679 40.8535 10.6104 41.0979C10.5906 41.1943 10.595 41.2941 10.6233 41.3885C10.6517 41.4828 10.703 41.5688 10.7729 41.6389C10.8288 41.7014 10.9017 41.7466 10.9829 41.769C11.0641 41.7915 11.1502 41.7903 11.2307 41.7656C11.461 41.6993 11.6813 41.6026 11.8855 41.478L12.8799 40.9078Z" fill="#231F20"/>
<path d="M14.1939 36.7113C14.1343 36.5884 14.1204 36.4486 14.1545 36.3165C14.2004 36.1808 14.2819 36.0597 14.3908 35.9656L14.6271 35.7463C14.7359 35.6372 14.8717 35.5582 15.021 35.5172C15.191 35.4849 15.3671 35.518 15.5133 35.6098L19.806 37.7787L20.0669 37.9201C20.137 37.9586 20.2015 38.0061 20.2589 38.0614C20.3138 38.118 20.3557 38.1856 20.382 38.2595C20.4084 38.3335 20.4184 38.4122 20.4115 38.4903C20.402 38.6545 20.3277 38.8085 20.2048 38.9192C20.1214 39.0172 20.0073 39.0848 19.8807 39.1113C19.754 39.1378 19.6221 39.1216 19.5057 39.0654L18.5753 38.578L16.9901 40.0402L17.4086 41.015C17.4606 41.1312 17.4704 41.2617 17.4363 41.3843C17.4022 41.5069 17.3263 41.6141 17.2215 41.6876C17.1058 41.8046 16.9487 41.8727 16.7834 41.8777C16.7028 41.8772 16.6233 41.8595 16.5502 41.8258C16.4772 41.7922 16.4123 41.7434 16.36 41.6827C16.3071 41.6239 16.2624 41.5583 16.2271 41.4877C16.1811 41.4 16.1385 41.3107 16.0991 41.2197L14.1939 36.7113ZM15.5083 36.9209L16.5569 39.1775L17.7138 38.115L15.5083 36.9209Z" fill="#231F20"/>
<path d="M17.4085 34.0794C17.3204 33.9822 17.2622 33.862 17.2407 33.7332C17.2191 33.6043 17.2351 33.472 17.2867 33.3518C17.3384 33.2316 17.4236 33.1284 17.5324 33.0545C17.6411 32.9805 17.7689 32.9387 17.9008 32.9341C17.9902 32.9393 18.0777 32.9623 18.1581 33.0017C18.2384 33.041 18.3099 33.0959 18.3684 33.1632L21.2582 36.2093L22.9024 34.6789C23.0282 34.5522 23.1925 34.47 23.3701 34.445C23.45 34.4401 23.5301 34.4527 23.6045 34.4819C23.679 34.511 23.746 34.556 23.801 34.6137C23.8559 34.6714 23.8974 34.7403 23.9225 34.8155C23.9476 34.8908 23.9556 34.9706 23.9461 35.0494C23.9101 35.2238 23.8166 35.3815 23.6803 35.4977L21.652 37.4327C21.5083 37.5868 21.3117 37.6824 21.1007 37.7008C20.9901 37.693 20.8824 37.662 20.7848 37.6099C20.6872 37.5578 20.6019 37.4858 20.5345 37.3986L17.4085 34.0794Z" fill="#231F20"/>
<path d="M21.2535 30.8091C21.1702 30.7374 21.1031 30.6491 21.0564 30.5501C21.0098 30.451 20.9847 30.3433 20.9828 30.234C21.0143 30.0255 21.1231 29.8361 21.288 29.7027L23.6215 27.5534C23.7433 27.4248 23.9009 27.3349 24.0744 27.295C24.2258 27.3099 24.3657 27.382 24.4647 27.4964C24.5638 27.6109 24.6144 27.7587 24.606 27.9092C24.5574 28.079 24.4578 28.2303 24.3205 28.3429L22.44 30.1219L23.3212 31.0479L24.99 29.498C25.1021 29.3821 25.2457 29.3008 25.4036 29.2641C25.479 29.266 25.5533 29.2826 25.6222 29.3131C25.6911 29.3436 25.7532 29.3873 25.8049 29.4417C25.8566 29.4961 25.8969 29.5601 25.9235 29.63C25.9501 29.6999 25.9625 29.7743 25.9598 29.849C25.9153 30.0051 25.8244 30.1443 25.6989 30.2486L24.0301 31.7985L25.0147 32.8318L26.9838 31.0187C27.106 30.8906 27.2635 30.8008 27.4367 30.7604C27.5152 30.7623 27.5924 30.7796 27.664 30.8113C27.7357 30.8431 27.8002 30.8887 27.8538 30.9454C27.9074 31.0021 27.9491 31.0688 27.9763 31.1417C28.0036 31.2145 28.016 31.292 28.0127 31.3696C27.9638 31.5394 27.8643 31.6905 27.7272 31.8034L25.3691 33.9966C25.2254 34.1508 25.0288 34.2464 24.8177 34.2647C24.7072 34.2566 24.5996 34.2255 24.5021 34.1734C24.4045 34.1214 24.3192 34.0495 24.2516 33.9625L21.2535 30.8091Z" fill="#231F20"/>
<path d="M33.6151 22.4261C33.5251 22.4263 33.4361 22.4063 33.355 22.3675C33.2739 22.3288 33.2027 22.2724 33.1468 22.2025C33.0909 22.1326 33.0517 22.051 33.0322 21.964C33.0127 21.8769 33.0134 21.7866 33.0342 21.6999C33.3739 20.2864 33.753 17.9031 34.1222 15.5929C34.4914 13.2827 34.8803 10.8555 35.2299 9.39818C35.244 9.31904 35.2743 9.24359 35.319 9.17647C35.3636 9.10935 35.4217 9.05198 35.4895 9.00787C35.5574 8.96377 35.6336 8.93386 35.7136 8.91999C35.7936 8.90611 35.8755 8.90857 35.9545 8.9272C36.0335 8.94583 36.1078 8.98024 36.1728 9.02832C36.2379 9.07641 36.2923 9.13715 36.3328 9.20681C36.3732 9.27648 36.3989 9.3536 36.4082 9.43345C36.4175 9.51329 36.4102 9.59417 36.3867 9.67112C36.0471 11.0845 35.668 13.4679 35.2988 15.7781C34.9296 18.0883 34.5406 20.5155 34.1911 21.9728C34.1602 22.1013 34.0867 22.2158 33.9823 22.298C33.8778 22.3802 33.7485 22.4253 33.6151 22.4261Z" fill="#231F20"/>
<path d="M46.1978 21.0613L37.7255 20.8225L36.795 20.7396L35.8794 20.6519C35.7974 20.6497 35.7167 20.6307 35.6425 20.5961C35.5682 20.5616 35.502 20.5122 35.4479 20.4511C35.3938 20.39 35.3531 20.3186 35.3282 20.2412C35.3033 20.1637 35.2949 20.0821 35.3034 20.0013C35.3119 19.9205 35.3371 19.8423 35.3776 19.7717C35.418 19.701 35.4728 19.6394 35.5384 19.5906C35.6041 19.5419 35.6792 19.5071 35.759 19.4884C35.8389 19.4698 35.9217 19.4676 36.0025 19.4822L36.9033 19.565L37.8042 19.6479L46.2323 19.8818C46.3902 19.8818 46.5417 19.944 46.6535 20.0546C46.7652 20.1652 46.8279 20.3152 46.8279 20.4716C46.8279 20.628 46.7652 20.778 46.6535 20.8886C46.5417 20.9992 46.3902 21.0613 46.2323 21.0613H46.1978Z" fill="#231F20"/>
<path d="M30.3752 29.0156C30.2525 29.0158 30.1328 28.9784 30.0323 28.9086C29.9318 28.8388 29.8556 28.74 29.814 28.6257C29.5599 27.8401 29.5194 27.0021 29.6966 26.1961C29.8737 25.3901 30.2623 24.6445 30.8232 24.0345C32.4822 22.2604 47.2165 8.67689 47.8417 8.10665C47.8987 8.05266 47.966 8.01041 48.0396 7.98236C48.1132 7.9543 48.1917 7.941 48.2706 7.94323C48.3494 7.94546 48.427 7.96317 48.4989 7.99534C48.5708 8.0275 48.6355 8.07348 48.6893 8.1306C48.7431 8.18773 48.7848 8.25486 48.8122 8.3281C48.8396 8.40134 48.852 8.47924 48.8487 8.55726C48.8454 8.63529 48.8265 8.71189 48.7931 8.78263C48.7597 8.85337 48.7124 8.91683 48.654 8.96933C48.5014 9.11067 33.3388 23.1036 31.6897 24.8387C31.2751 25.2933 30.9872 25.847 30.8542 26.4452C30.7213 27.0434 30.748 27.6655 30.9315 28.2504C30.9639 28.3395 30.9742 28.435 30.9615 28.5289C30.9487 28.6228 30.9133 28.7122 30.8582 28.7896C30.8032 28.8671 30.7301 28.9303 30.6452 28.9739C30.5603 29.0174 30.466 29.0401 30.3703 29.04L30.3752 29.0156Z" fill="#231F20"/>
</svg>
