<svg width="30" height="27" viewBox="0 0 30 27" fill="none" xmlns="http://www.w3.org/2000/svg">
<circle cx="27.5" cy="2.5" r="2.5" fill="#67B68C" fill-opacity="0.8"/>
<path d="M11.4614 11.3021L11.4614 3" stroke="#616161" stroke-width="1.2" stroke-linecap="round" stroke-linejoin="round"/>
<path d="M11.8389 9.26441C12.1279 8.03556 12.8642 6.96514 13.8982 6.27055C14.9323 5.57596 16.1863 5.30927 17.406 5.52474C17.2884 6.14746 17.0501 6.73989 16.7047 7.26698C16.3593 7.79408 15.914 8.24519 15.3951 8.59375C14.8762 8.94231 14.2942 9.18123 13.6834 9.29642C13.0726 9.41161 12.4455 9.40071 11.8389 9.26441V9.26441Z" stroke="#616161" stroke-width="1.2" stroke-linecap="round" stroke-linejoin="round"/>
<path d="M3.34326 4.25319C4.95485 3.82187 6.66747 4.04438 8.12191 4.87404C9.57635 5.70369 10.6597 7.07607 11.1448 8.70341C10.3466 8.95839 9.50577 9.04457 8.67386 8.95666C7.84195 8.86874 7.03635 8.60856 6.30622 8.19207C5.57609 7.77558 4.93671 7.21152 4.42727 6.53428C3.91782 5.85704 3.54904 5.08088 3.34326 4.25319Z" stroke="#616161" stroke-width="1.2" stroke-linecap="round" stroke-linejoin="round"/>
<path d="M10.5573 23.8261C10.5573 25.2476 9.40495 26.4 7.98344 26.4C6.56193 26.4 5.40957 25.2476 5.40957 23.8261C5.40957 22.4046 6.56193 21.2522 7.98344 21.2522C9.40495 21.2522 10.5573 22.4046 10.5573 23.8261Z" stroke="#616161" stroke-width="1.2" stroke-linecap="round" stroke-linejoin="round"/>
<path d="M20.4248 11.9409L24.5749 8.25586" stroke="#616161" stroke-width="1.2" stroke-linecap="round" stroke-linejoin="round"/>
<path d="M1 11.9403H20.8205V12.9063C20.8205 15.0412 19.9724 17.0888 18.4628 18.5984C16.9531 20.108 14.9056 20.9561 12.7707 20.9561H9.19296C8.12385 20.9751 7.06168 20.781 6.06845 20.3849C5.07522 19.9889 4.17084 19.399 3.40812 18.6496C2.64539 17.9002 2.03962 17.0063 1.62615 16.0203C1.21269 15.0342 0.999831 13.9756 1 12.9063V11.9403Z" stroke="#616161" stroke-width="1.2" stroke-linecap="round" stroke-linejoin="round"/>
</svg>
