<svg width="56" height="50" viewBox="0 0 56 50" fill="none" xmlns="http://www.w3.org/2000/svg">
<g clip-path="url(#clip0)">
<path d="M44.3349 39.3387C48.1501 39.3387 51.2429 35.8419 51.2429 31.5285C51.2429 27.215 48.1501 23.7183 44.3349 23.7183C40.5197 23.7183 37.4269 27.215 37.4269 31.5285C37.4269 35.8419 40.5197 39.3387 44.3349 39.3387Z" fill="#8DC63F"/>
<path d="M32.108 0.764664C30.6082 0.764663 29.1697 1.36017 28.1088 2.4203C27.0479 3.48042 26.4513 4.91842 26.4501 6.41824C26.4514 6.60971 26.3887 6.79613 26.272 6.9479C26.1552 7.09967 25.9911 7.2081 25.8057 7.25596C24.9127 7.47706 24.1196 7.9913 23.5534 8.71641C22.9872 9.44151 22.6806 10.3356 22.6825 11.2556C22.6823 11.4206 22.6909 11.5855 22.7083 11.7496C22.7273 11.9305 22.6862 12.1126 22.5915 12.2678C22.4968 12.4231 22.3537 12.5429 22.1842 12.6088C20.9467 13.0946 19.8916 13.9545 19.166 15.0684C18.4403 16.1824 18.0803 17.495 18.1361 18.8233C18.1919 20.1516 18.6607 21.4293 19.4772 22.4785C20.2937 23.5277 21.4172 24.296 22.6911 24.6764C22.6911 24.8396 23.0348 27.7222 25.548 28.9251C26.1945 29.2133 26.8923 29.3686 27.6001 29.3819C28.3078 29.3952 29.011 29.2662 29.6679 29.0025C30.6514 28.606 31.499 27.933 32.108 27.0649C32.7158 27.9362 33.5635 28.6123 34.5481 29.011C35.2041 29.2748 35.9064 29.4043 36.6133 29.3918C37.3203 29.3792 38.0175 29.2249 38.6637 28.938C41.1769 27.7351 41.5034 24.8568 41.5206 24.6892C42.7945 24.3089 43.918 23.5406 44.7345 22.4914C45.551 21.4422 46.0198 20.1645 46.0756 18.8362C46.1314 17.5079 45.7714 16.1953 45.0458 15.0813C44.3201 13.9674 43.265 13.1075 42.0275 12.6217C41.858 12.5558 41.7149 12.436 41.6202 12.2807C41.5255 12.1255 41.4845 11.9434 41.5034 11.7625C41.5208 11.5984 41.5294 11.4335 41.5292 11.2684C41.5292 10.3499 41.2217 9.45786 40.6556 8.7345C40.0896 8.01115 39.2976 7.49819 38.406 7.27744C38.2221 7.22895 38.0595 7.12082 37.9437 6.97C37.8278 6.81918 37.7653 6.63418 37.7659 6.44401C37.7687 5.6992 37.6244 4.96117 37.3414 4.27224C37.0583 3.58332 36.642 2.95706 36.1163 2.4294C35.5907 1.90174 34.966 1.48307 34.2782 1.19739C33.5903 0.911712 32.8528 0.764658 32.108 0.764664Z" fill="#8DC63F"/>
<path d="M23.3917 26.0081C23.3917 32.9935 18.3266 38.6642 12.0759 38.6642C5.82521 38.6642 0.760193 32.9935 0.760193 26.0081C0.760193 19.0228 5.8295 0.764664 12.0759 0.764664C18.3224 0.764664 23.3917 19.0228 23.3917 26.0081Z" fill="#40A743"/>
<path d="M45.2887 23.0267C46.0571 22.0637 46.5633 20.9182 46.758 19.7016C46.7807 19.5996 46.7822 19.494 46.7625 19.3914C46.7428 19.2887 46.7023 19.1912 46.6434 19.1049C46.5846 19.0185 46.5086 18.9451 46.4203 18.8893C46.332 18.8334 46.2331 18.7962 46.1299 18.78C46.0266 18.7639 45.9212 18.769 45.82 18.7952C45.7188 18.8214 45.6241 18.868 45.5416 18.9322C45.4592 18.9964 45.3908 19.0769 45.3406 19.1686C45.2905 19.2602 45.2597 19.3612 45.2501 19.4653C45.0899 20.4562 44.6677 21.3862 44.0271 22.1589C43.3866 22.9316 42.551 23.519 41.607 23.8601C41.3811 23.9454 41.181 24.0874 41.026 24.2725C40.871 24.4577 40.7663 24.6796 40.722 24.917C40.5846 25.6516 40.0648 27.4473 38.342 28.2722C37.7909 28.5172 37.1959 28.6485 36.5928 28.6581C35.9897 28.6677 35.3909 28.5554 34.8322 28.328C34.0568 28.0167 33.3789 27.5035 32.8689 26.8416V23.5293L36.1683 20.23C36.3024 20.1017 36.3875 19.9306 36.4087 19.7462C36.4299 19.5618 36.3858 19.3758 36.2842 19.2204C36.2194 19.1303 36.1359 19.0552 36.0393 19.0005C35.9428 18.9457 35.8355 18.9124 35.7249 18.903C35.6143 18.8937 35.5029 18.9083 35.3985 18.9461C35.2941 18.9838 35.1991 19.0437 35.12 19.1216L32.8689 21.3727V16.3679C32.8719 16.1806 32.8084 15.9984 32.6896 15.8536C32.5708 15.7088 32.4044 15.611 32.2202 15.5774C32.1135 15.5634 32.005 15.5722 31.9019 15.6033C31.7988 15.6344 31.7035 15.687 31.6223 15.7577C31.541 15.8283 31.4758 15.9154 31.4307 16.0132C31.3857 16.111 31.3619 16.2172 31.361 16.3249V19.9078L29.1442 17.691C29.0158 17.5559 28.8442 17.4698 28.659 17.4479C28.4739 17.4259 28.2869 17.4694 28.1304 17.5708C28.0402 17.6356 27.9652 17.7191 27.9104 17.8157C27.8556 17.9122 27.8224 18.0195 27.813 18.1301C27.8036 18.2407 27.8183 18.3521 27.856 18.4565C27.8938 18.5609 27.9536 18.6559 28.0316 18.735L31.361 22.0644V26.8201C30.8519 27.4811 30.1757 27.9942 29.402 28.3065C28.8433 28.5339 28.2445 28.6462 27.6414 28.6366C27.0383 28.627 26.4433 28.4958 25.8922 28.2507C25.1665 27.8942 24.5669 27.3247 24.1737 26.6182C24.3026 23.2501 23.3145 18.3312 21.884 13.6141C22.071 13.5034 22.2646 13.4044 22.4639 13.3177C22.7929 13.1898 23.0701 12.9563 23.252 12.6538C23.4339 12.3514 23.5103 11.9971 23.4692 11.6465C23.4521 11.5126 23.4435 11.3777 23.4434 11.2427C23.4427 10.4943 23.6928 9.76728 24.1538 9.17776C24.6148 8.58824 25.2602 8.17026 25.9867 7.99061C26.333 7.90376 26.6411 7.70519 26.8632 7.42561C27.0853 7.14603 27.2091 6.80105 27.2153 6.44404C27.2626 4.41632 28.3839 2.53895 30.2913 1.843C31.0388 1.55099 31.8463 1.44612 32.6435 1.53753C33.4408 1.62894 34.2036 1.91385 34.8656 2.36746C35.5276 2.82106 36.0687 3.42961 36.4417 4.14012C36.8148 4.85063 37.0085 5.64156 37.006 6.44404C37.0087 6.80346 37.1309 7.15177 37.3534 7.4341C37.5758 7.71643 37.8858 7.91675 38.2346 8.0035C39.0283 8.20083 39.7226 8.68126 40.187 9.35449C40.6514 10.0277 40.8539 10.8474 40.7564 11.6594C40.7162 12.0071 40.7921 12.3583 40.9724 12.6582C41.1527 12.9582 41.4272 13.1901 41.7531 13.3177C42.4619 13.5976 43.107 14.0178 43.6495 14.553C44.1921 15.0882 44.6211 15.7274 44.9107 16.4323C44.9533 16.536 45.0182 16.6291 45.1008 16.705C45.1835 16.7808 45.2818 16.8376 45.3888 16.8712C45.4958 16.9048 45.6088 16.9144 45.72 16.8995C45.8311 16.8845 45.9376 16.8453 46.0319 16.7846C46.1811 16.682 46.29 16.5309 46.3401 16.3569C46.3903 16.183 46.3785 15.9971 46.3069 15.8309C45.9392 14.9408 45.3959 14.134 44.7095 13.4586C44.023 12.7832 43.2075 12.2531 42.3116 11.9L42.2643 11.8227C42.4061 10.6418 42.1114 9.44991 41.4357 8.47119C40.76 7.49247 39.7499 6.79445 38.5955 6.50848C38.574 6.50171 38.5555 6.4878 38.543 6.46904C38.5305 6.45029 38.5248 6.42783 38.5268 6.40538C38.5242 5.56252 38.3557 4.72841 38.0308 3.95068C37.7059 3.17296 37.231 2.46684 36.6332 1.87264C36.0354 1.27844 35.3265 0.80781 34.5468 0.487607C33.7671 0.167405 32.932 0.00390518 32.0892 0.00644391C31.2463 0.00898264 30.4122 0.17751 29.6345 0.502403C28.8568 0.827297 28.1506 1.30219 27.5564 1.89998C26.9622 2.49777 26.4916 3.20673 26.1714 3.98641C25.8512 4.76608 25.6877 5.60118 25.6902 6.44404C25.691 6.46522 25.6847 6.48605 25.6722 6.5032C25.6598 6.52034 25.6419 6.53279 25.6215 6.53855C24.565 6.79755 23.6256 7.40268 22.9529 8.25754C22.2802 9.11241 21.913 10.1678 21.9097 11.2556C21.9106 11.4523 21.9221 11.6487 21.9441 11.8441C21.9441 11.973 21.4758 12.0847 21.3727 12.1492C21.1794 11.5864 20.9861 11.0322 20.7842 10.4995C17.5235 1.82152 14.2499 0 12.0761 0C8.28704 0 5.38722 5.34426 3.62155 9.82502C3.54749 10.013 3.55115 10.2227 3.63171 10.408C3.71228 10.5933 3.86316 10.739 4.05115 10.8131C4.23915 10.8872 4.44887 10.8835 4.63417 10.8029C4.81947 10.7224 4.96518 10.5715 5.03924 10.3835C7.25599 4.75141 9.82072 1.52509 12.0761 1.52509C14.4347 1.52509 17.0896 4.99198 19.3794 11.0365C21.5274 16.7287 22.6444 22.8763 22.6444 26.0082C22.6444 32.2761 18.3183 37.4227 12.8537 37.8652V28.7834L16.0328 25.6043C16.1752 25.461 16.2552 25.2672 16.2552 25.0652C16.2552 24.8631 16.1752 24.6693 16.0328 24.526C15.9624 24.4545 15.8785 24.3976 15.7859 24.3588C15.6934 24.32 15.594 24.3 15.4936 24.3C15.3933 24.3 15.2939 24.32 15.2013 24.3588C15.1088 24.3976 15.0248 24.4545 14.9545 24.526L12.8408 26.6354V23.4262C12.8264 23.2339 12.7398 23.0541 12.5984 22.9229C12.4569 22.7917 12.2712 22.7188 12.0783 22.7188C11.8854 22.7188 11.6996 22.7917 11.5582 22.9229C11.4168 23.0541 11.3302 23.2339 11.3157 23.4262V29.8445L9.21498 27.7395C9.13591 27.6615 9.04091 27.6016 8.9365 27.5639C8.83209 27.5262 8.72075 27.5115 8.61012 27.5209C8.4995 27.5303 8.39223 27.5635 8.29567 27.6183C8.19911 27.6731 8.11556 27.7481 8.05076 27.8383C7.94862 27.9931 7.90388 28.1788 7.92428 28.3632C7.94468 28.5476 8.02894 28.719 8.16245 28.8478L11.3114 31.9968V37.8652C5.84689 37.4356 1.52079 32.2804 1.52079 26.0082C1.52079 23.0654 2.46592 18.1035 3.87502 13.6657C3.93654 13.4731 3.91906 13.264 3.82641 13.0843C3.73376 12.9047 3.57353 12.7692 3.38097 12.7077C3.18842 12.6461 2.97931 12.6636 2.79965 12.7563C2.61998 12.8489 2.48449 13.0091 2.42296 13.2017C0.953718 17.85 0 22.8763 0 26.0082C0 33.1181 5.00917 38.9521 11.3157 39.3903V45.5035C11.3157 45.7052 11.3958 45.8986 11.5385 46.0412C11.6811 46.1838 11.8745 46.2639 12.0761 46.2639C12.176 46.2639 12.2749 46.2443 12.3671 46.206C12.4594 46.1678 12.5432 46.1118 12.6138 46.0412C12.6844 45.9706 12.7404 45.8868 12.7786 45.7945C12.8169 45.7023 12.8365 45.6034 12.8365 45.5035V39.3903C18.314 39.0122 22.8119 34.5572 23.8988 28.7361C24.291 29.1021 24.7355 29.4076 25.2177 29.6426C25.9579 29.9774 26.7582 30.1587 27.5704 30.1757C28.3826 30.1927 29.1898 30.0449 29.9433 29.7414C30.4505 29.5398 30.9275 29.2695 31.361 28.938V45.5035C31.361 45.7052 31.4411 45.8986 31.5837 46.0412C31.7263 46.1838 31.9197 46.2639 32.1214 46.2639C32.3231 46.2639 32.5165 46.1838 32.6591 46.0412C32.8017 45.8986 32.8818 45.7052 32.8818 45.5035V28.938C33.3116 29.2612 33.7826 29.5256 34.2823 29.7242C35.0226 30.009 35.809 30.1546 36.6022 30.1538C36.6737 30.604 36.6996 31.0603 36.6795 31.5157C36.6795 35.9578 39.7168 39.618 43.5875 40.0476V45.4906C43.5875 45.6923 43.6676 45.8857 43.8102 46.0283C43.9528 46.1709 44.1462 46.251 44.3479 46.251C44.5496 46.251 44.743 46.1709 44.8856 46.0283C45.0282 45.8857 45.1083 45.6923 45.1083 45.4906V40.0605C48.9747 39.6309 52.012 35.9706 52.012 31.5285C52.0034 27.1638 49.0692 23.5508 45.2887 23.0267ZM45.1083 38.5225V36.2671L47.5141 33.8613C47.6571 33.7189 47.7376 33.5255 47.738 33.3237C47.7384 33.1218 47.6586 32.9281 47.5162 32.7851C47.3738 32.6421 47.1804 32.5616 46.9786 32.5612C46.7768 32.5608 46.583 32.6406 46.4401 32.783L45.1083 34.1148V31.7648C45.0938 31.5725 45.0072 31.3927 44.8658 31.2615C44.7244 31.1303 44.5386 31.0574 44.3457 31.0574C44.1528 31.0574 43.9671 31.1303 43.8257 31.2615C43.6843 31.3927 43.5976 31.5725 43.5832 31.7648V38.5225C40.5545 38.0929 38.2003 35.12 38.2003 31.5285C38.1989 30.9755 38.2565 30.424 38.3721 29.8832C40.7049 29.1013 42.0409 26.369 42.2128 25.2649C42.7227 25.0734 43.2098 24.8255 43.6648 24.526C47.3637 24.0492 50.4912 27.4087 50.4912 31.5285C50.4826 35.12 48.1155 38.0886 45.1083 38.5225Z" fill="black"/>
<path d="M4.82877 45.5035H36.0351" stroke="black" stroke-width="1.71841" stroke-linecap="round" stroke-linejoin="round"/>
<path d="M20.3067 48.6353H54.5503" stroke="black" stroke-width="1.71841" stroke-linecap="round" stroke-linejoin="round"/>
<path d="M39.3512 45.5035H49.8464" stroke="black" stroke-width="1.71841" stroke-linecap="round" stroke-linejoin="round"/>
</g>
<defs>
<clipPath id="clip0">
<rect width="55.4102" height="49.4945" fill="white"/>
</clipPath>
</defs>
</svg>
