<svg width="45" height="60" viewBox="0 0 45 60" fill="none" xmlns="http://www.w3.org/2000/svg">
<path d="M20.7563 1C18.6349 1 16.6005 1.8427 15.1005 3.34272C13.6004 4.84273 12.7577 6.87719 12.7577 8.99853C12.7596 9.26922 12.6709 9.53276 12.5059 9.74732C12.3408 9.96188 12.1089 10.1152 11.8468 10.1828C10.5853 10.4952 9.4649 11.2212 8.66454 12.2451C7.86418 13.2689 7.43004 14.5314 7.43147 15.831C7.43031 16.0645 7.44452 16.2978 7.47398 16.5294C7.49932 16.7857 7.44 17.0432 7.30509 17.2626C7.17018 17.482 6.96712 17.6511 6.72696 17.7441C4.97827 18.4324 3.48767 19.6488 2.46263 21.224C1.43759 22.7991 0.929113 24.6546 1.00796 26.5323C1.08681 28.4099 1.74906 30.2163 2.90255 31.6999C4.05603 33.1836 5.64336 34.2707 7.44361 34.8101C7.44361 35.0408 7.92948 39.11 11.4824 40.8105C12.3955 41.2209 13.3823 41.4422 14.3833 41.461C15.3843 41.4798 16.3787 41.2957 17.3067 40.9198C18.698 40.358 19.8964 39.4044 20.7563 38.1747C21.6161 39.4044 22.8145 40.358 24.2059 40.9198C25.1338 41.2957 26.1283 41.4798 27.1292 41.461C28.1302 41.4422 29.1171 41.2209 30.0302 40.8105C33.5892 39.11 34.0507 35.0408 34.069 34.8101C35.8692 34.2707 37.4565 33.1836 38.61 31.6999C39.7635 30.2163 40.4258 28.4099 40.5046 26.5323C40.5835 24.6546 40.075 22.7991 39.0499 21.224C38.0249 19.6488 36.5343 18.4324 34.7856 17.7441C34.546 17.6509 34.3436 17.4815 34.2098 17.262C34.0759 17.0425 34.0179 16.7851 34.0447 16.5294C34.0711 16.2975 34.0853 16.0644 34.0872 15.831C34.0872 14.5309 33.6518 13.2683 32.8504 12.2445C32.049 11.2208 30.9279 10.495 29.6658 10.1828C29.4037 10.1152 29.1717 9.96188 29.0067 9.74732C28.8416 9.53276 28.753 9.26922 28.7548 8.99853C28.7548 6.87719 27.9121 4.84273 26.4121 3.34272C24.9121 1.8427 22.8776 1 20.7563 1Z" fill="#8DC63F"/>
<path d="M20.7563 1C18.6349 1 16.6005 1.8427 15.1005 3.34272C13.6004 4.84273 12.7577 6.87719 12.7577 8.99853C12.7596 9.26922 12.6709 9.53276 12.5059 9.74732C12.3408 9.96188 12.1089 10.1152 11.8468 10.1828C10.5853 10.4952 9.4649 11.2212 8.66454 12.2451C7.86418 13.2689 7.43004 14.5314 7.43147 15.831C7.43031 16.0645 7.44452 16.2978 7.47398 16.5294C7.49932 16.7857 7.44 17.0432 7.30509 17.2626C7.17018 17.482 6.96712 17.6511 6.72696 17.7441C4.97827 18.4324 3.48767 19.6488 2.46263 21.224C1.43759 22.7991 0.929113 24.6546 1.00796 26.5323C1.08681 28.4099 1.74906 30.2163 2.90255 31.6999C4.05603 33.1836 5.64336 34.2707 7.44361 34.8101C7.44361 35.0408 7.92948 39.11 11.4824 40.8105C12.3955 41.2209 13.3823 41.4422 14.3833 41.461C15.3843 41.4798 16.3787 41.2957 17.3067 40.9198C18.698 40.358 19.8964 39.4044 20.7563 38.1747C21.6161 39.4044 22.8145 40.358 24.2059 40.9198C25.1338 41.2957 26.1283 41.4798 27.1292 41.461C28.1302 41.4422 29.1171 41.2209 30.0302 40.8105C33.5892 39.11 34.0507 35.0408 34.069 34.8101C35.8692 34.2707 37.4565 33.1836 38.61 31.6999C39.7635 30.2163 40.4258 28.4099 40.5046 26.5323C40.5835 24.6546 40.075 22.7991 39.0499 21.224C38.0249 19.6488 36.5343 18.4324 34.7856 17.7441C34.546 17.6509 34.3436 17.4815 34.2098 17.262C34.0759 17.0425 34.0179 16.7851 34.0447 16.5294C34.0711 16.2975 34.0853 16.0644 34.0872 15.831C34.0872 14.5309 33.6518 13.2683 32.8504 12.2445C32.049 11.2208 30.9279 10.495 29.6658 10.1828C29.4037 10.1152 29.1717 9.96188 29.0067 9.74732C28.8416 9.53276 28.753 9.26922 28.7548 8.99853C28.7548 6.87719 27.9121 4.84273 26.4121 3.34272C24.9121 1.8427 22.8776 1 20.7563 1Z" stroke="black" stroke-width="2" stroke-linecap="round" stroke-linejoin="round"/>
<path d="M2.49371 54.5665H26.3132" stroke="black" stroke-width="2" stroke-linecap="round" stroke-linejoin="round"/>
<path d="M16.0732 59H43.8768" stroke="black" stroke-width="2" stroke-linecap="round" stroke-linejoin="round"/>
<path d="M30.9962 54.5665H38.4117" stroke="black" stroke-width="2" stroke-linecap="round" stroke-linejoin="round"/>
<path d="M20.9384 21.9468V54.0502" stroke="black" stroke-width="2" stroke-linecap="round" stroke-linejoin="round"/>
<path d="M21.5148 31.8888L26.3795 27.024" stroke="black" stroke-width="2" stroke-linecap="round" stroke-linejoin="round"/>
<path d="M20.7558 29.9939L16.0732 25.3114" stroke="black" stroke-width="2" stroke-linecap="round" stroke-linejoin="round"/>
</svg>
