<svg width="25" height="28" viewBox="0 0 25 28" fill="none" xmlns="http://www.w3.org/2000/svg">
<path d="M12.2491 28C12.7087 28 13.1638 27.9095 13.5885 27.7336C14.0131 27.5577 14.3989 27.2999 14.7239 26.9749C15.0489 26.6499 15.3067 26.264 15.4826 25.8394C15.6585 25.4148 15.7491 24.9596 15.7491 24.5H8.74906C8.74906 25.4283 9.11781 26.3185 9.77418 26.9749C10.4306 27.6313 11.3208 28 12.2491 28ZM24.0281 19.813C22.9711 18.678 20.9941 16.97 20.9941 11.375C20.9956 9.3684 20.2983 7.42391 19.022 5.87552C17.7457 4.32714 15.9701 3.27152 14.0001 2.89V1.75C14.0001 1.28587 13.8157 0.840752 13.4875 0.512563C13.1593 0.184374 12.7142 0 12.2501 0C11.7859 0 11.3408 0.184374 11.0126 0.512563C10.6844 0.840752 10.5001 1.28587 10.5001 1.75V2.89C8.52896 3.27029 6.75192 4.32538 5.47443 5.87388C4.19694 7.42238 3.49881 9.36755 3.50006 11.375C3.50006 16.97 1.52306 18.675 0.466058 19.813C0.163397 20.1337 -0.00357141 20.559 5.79512e-05 21C0.000320354 21.2302 0.0459302 21.458 0.134282 21.6705C0.222633 21.8831 0.351994 22.0761 0.514974 22.2386C0.677954 22.4011 0.871359 22.5299 1.08414 22.6177C1.29692 22.7054 1.5249 22.7504 1.75506 22.75H22.7441C22.9743 22.7507 23.2025 22.7059 23.4154 22.6182C23.6284 22.5306 23.822 22.4018 23.9851 22.2393C24.1482 22.0767 24.2776 21.8836 24.366 21.6709C24.4544 21.4583 24.4999 21.2303 24.5001 21C24.5022 20.5582 24.333 20.1327 24.0281 19.813Z" fill="#757575"/>
</svg>
