<svg width="32" height="32" viewBox="0 0 32 32" fill="none" xmlns="http://www.w3.org/2000/svg">
<mask id="mask0" mask-type="alpha" maskUnits="userSpaceOnUse" x="0" y="0" width="32" height="32">
<path d="M32 0L32 32L-1.39876e-06 32L0 -1.39876e-06L32 0Z" fill="#C4C4C4"/>
</mask>
<g mask="url(#mask0)">
<path d="M27.7007 8.20812L28.1277 7.78106L27.7679 7.29604C26.9023 6.12937 25.8695 5.09659 24.7028 4.23098L24.2178 3.87111L23.7907 4.29817L19.7005 8.38845L19.0633 9.02561L19.8382 9.48543C20.9399 10.1391 21.8598 11.059 22.5134 12.1606L22.9732 12.9356L23.6104 12.2984L27.7007 8.20812ZM8.20812 4.29931L7.78108 3.87227L7.29606 4.23211C6.12936 5.09771 5.09657 6.13049 4.23098 7.2972L3.87113 7.78222L4.29817 8.20926L8.38846 12.2995L9.02562 12.9367L9.48544 12.1618C10.1391 11.0601 11.059 10.1402 12.1606 9.48657L12.9356 9.02676L12.2984 8.38959L8.20812 4.29931ZM4.29932 23.7919L3.87226 24.2189L4.23213 24.7039C5.09774 25.8706 6.13052 26.9034 7.29719 27.769L7.78221 28.1289L8.20927 27.7018L12.2996 23.6115L12.9367 22.9744L12.1618 22.5146C11.0601 21.8609 10.1403 20.941 9.48658 19.8394L9.02676 19.0644L8.3896 19.7016L4.29932 23.7919ZM24.6671 28.5135L25.6347 27.5019L25.3722 27.2428C26.2678 26.4947 27.0725 25.6427 27.769 24.7039L28.1289 24.2189L27.7018 23.7919L23.6115 19.7016L22.9744 19.0644L22.5146 19.8394C21.8609 20.941 20.941 21.8609 19.8394 22.5146L19.0593 22.9774L19.7048 23.6147L23.244 27.109L23.1925 27.1472L23.8111 27.7203L24.6671 28.5135ZM7.49978 3.27851C10.0159 1.59733 12.9739 0.7 16 0.7C20.0578 0.7 23.9494 2.31196 26.8187 5.18126C29.688 8.05057 31.3 11.9422 31.3 16C31.3 19.026 30.4027 21.9841 28.7215 24.5002C27.0403 27.0163 24.6508 28.9773 21.8551 30.1354C19.0593 31.2934 15.983 31.5964 13.0151 31.006C10.0472 30.4157 7.32102 28.9585 5.18127 26.8187C3.04153 24.679 1.58435 21.9528 0.993992 18.9849C0.403639 16.017 0.70663 12.9406 1.86465 10.1449C3.02267 7.34923 4.98371 4.9597 7.49978 3.27851ZM12.1704 21.7314C13.304 22.4889 14.6367 22.8931 16 22.8931C17.8282 22.8931 19.5815 22.1669 20.8742 20.8742C22.1669 19.5815 22.8931 17.8282 22.8931 16C22.8931 14.6367 22.4889 13.3039 21.7314 12.1704C20.974 11.0368 19.8974 10.1533 18.6379 9.63156C17.3783 9.10984 15.9924 8.97333 14.6552 9.2393C13.3181 9.50528 12.0898 10.1618 11.1258 11.1258C10.1618 12.0898 9.50529 13.3181 9.23931 14.6552C8.97334 15.9923 9.10984 17.3783 9.63157 18.6379C10.1533 19.8974 11.0368 20.974 12.1704 21.7314Z" stroke="#757575" stroke-width="1.4"/>
<path d="M18.854 9.14286L24.5683 4L27.9969 8C26.2826 9.90476 22.854 13.4857 22.854 12.5714C22.854 11.6571 20.1873 9.90476 18.854 9.14286Z" fill="#757575"/>
<path d="M9.12884 12.6426L3.50849 7.0544L7.70119 3.52976C9.77367 5.19744 13.6746 8.53834 12.6985 8.5605C11.7224 8.58266 9.91201 11.2911 9.12884 12.6426Z" fill="#757575"/>
<path d="M25.1288 28.6556L19.5085 23.0675L23.7012 19.5428C25.7737 21.2105 29.6746 24.5514 28.6985 24.5736C27.7224 24.5957 25.912 27.3042 25.1288 28.6556Z" fill="#757575"/>
<path d="M12.6191 23.0031L6.97372 28.2215L3.49224 24.2675C5.18103 22.3401 8.56165 18.7139 8.57382 19.6281C8.58598 20.5423 11.2757 22.259 12.6191 23.0031Z" fill="#757575"/>
</g>
</svg>
