<svg width="25" height="31" viewBox="0 0 25 31" fill="none" xmlns="http://www.w3.org/2000/svg">
<path d="M11.1545 11.6291C8.77958 11.2095 7.14907 10.5697 5.98049 9.46682C4.81589 8.36765 4.01355 6.71617 3.50102 4.06327C3.4127 3.60608 3.82879 3.21094 4.29996 3.34315C6.58157 3.98337 8.18395 4.74268 9.35482 5.86709C10.517 6.98317 11.3251 8.52825 11.8789 10.879C11.9805 11.3102 11.6139 11.7102 11.1545 11.6291Z" stroke="#757575" stroke-width="1.5"/>
<path d="M11.1545 24.2638C8.77958 23.8442 7.14907 23.2045 5.98049 22.1016C4.81589 21.0024 4.01355 19.3509 3.50102 16.698C3.4127 16.2408 3.82879 15.8457 4.29996 15.9779C6.58157 16.6181 8.18395 17.3774 9.35482 18.5019C10.517 19.6179 11.3251 21.163 11.8789 23.5138C11.9805 23.9449 11.6139 24.345 11.1545 24.2638Z" stroke="#757575" stroke-width="1.5"/>
<path d="M13.3878 18.2638C15.7627 17.8442 17.3932 17.2045 18.5617 16.1016C19.7263 15.0024 20.5287 13.3509 21.0412 10.698C21.1295 10.2408 20.7134 9.8457 20.2423 9.97791C17.9607 10.6181 16.3583 11.3774 15.1874 12.5019C14.0252 13.6179 13.2171 15.163 12.6633 17.5138C12.5618 17.9449 12.9284 18.345 13.3878 18.2638Z" stroke="#757575" stroke-width="1.5"/>
<line x1="12.2501" y1="2.38483" x2="12.2501" y2="29.8848" stroke="#757575" stroke-width="1.5" stroke-linecap="round"/>
</svg>
