<svg width="32" height="32" viewBox="0 0 32 32" fill="none" xmlns="http://www.w3.org/2000/svg">
<mask id="mask0" mask-type="alpha" maskUnits="userSpaceOnUse" x="0" y="0" width="32" height="32">
<path d="M32 0L32 32L-1.39876e-06 32L0 -1.39876e-06L32 0Z" fill="#C4C4C4"/>
</mask>
<g mask="url(#mask0)">
<path d="M3.32948 23.1015C5.22854 20.8122 6.56928 19.6468 6.56928 13.3353C6.56928 7.55551 9.56578 5.49635 12.032 4.49627C12.3597 4.36371 12.668 4.05924 12.7679 3.72782C13.2005 2.2776 14.4133 1 16.0254 1C17.6375 1 18.8511 2.27833 19.2793 3.72928C19.3791 4.06434 19.6875 4.36371 20.0151 4.49627C22.4843 5.49781 25.4778 7.54969 25.4778 13.3353C25.4815 19.6468 26.8223 20.8122 28.7213 23.1015C29.5082 24.0499 28.819 25.4739 27.4427 25.4739H4.6007C3.23186 25.4739 2.54707 24.0455 3.32948 23.1015Z" stroke="#616161" stroke-width="1.4" stroke-linecap="round" stroke-linejoin="round"/>
<path d="M10.8954 25.4736V26.5789C10.8954 27.7515 11.3944 28.876 12.2828 29.7051C13.1711 30.5342 14.376 31 15.6323 31C16.8886 31 18.0934 30.5342 18.9817 29.7051C19.8701 28.876 20.3691 27.7515 20.3691 26.5789V25.4736" stroke="#616161" stroke-width="1.4" stroke-linecap="round" stroke-linejoin="round"/>
</g>
</svg>
